<?xml version="1.0" encoding="utf-8"?>
<svg version="1.1" xmlns:xlink="http://www.w3.org/1999/xlink" width="76px" height="76px" xmlns="http://www.w3.org/2000/svg">
  <g transform="matrix(1 0 0 1 -153 -768 )">
    <path d="M 191 768  C 212.28 768  229 784.72  229 806  C 229 827.28  212.28 844  191 844  C 169.72 844  153 827.28  153 806  C 153 784.72  169.72 768  191 768  Z " fill-rule="nonzero" fill="#ffffff" stroke="none" />
    <path d="M 191 768.5  C 212 768.5  228.5 785  228.5 806  C 228.5 827  212 843.5  191 843.5  C 170 843.5  153.5 827  153.5 806  C 153.5 785  170 768.5  191 768.5  Z " stroke-width="1" stroke="#f2f2f2" fill="none" />
  </g>
</svg>