<?xml version="1.0" encoding="utf-8"?>
<svg version="1.1" xmlns:xlink="http://www.w3.org/1999/xlink" width="23px" height="20px" xmlns="http://www.w3.org/2000/svg">
  <g transform="matrix(1 0 0 1 -634 -844 )">
    <path d="M 19.4158075601375 16.4948453608247  C 20.938335242459 16.4948453608247  22.1840397098129 15.2577319587629  22 13.7457044673541  L 22 2.74914089347089  C 22.1840397098129 1.23711340206194  20.938335242459 0  19.4158075601375 0  L 2.80641466208471 0  C 1.28388697976322 0  0.038182512409378 1.23711340206194  0 2.74914089347089  L 0 13.7457044673541  C 0.038182512409378 15.2577319587629  1.28388697976322 16.4948453608247  2.80641466208471 16.4948453608247  L 8.20446735395194 16.4948453608247  L 11.0419053073692 20  L 13.8793432607866 16.4948453608247  L 19.4158075601375 16.4948453608247  Z M 2.80641466208471 2  L 19.4158075601375 2  C 19.9694539900726 1.71821305841922  20.4538946162658 2.19931271477662  20 2.74914089347089  L 20 13.7457044673541  C 20.4538946162658 14.2955326460482  19.9694539900726 14.7766323024055  19.4158075601375 14.7766323024055  L 13.9485490645284 14.7766323024055  L 13.1180794196258 14.7766323024055  L 12.5644329896908 15.3951890034364  L 11.1111111111111 17.2508591065293  L 9.5885834287896 15.3951890034364  L 9.03493699885456 14.7766323024055  L 8.20446735395194 14.7766323024055  L 2.80641466208471 14.7766323024055  C 2.25276823214966 14.7766323024055  1.76832760595642 14.2955326460482  2 13.7457044673541  L 2 2.74914089347089  C 1.76832760595642 2.19931271477662  2.25276823214966 1.71821305841922  2.80641466208471 2  Z M 19.4158075601375 0  C 19.4158075601375 0  20.938335242459 0  19.4158075601375 0  Z M 17.1320160366553 9.68881252386404  C 17.893279877816 9.68881252386404  18.5161321114929 9.135166093929  18.4469263077511 8.37390225276829  C 18.4469263077511 7.68184421534932  17.893279877816 7.05899198167242  17.1320160366553 7.05899198167242  C 16.4399579992364 7.05899198167242  15.8171057655593 7.68184421534932  15.8171057655593 8.37390225276829  C 15.8171057655593 9.06596029018715  16.3707521954945 9.68881252386404  17.1320160366553 9.68881252386404  Z M 5.09020618556696 9.68881252386404  C 5.85147002672772 9.68881252386404  6.40511645666288 9.06596029018715  6.40511645666288 8.37390225276829  C 6.40511645666288 7.68184421534932  5.78226422298587 7.05899198167242  5.09020618556696 7.05899198167242  C 4.39814814814821 7.05899198167242  3.77529591447114 7.68184421534932  3.77529591447114 8.37390225276829  C 3.77529591447114 9.06596029018715  4.32894234440619 9.68881252386404  5.09020618556696 9.68881252386404  Z M 11.1111111111111 9.68881252386404  C 11.8723749522719 9.68881252386404  12.4952271859488 9.135166093929  12.4952271859488 8.37390225276829  C 12.4952271859488 7.61263841160746  11.80316914853 7.05899198167242  11.1111111111111 7.05899198167242  C 10.4190530736922 7.05899198167242  9.79620084001527 7.68184421534932  9.79620084001527 8.37390225276829  C 9.79620084001527 9.06596029018715  10.3498472699504 9.68881252386404  11.1111111111111 9.68881252386404  Z " fill-rule="nonzero" fill="#999999" stroke="none" transform="matrix(1 0 0 1 634 844 )" />
  </g>
</svg>