<?xml version="1.0" encoding="utf-8"?>
<svg version="1.1" xmlns:xlink="http://www.w3.org/1999/xlink" width="25px" height="17px" xmlns="http://www.w3.org/2000/svg">
  <g transform="matrix(1 0 0 1 -34 -33 )">
    <path d="M 23.7847222222222 17  L 13.0208333333333 17  L 6.78404434072064 17  L 0.868055555555632 17  C 0.632957175926034 17  0.429506655092737 16.8780948067626  0.257703993055536 16.6342844202914  C 0.0859013310183343 16.3904740338164  0 16.1017512077287  0 15.7681159420304  C 0 15.4344806763283  0.0859013310183343 15.1457578502409  0.257703993055536 14.9019474637696  L 6.33409288194446 6.27875905797146  C 6.50589554398167 6.03494867149834  6.70934606481496 5.91304347826099  6.94444444444437 5.91304347826099  C 7.17954282407387 5.91304347826099  7.38299334490726 6.03494867149834  7.55479600694446 6.27875905797146  L 9.22210227259335 8.64488881694706  L 14.4232855902778 0.560763888888687  C 14.6638093171301 0.186921296295623  14.9486400462967 0  15.2777777777778 0  C 15.6069155092588 0  15.8917462384255 0.186921296295623  16.1322699652778 0.560763888888687  L 24.6392144097222 13.7829861111113  C 24.8797381365746 14.1568287037026  25 14.5995370370365  25 15.1111111111113  C 25 15.6226851851843  24.8797381365746 16.0653935185182  24.6392144097222 16.4392361111113  C 24.3986906828699 16.8130787037026  24.1138599537032 17  23.7847222222222 17  Z " fill-rule="nonzero" fill="#cccccc" stroke="none" transform="matrix(1 0 0 1 34 33 )" />
  </g>
</svg>