<?xml version="1.0" encoding="utf-8"?>
<svg version="1.1" xmlns:xlink="http://www.w3.org/1999/xlink" width="40px" height="35px" xmlns="http://www.w3.org/2000/svg">
  <g transform="matrix(1 0 0 1 -42 -45 )">
    <path d="M 0 29.9890029325513  C 0 32.3415294383036  1.90909090909093 34.2600947439657  4.27272727272725 34  L 35.5227272727273 34  C 37.8636363636364 34.2600947439657  39.7954545454545 32.3415294383036  39 29.9661628693887  L 39 10.003947665238  C 39.7727272727273 7.62858109632305  37.8636363636364 5.71001579066098  35.5227272727273 5.71001579066098  L 30.0454545454546 5.71001579066098  L 28.4090909090909 2.35252650575228  C 27.6363636363636 0.936442589668388  26.2045454545454 0  24.5681818181818 0  L 15.2727272727273 0  C 13.6363636363636 0  12.1363636363636 0.936442589668388  11.4318181818182 2.35252650575228  L 9.79545454545456 5.71001579066098  L 4.27272727272725 5.71001579066098  C 1.90909090909093 5.71001579066098  0 7.62858109632305  0 10.003947665238  L 0 29.9890029325513  Z M 10.9155555555556 20.0575682382131  C 10.9155555555556 14.971712158809  14.9392592592592 10.9280397022333  20 10.9280397022333  C 25.0607407407408 10.9280397022333  29.0844444444445 14.971712158809  29.0844444444445 20.0575682382131  C 29.0844444444445 25.143424317618  25.0607407407408 29.1870967741934  20 29.1870967741934  C 14.9392592592592 29.1870967741934  10.9155555555556 25.143424317618  10.9155555555556 20.0575682382131  Z M 13.5111111111111 20.0694789081883  C 13.5111111111111 23.7022332506205  16.3851851851852 26.5905707196029  20 26.5905707196029  C 23.6148148148148 26.5905707196029  26.4888888888889 23.7022332506205  26.4888888888889 20.0694789081883  C 26.4888888888889 16.4367245657569  23.6148148148148 13.5483870967742  20 13.5483870967742  C 16.3851851851852 13.5483870967742  13.5111111111111 16.4367245657569  13.5111111111111 20.0694789081883  Z " fill-rule="nonzero" fill="#ffffff" stroke="none" transform="matrix(1 0 0 1 42 45 )" />
  </g>
</svg>