<?xml version="1.0" encoding="utf-8"?>
<svg version="1.1" xmlns:xlink="http://www.w3.org/1999/xlink" width="70px" height="48px" xmlns="http://www.w3.org/2000/svg">
  <g transform="matrix(1 0 0 1 -153 -38 )">
    <path d="M 66.5972222222219 47  L 36.4583333333333 47  L 18.9953241540179 47  L 2.43055555555588 47  C 1.77228009259267 47.3938002296212  1.20261863425989 47.0539443251948  0.721571180555628 46.3742325163521  C 0.240523726851336 45.6945207074991  0 44.8895988285975  0 43.9594668796527  C 0 43.0293349306971  0.240523726851336 42.224413051796  0.721571180555628 41.5447012429531  L 17.7354600694444 17.5043677931425  C 18.2165075231487 16.8246559842947  18.786168981482 16.4848000798683  19.4444444444441 16.4848000798683  C 20.1027199074071 16.4848000798683  20.6723813657401 16.8246559842947  21.1534288194444 17.5043677931425  L 25.8218863632611 24.1008313880988  L 40.385199652778 1.56333716035147  C 41.0586660879641 0.521112386782079  41.8561921296311 0  42.777777777778 0  C 43.6993634259247 0  44.4968894675913 0.521112386782079  45.170355902778 1.56333716035147  L 68.9898003472219 38.4251817833913  C 69.6632667824089 39.4674065569558  70 40.7016201046036  70 42.1278224263306  C 70 43.5540247480523  69.6632667824089 44.7882382957004  68.9898003472219 45.8304630692695  C 68.3163339120359 46.8726878428339  67.5188078703686 47.3938002296212  66.5972222222219 47  Z " fill-rule="nonzero" fill="#cccccc" stroke="none" transform="matrix(1 0 0 1 153 38 )" />
  </g>
</svg>