<?xml version="1.0" encoding="utf-8"?>
<svg version="1.1" xmlns:xlink="http://www.w3.org/1999/xlink" width="40px" height="40px" xmlns="http://www.w3.org/2000/svg">
  <g transform="matrix(1 0 0 1 -1078 -393 )">
    <path d="M 24.5795763568505 20.012856198774  L 38.4571173287468 33.9357411387595  C 39.7175432172136 35.2025950761109  39.7142422862999 37.2451626273441  38.4506892798601 38.5055885158052  C 37.820563242096 39.1325874355961  36.9963784411599 39.4493008694369  36.169066522249 39.4493008694369  C 35.3384536724241 39.4493008694369  34.5111417535131 39.1325873345997  33.8808419028102 38.4991603659257  L 19.9838429713107 24.5601182962528  L 6.04167368267008 38.3537467037459  C 5.41154764490614 38.9743174736535  4.59049006293935 39.2877300775729  3.76960619291515 39.2877300775729  C 2.93586612412082 39.2877300775729  2.10525337529259 38.9677157128226  1.4718263056202 38.3278605942652  C 0.217828466041965 37.0577057259957  0.227557445842649 35.0151381747663  1.4977124151045 33.7580132172115  L 15.4237245740613 19.9838428703159  L 1.5493108211366 6.06425876024397  C 0.288884932669703 4.8005319408652  0.292185863583541 2.75483727166321  1.55573887002333 1.4944113831983  C 2.81946568940214 0.230684563819494  4.8618594276943 0.237286425643191  6.12558624707117 1.500839432085  L 20.0192842476588 15.4365805708441  L 33.9614535362994 1.64312587529139  C 35.228307473653 0.386000917740375  37.277303073771 0.39885701551384  38.5313009133492 1.66901198477589  C 39.7884258709023 2.9391668530414  39.7755697731249 4.98486152224771  38.5054148038628 6.23885936182586  L 24.5795763568505 20.012856198774  Z " fill-rule="nonzero" fill="#cccccc" stroke="none" transform="matrix(1 0 0 1 1078 393 )" />
  </g>
</svg>