<?xml version="1.0" encoding="utf-8"?>
<svg version="1.1" xmlns:xlink="http://www.w3.org/1999/xlink" width="160px" height="106px" xmlns="http://www.w3.org/2000/svg">
  <g transform="matrix(1 0 0 1 -108 -160 )">
    <path d="M 152.222222222222 106  L 83.3333333333336 106  L 43.4178837806118 106  L 5.55555555555588 106  C 4.05092592592666 106  2.74884259259375 105.239885265696  1.64930555555549 103.71965579711  C 0.549768518517453 102.199426328502  0 100.399154589368  0 98.3188405797191  C 0 96.2385265700474  0.549768518517453 94.4382548309133  1.64930555555549 92.9180253623277  L 40.5381944444445 39.1499094202925  C 41.6377314814825 37.6296799516955  42.939814814816 36.8695652173914  44.4444444444441 36.8695652173914  C 45.949074074073 36.8695652173914  47.2511574074063 37.6296799516955  48.3506944444445 39.1499094202925  L 59.0214545445972 53.9034243880231  L 92.3090277777777 3.49652777777652  C 93.8483796296325 1.16550925925486  95.6712962962993 0  97.7777777777777 0  C 99.8842592592563 0  101.707175925923 1.16550925925486  103.246527777778 3.49652777777652  L 157.690972222222 85.9409722222234  C 159.230324074077 88.2719907407336  160 91.0324074074043  160 94.2222222222237  C 160 97.4120370370317  159.230324074077 100.172453703702  157.690972222222 102.503472222223  C 156.151620370367 104.834490740734  154.3287037037 106  152.222222222222 106  Z " fill-rule="nonzero" fill="#cccccc" stroke="none" transform="matrix(1 0 0 1 108 160 )" />
  </g>
</svg>