<?xml version="1.0" encoding="utf-8"?>
<svg version="1.1" xmlns:xlink="http://www.w3.org/1999/xlink" width="11px" height="26px" xmlns="http://www.w3.org/2000/svg">
  <g transform="matrix(1 0 0 1 -423 -113 )">
    <path d="M 0.189003436425992 12.4008016032064  C 0.0630011454754822 12.5744822979292  0 12.7742150968603  0 13  C 0 13.2257849031397  0.0630011454754822 13.4255177020708  0.189003436425992 13.5991983967936  L 8.99656357388312 25.7394789579158  C 9.12256586483386 25.9131596526386  9.2674684994272 26  9.43127147766313 26  C 9.59507445589929 26  9.73997709049263 25.9131596526386  9.86597938144314 25.7394789579158  L 10.810996563574 24.4368737474949  C 10.9369988545245 24.2631930527723  11 24.063460253841  11 23.8376753507013  C 11 23.6118904475619  10.9369988545245 23.4121576486308  10.810996563574 23.2384769539077  L 3.38316151202753 13  L 10.810996563574 2.7615230460923  C 10.9369988545245 2.58784235136921  11 2.38810955243811  11 2.16232464929871  C 11 1.93653974615904  10.9369988545245 1.73680694722766  10.810996563574 1.56312625250511  L 9.86597938144314 0.26052104208423  C 9.73997709049263 0.0868403473614101  9.59507445589929 0  9.43127147766313 0  C 9.2674684994272 0  9.12256586483386 0.0868403473614101  8.99656357388312 0.26052104208423  L 0.189003436425992 12.4008016032064  Z " fill-rule="nonzero" fill="#666666" stroke="none" transform="matrix(1 0 0 1 423 113 )" />
  </g>
</svg>