<?xml version="1.0" encoding="utf-8"?>
<svg version="1.1" xmlns:xlink="http://www.w3.org/1999/xlink" width="29px" height="30px" xmlns="http://www.w3.org/2000/svg">
  <g transform="matrix(1 0 0 1 -693 -172 )">
    <path d="M 28.990531951393 29.1563275440508  C 29.0944619214861 28.6662531284489  28.3084913173275 27.9962779396606  28.3084913173275 27.9962779396606  C 28.3084913173275 27.9962779396606  22.1571344824808 25.0124069759897  19.3315376346577 24.8200992628761  L 19.3315376346577 23.9640198670004  C 23.8524925987267 22.1277915677947  26.6975763088622 17.6550868753029  26.6975763088622 12.4255583063464  C 26.6975763088622 5.57071959725022  21.1892863456947 0  14.4208451600132 0  C 7.65240397433172 0  2.14411401116467 5.57692306721356  2.14411401116467 12.4255583063464  C 2.14411401116467 17.7171215749345  5.06714524607196 22.2332506292964  9.67903893869243 24.0260546026961  L 9.67903893869243 24.8200992628761  L 9.62057831399443 24.8200992628761  C 6.99634582334852 24.9441687342676  0.73456339763834 27.9838709636701  0.73456339763834 27.9838709636701  C 0.73456339763834 27.9838709636701  -0.0838853103734891 28.641439212533  0.00705341817774752 29.1377171341612  C 0.0979921844916589 29.6339950557895  0.565677182076797 30  1.10481404590132 30  L 11.1535458354497 30  L 17.8505351548918 30  L 27.8927713236696 30  C 28.4319081874944 30  28.8866019435382 29.6464019957159  28.990531951393 29.1563275440508  Z " fill-rule="nonzero" fill="#ffffff" stroke="none" transform="matrix(1 0 0 1 693 172 )" />
  </g>
</svg>