<?xml version="1.0" encoding="utf-8"?>
<svg version="1.1" xmlns:xlink="http://www.w3.org/1999/xlink" width="26px" height="29px" xmlns="http://www.w3.org/2000/svg">
  <g transform="matrix(1 0 0 1 -80 -95 )">
    <path d="M 24.7361111111112 29  L 13.5416666666667 29  L 7.0554061143495 29  L 0.902777777777828 29  C 0.658275462963047 29  0.446686921296456 28.7920440821243  0.268012152777753 28.3761322463792  C 0.0893373842590487 27.9602204106279  0 27.4676932367137  0 26.8985507246401  C 0 26.3294082125602  0.0893373842590487 25.836881038646  0.268012152777753 25.420969202901  L 6.58745659722225 10.7108242753631  C 6.76613136574095 10.2949124396148  6.97771990740754 10.0869565217392  7.22222222222217 10.0869565217392  C 7.46672453703695 10.0869565217392  7.67831307870354 10.2949124396148  7.85698784722225 10.7108242753631  L 9.59098636349707 14.7471632759684  L 15.0002170138889 0.956597222221942  C 15.2503616898153 0.318865740739527  15.5465856481486 0  15.8888888888889 0  C 16.2311921296292 0  16.5274160879624 0.318865740739527  16.7775607638889 0.956597222221942  L 25.624782986111 23.5121527777781  C 25.8749276620376 24.1498842592573  26 24.9050925925917  26 25.7777777777782  C 26 26.6504629629615  25.8749276620376 27.4056712962958  25.624782986111 28.0434027777781  C 25.3746383101847 28.6811342592573  25.0784143518513 29  24.7361111111112 29  Z " fill-rule="nonzero" fill="#cccccc" stroke="none" transform="matrix(1 0 0 1 80 95 )" />
  </g>
</svg>