<?xml version="1.0" encoding="utf-8"?>
<svg version="1.1" xmlns:xlink="http://www.w3.org/1999/xlink" width="24px" height="12px" xmlns="http://www.w3.org/2000/svg">
  <g transform="matrix(1 0 0 1 -729 -79 )">
    <path d="M 21.3333333333333 2.40000000000001  L 4 2.40000000000001  L 4 9.59999999999999  L 21.3333333333333 9.59999999999999  L 21.3333333333333 2.40000000000001  Z M 2.66666666666669 10.5  L 2.66666666666669 7.8  L 1.33333333333337 7.8  L 1.33333333333337 4.2  L 2.66666666666669 4.2  L 2.66666666666669 1.5  C 2.66666666666669 1.4125  2.69791666666663 1.340625  2.76041666666669 1.284375  C 2.82291666666669 1.228125  2.90277777777777 1.2  3 1.2  L 22.3333333333334 1.2  C 22.4305555555555 1.2  22.5104166666667 1.228125  22.5729166666666 1.284375  C 22.6354166666667 1.340625  22.6666666666666 1.4125  22.6666666666666 1.5  L 22.6666666666666 10.5  C 22.6666666666666 10.5875  22.6354166666667 10.659375  22.5729166666666 10.715625  C 22.5104166666667 10.771875  22.4305555555555 10.8  22.3333333333334 10.8  L 3 10.8  C 2.90277777777777 10.8  2.82291666666669 10.771875  2.76041666666669 10.715625  C 2.69791666666663 10.659375  2.66666666666669 10.5875  2.66666666666669 10.5  Z M 0.390625 3.3515625  C 0.130208333333314 3.5859375  0 3.86875  0 4.2  L 0 7.8  C 0 8.13124999999999  0.130208333333314 8.4140625  0.390625 8.6484375  C 0.651041666666686 8.8828125  0.965277777777771 9  1.33333333333337 9  L 1.33333333333337 10.5  C 1.33333333333337 10.9125  1.49652777777777 11.265625  1.82291666666669 11.559375  C 2.14930555555554 11.853125  2.54166666666669 12  3 12  L 22.3333333333334 12  C 22.7916666666667 12  23.1840277777778 11.853125  23.5104166666666 11.559375  C 23.8368055555555 11.265625  24 10.9125  24 10.5  L 24 1.5  C 24 1.0875  23.8368055555555 0.734375  23.5104166666666 0.440624999999997  C 23.1840277777778 0.146875000000001  22.7916666666667 0  22.3333333333334 0  L 3 0  C 2.54166666666669 0  2.14930555555554 0.146875000000001  1.82291666666669 0.440624999999997  C 1.49652777777777 0.734375  1.33333333333337 1.0875  1.33333333333337 1.5  L 1.33333333333337 3  C 0.965277777777771 3  0.651041666666686 3.1171875  0.390625 3.3515625  Z " fill-rule="nonzero" fill="#000000" stroke="none" transform="matrix(1 0 0 1 729 79 )" />
  </g>
</svg>