<?xml version="1.0" encoding="utf-8"?>
<svg version="1.1" xmlns:xlink="http://www.w3.org/1999/xlink" width="24px" height="24px" xmlns="http://www.w3.org/2000/svg">
  <defs>
    <mask fill="white" id="clip586">
      <path d="M 20 24  L 4 24  C 1.7600000000001 24  0 22.24  0 20  L 0 18.3999999999999  C 0 16.16  1.7600000000001 14.4  4 14  L 20 14  C 22.2399999999999 14.4  24 16.16  24 18.3999999999999  L 24 20  C 24 22.24  22.2399999999999 24  20 24  Z M 17.6 6  C 17.6 9.35999999999996  14.96 12  11.6 12  C 8.24000000000001 12  5.60000000000002 9.35999999999996  5.60000000000002 6  C 5.60000000000002 2.64000000000004  8.24000000000001 0  11.6 0  C 14.96 0  17.6 2.64000000000004  17.6 6  Z " fill-rule="evenodd" />
    </mask>
  </defs>
  <g transform="matrix(1 0 0 1 -654 -834 )">
    <path d="M 20 24  L 4 24  C 1.7600000000001 24  0 22.24  0 20  L 0 18.3999999999999  C 0 16.16  1.7600000000001 14.4  4 14  L 20 14  C 22.2399999999999 14.4  24 16.16  24 18.3999999999999  L 24 20  C 24 22.24  22.2399999999999 24  20 24  Z M 17.6 6  C 17.6 9.35999999999996  14.96 12  11.6 12  C 8.24000000000001 12  5.60000000000002 9.35999999999996  5.60000000000002 6  C 5.60000000000002 2.64000000000004  8.24000000000001 0  11.6 0  C 14.96 0  17.6 2.64000000000004  17.6 6  Z " fill-rule="nonzero" fill="#ffffff" stroke="none" fill-opacity="0" transform="matrix(1 0 0 1 654 834 )" />
    <path d="M 20 24  L 4 24  C 1.7600000000001 24  0 22.24  0 20  L 0 18.3999999999999  C 0 16.16  1.7600000000001 14.4  4 14  L 20 14  C 22.2399999999999 14.4  24 16.16  24 18.3999999999999  L 24 20  C 24 22.24  22.2399999999999 24  20 24  Z " stroke-width="4" stroke="#999999" fill="none" transform="matrix(1 0 0 1 654 834 )" mask="url(#clip586)" />
    <path d="M 17.6 6  C 17.6 9.35999999999996  14.96 12  11.6 12  C 8.24000000000001 12  5.60000000000002 9.35999999999996  5.60000000000002 6  C 5.60000000000002 2.64000000000004  8.24000000000001 0  11.6 0  C 14.96 0  17.6 2.64000000000004  17.6 6  Z " stroke-width="4" stroke="#999999" fill="none" transform="matrix(1 0 0 1 654 834 )" mask="url(#clip586)" />
  </g>
</svg>