<?xml version="1.0" encoding="utf-8"?>
<svg version="1.1" xmlns:xlink="http://www.w3.org/1999/xlink" width="18px" height="18px" xmlns="http://www.w3.org/2000/svg">
  <g transform="matrix(1 0 0 1 -336 -252 )">
    <path d="M 11.5692071644399 13.4974083334  C 11.5692071443511 13.8533307675016  11.2823958600911 14.1435976276369  10.9264734263863 14.1435976276369  C 10.5705509926812 14.1435976276369  10.283739688332 13.8567863430585  10.283739688332 13.5008638888662  L 10.283739688332 6.42733730735893  C 10.283739688332 6.07141487325589  10.5705509725918 5.7846035685867  10.9264734263863 5.7846035685867  C 11.2823958801804 5.7846035685867  11.5692071644399 6.07141485316802  11.5692071644399 6.42733730735893  L 11.5692071644399 13.4974083334  Z M 7.71280479638233 13.4974083334  C 7.71280477629341 13.8533307675016  7.42599349203317 14.1435976276369  7.07007103823923 14.1435976276369  C 6.71414860453399 14.1435976276369  6.42733730018517 13.8567863430585  6.42733730018517 13.5008638888662  L 6.42733732027409 6.42733730735893  C 6.42733732027409 6.07141487325589  6.71414860453399 5.7846035685867  7.07007105832804 5.7846035685867  C 7.42599349203317 5.7846035685867  7.71280479638233 6.07141485316802  7.71280479638233 6.42733730735893  L 7.71280479638233 13.4974083334  Z M 18 3.85640239245095  C 18 3.50047993825783  17.7131887157401 3.21366865367872  17.3572662619461 3.21366865367872  L 14.1435976118531 3.21366865367872  L 14.143597631942 1.92820119622363  C 14.143597631942 0.863889429295767  13.2866193346257 0  12.2292186798114 0  L 5.78460358222014 0  C 4.72029181647918 0  3.85640238814688 0.863889429295767  3.85640238814688 1.92820119622363  L 3.85640238814688 3.21366865367872  L 0.642733738053948 3.21366865367872  C 0.286811304348817 3.21366865367872  0 3.50047993825783  0 3.85640239245095  C 0 4.21232484664256  0.286811284259898 4.49913613122317  0.642733738053948 4.49913613122317  L 17.3572662619461 4.49913613122317  C 17.7131886956512 4.49913613122317  18 4.21232484664256  18 3.85640239245095  Z M 5.14186986425511 1.92820119622363  C 5.14186986425511 1.57573431759045  5.43213670397824 1.28546745745288  5.78460360230895 1.28546745745288  L 12.2292186798114 1.28546745745288  C 12.5816855580528 1.28546745745288  12.858130175923 1.56882318656804  12.858130175923 1.92820119622363  L 12.858130175923 3.21366865367872  L 5.14186986425511 3.21366865367872  L 5.14186986425511 1.92820119622363  Z M 15.4325206635139 16.0717988037764  C 15.429065087961 17.1326550152366  14.5651756596293 18  13.5008638938878 18  L 4.50259168166383 18  C 3.43827991592286 18  2.57439048759056 17.1361105707042  2.57439048759056 16.0717988037764  L 2.57439048759056 6.42042617633433  C 2.57439048759056 6.06450374223277  2.8612017718508 5.77769243756288  3.21712422564485 5.77769243756288  C 3.57304667943879 5.77769243756288  3.85985796369869 6.0645037221442  3.85985796369869 6.42042617633433  L 3.85985796369869 16.0717988037764  C 3.85985796369869 16.4277212378772  4.15012480342239 16.7145325425471  4.50259170175275 16.7145325425471  L 13.5043194694405 16.7145325425471  C 13.8602419031457 16.7145325425471  14.1470532074948 16.4277212579658  14.1470532074948 16.0717988037764  L 14.1470531874053 6.4446150846934  C 14.1470531874053 6.08869265059332  14.4338644716655 5.80188134592194  14.7897869254596 5.80188134592194  C 15.1457093792536 5.80188134592194  15.4325206635139 6.08869263050326  15.4325206635139 6.4446150846934  L 15.4325206635139 16.0717988037764  Z " fill-rule="nonzero" fill="#999999" stroke="none" transform="matrix(1 0 0 1 336 252 )" />
  </g>
</svg>