<?xml version="1.0" encoding="utf-8"?>
<svg version="1.1" xmlns:xlink="http://www.w3.org/1999/xlink" width="14px" height="14px" xmlns="http://www.w3.org/2000/svg">
  <g transform="matrix(1 0 0 1 -16 -18 )">
    <path d="M 11.6666666621094 6.41678333789062  C 11.6666666621094 9.31186667578123  9.31175000000002 11.6667833378906  6.41666666210944 11.6667833378906  C 3.52158332421868 11.6667833378906  1.16666666210944 9.31186667578123  1.16666666210944 6.41678333789062  C 1.16666666210944 3.52170000000004  3.52158332421868 1.16678333789062  6.41666666210944 1.16678333789062  C 9.31175000000002 1.16678333789062  11.6666666621094 3.52170000000004  11.6666666621094 6.41678333789062  Z M 13.8296666621094 13.8297833378907  C 14.056555958166 13.6016472139543  14.056555958166 13.2330861239363  13.8296666621094 13.00495  L 11.347 10.5217  C 12.2744999999999 9.4092833378906  12.8333333378906 7.97836666210938  12.8333333378906 6.41678333789062  C 12.8333333378906 2.87303333789066  9.96041667578123 0.000116675781214326  6.41666666210944 0.000116662109405752  C 2.87291664843747 0.000116648437511913  0 2.87303332421877  0 6.41678333789062  C 0 9.9605333515625  2.87291666210933 12.83345  6.41666666210944 12.83345  C 7.97825 12.83345  9.40916666210939 12.2746166621093  10.5215833378905 11.3471166621094  L 13.0048333378906 13.8297833378907  C 13.232969460234 14.0566726248825  13.601530539766 14.0566726248825  13.8296666621094 13.8297833378907  Z " fill-rule="nonzero" fill="#999999" stroke="none" transform="matrix(1 0 0 1 16 18 )" />
  </g>
</svg>