<?xml version="1.0" encoding="utf-8"?>
<svg version="1.1" xmlns:xlink="http://www.w3.org/1999/xlink" width="20px" height="20px" xmlns="http://www.w3.org/2000/svg">
  <g transform="matrix(1 0 0 1 -344 -175 )">
    <path d="M 8.03571428571422 19.46  C 7.52142857142849 19.46  7.07142857142867 19.04  7.07142857142867 18.5599999999999  L 7.07142857142867 13.34  L 1.47857142857151 13.34  C 0.964285714285779 13.34  0.514285714285734 12.92  0.514285714285734 12.4400000000001  C 0.514285714285734 11.96  0.964285714285779 11.54  1.47857142857151 11.54  L 8.03571428571422 11.54  C 8.54999999999995 11.6  9 12.02  9 12.5  L 9 18.62  C 9 19.04  8.54999999999995 19.46  8.03571428571422 19.46  Z M 18.5214285714285 8.46000000000004  L 11.9642857142858 8.39999999999998  C 11.45 8.39999999999998  11 7.98000000000002  11 7.5  L 11 1.38  C 11 0.899999999999977  11.45 0.480000000000018  11.9642857142858 0.480000000000018  C 12.4785714285715 0.480000000000018  12.9285714285713 0.899999999999977  12.9285714285713 1.38  L 12.9285714285713 6.65999999999997  L 18.5214285714285 6.65999999999997  C 19.0357142857142 6.65999999999997  19.4857142857143 7.08000000000004  19.4857142857143 7.55999999999995  C 19.4857142857143 8.03999999999996  19.0357142857142 8.46000000000004  18.5214285714285 8.46000000000004  Z " fill-rule="nonzero" fill="#ffffff" stroke="none" transform="matrix(1 0 0 1 344 175 )" />
  </g>
</svg>