<?xml version="1.0" encoding="utf-8"?>
<svg version="1.1" xmlns:xlink="http://www.w3.org/1999/xlink" width="54px" height="54px" xmlns="http://www.w3.org/2000/svg">
  <g transform="matrix(1 0 0 1 -449 0 )">
    <path d="M 476 0  C 491.12 0  503 11.88  503 27  C 503 42.12  491.12 54  476 54  C 460.88 54  449 42.12  449 27  C 449 11.88  460.88 0  476 0  Z " fill-rule="nonzero" fill="#ffffff" stroke="none" />
    <path d="M 476 0.5  C 490.84 0.5  502.5 12.16  502.5 27  C 502.5 41.84  490.84 53.5  476 53.5  C 461.16 53.5  449.5 41.84  449.5 27  C 449.5 12.16  461.16 0.5  476 0.5  Z " stroke-width="1" stroke="#d7d7d7" fill="none" />
  </g>
</svg>