<?xml version="1.0" encoding="utf-8"?>
<svg version="1.1" xmlns:xlink="http://www.w3.org/1999/xlink" width="12px" height="6px" xmlns="http://www.w3.org/2000/svg">
  <g transform="matrix(1 0 0 1 -350 -22 )">
    <path d="M 11.4673518790177 6.22305981780482  C 11.6488436367409 6.04316160386793  11.647439059068 5.75268013193329  11.464542709094 5.57418796038712  L 6.31204278384109 0.55319519715033  C 6.30456841732155 0.545844362448292  6.29430995975918 0.543550301586606  6.28638412965972 0.536668147681439  C 6.28452807382484 0.534842767616624  6.28405153136111 0.532080040298183  6.28219547552624 0.530254660233254  C 6.09882258308846 0.352206490752678  5.80348462241352 0.353119187954917  5.62196777122847 0.533017387552036  L 0.517073057247899 5.59989122462264  C 0.335581299524506 5.7802334406249  0.336960798316568 6.07024623176289  0.519882212589437 6.24873840330906  C 0.610853823242451 6.33729380725276  0.729841794415051 6.38181818181852  0.848353208543131 6.38181818181852  C 0.968269200345617 6.38181818181852  1.08863665572937 6.33638112439007  1.17963335984132 6.24600034038201  L 5.95979426841768 1.50216872899534  L 10.8076007317644 6.2257978807321  C 10.8985723424188 6.31435328467558  11.0171088354266 6.35887765924156  11.1360717277195 6.35887765924156  C 11.2564391976855 6.35887765924156  11.3763551749045 6.31344060181311  11.4673518790177 6.22305981780482  Z " fill-rule="nonzero" fill="#999999" stroke="none" transform="matrix(1 0 0 1 350 22 )" />
  </g>
</svg>