<?xml version="1.0" encoding="utf-8"?>
<svg version="1.1" xmlns:xlink="http://www.w3.org/1999/xlink" width="16px" height="16px" xmlns="http://www.w3.org/2000/svg">
  <g>
    <path d="M 16 0.615384615384613  C 16 0.566153846153895  15.9833846153847 0.523076923076928  15.9723076923076 0.476923076923072  C 15.9680000000001 0.451076923076926  15.9661538461538 0.424615384615379  15.9569230769231 0.399384615384577  C 15.9569230769231 0.399384615384577  15.9569230769231 0.399384615384577  15.9563076923077 0.398769230769233  C 15.9409230769231 0.356923076923067  15.9156923076922 0.322461538461539  15.8916923076923 0.285538461538465  C 15.891076923077 0.284307692307692  15.8904615384615 0.28369230769232  15.8898461538463 0.282461538461547  C 15.8738461538462 0.257846153846145  15.8664615384616 0.230769230769226  15.8467692307693 0.208000000000027  C 15.8424615384615 0.203076923076907  15.8363076923076 0.201230769230762  15.8320000000001 0.19630769230767  C 15.8012307692309 0.163076923076915  15.7630769230769 0.140923076923116  15.7249230769231 0.11507692307697  C 15.7249230769231 0.114461538461512  15.7243076923077 0.114461538461512  15.7236923076923 0.113846153846168  C 15.6947692307692 0.0941538461538585  15.6689230769231 0.0701538461538576  15.6375384615385 0.0560000000000116  C 15.5593846153845 0.0215384615384551  15.4744615384614 0  15.3846153846154 0  L 11.0769230769231 0  C 10.7366153846154 0  10.4615384615385 0.275692307692282  10.4615384615385 0.615384615384613  C 10.4615384615385 0.955076923076888  10.7366153846154 1.23076923076923  11.0769230769231 1.23076923076923  L 13.7563076923077 1.23076923076923  L 10.8196923076923 3.82030769230772  C 9.68861538461533 2.97107692307694  8.28923076923081 2.46153846153851  6.76923076923072 2.46153846153851  C 3.03692307692302 2.46153846153851  0 5.49846153846153  0 9.23076923076923  C 0 12.9630769230769  3.03692307692302 16  6.76923076923072 16  C 10.5015384615383 16  13.5384615384615 12.9630769230769  13.5384615384615 9.23076923076923  C 13.5384615384615 7.46338461538465  12.8523076923077 5.85723076923074  11.7384615384616 4.65046153846154  L 14.7692307692307 1.97846153846154  L 14.7692307692307 4.30769230769232  C 14.7692307692307 4.6473846153846  15.0443076923077 4.92307692307696  15.3846153846154 4.92307692307696  C 15.7249230769231 4.92307692307696  16 4.6473846153846  16 4.30769230769232  L 16 0.615384615384613  Z M 6.76923076923072 3.69230769230768  C 9.82338461538461 3.69230769230768  12.3076923076922 6.17723076923079  12.3076923076922 9.23076923076923  C 12.3076923076922 12.2849230769231  9.82338461538461 14.7692307692308  6.76923076923072 14.7692307692308  C 3.71569230769228 14.7692307692308  1.23076923076928 12.2849230769231  1.23076923076928 9.23076923076923  C 1.23076923076928 6.17723076923079  3.71569230769228 3.69230769230768  6.76923076923072 3.69230769230768  Z " fill-rule="nonzero" fill="#0066ff" stroke="none" />
  </g>
</svg>