<?xml version="1.0" encoding="utf-8"?>
<svg version="1.1" xmlns:xlink="http://www.w3.org/1999/xlink" width="45px" height="55px" xmlns="http://www.w3.org/2000/svg">
  <g transform="matrix(1 0 0 1 -429 -154 )">
    <path d="M 30.109090909091 38.8697537951271  C 31.7242029588683 43.3266013710745  39.6204093170611 43.0770481769205  44.6178404918651 47.0067852766751  C 38.6095529312734 52.0187662528529  30.8581198171805 55  22.3030303030303 55  C 14.146556235358 55  6.72059224448753 52.2901089402922  0.83932778946928 47.6940469331284  C 5.78846937168487 43.1641779495758  14.1993473942302 43.5616554924804  15.890909090909 38.9539482076793  C 16.1139393939393 36.6806990687587  16.030303030303 35.1651996428113  16.030303030303 33.1164689373645  C 15.0545454545454 32.639367266233  11.5696969696969 29.2715907641282  11.2909090909091 26.3809159331549  C 10.510303030303 26.3247863247861  9.28363636363633 25.5389718076285  8.92121212121219 22.4518433473659  C 8.72606060606063 20.7679550963135  9.4787878787879 19.8698813624187  9.98060606060608 19.5892333205766  C 7.33212121212114 9.2613853807884  10.8727272727274 0.224518433473804  22.860606060606 0  C 25.8436363636365 0  28.1575757575758 0.84194412552597  29.0496969696969 2.35744355147335  C 37.8315151515151 3.53616532721026  37.2739393939394 15.6040311264192  36.0193939393939 19.4769741038399  C 36.5212121212121 19.785686949866  37.3018181818181 20.7398902921291  37.0787878787878 22.3676489348131  C 36.7442424242424 25.4547773950758  35.489696969697 26.2125271080495  34.7090909090909 26.2967215206022  C 34.4303030303031 29.1032019390227  30.9454545454546 32.4709784411275  29.969696969697 33.0322745248118  C 29.969696969697 35.0810052302591  29.8860606060607 36.6806990687587  30.109090909091 38.8697537951271  Z " fill-rule="nonzero" fill="#ffffff" stroke="none" transform="matrix(1 0 0 1 429 154 )" />
  </g>
</svg>