<?xml version="1.0" encoding="utf-8"?>
<svg version="1.1" xmlns:xlink="http://www.w3.org/1999/xlink" width="24px" height="24px" xmlns="http://www.w3.org/2000/svg">
  <g transform="matrix(1 0 0 1 -419 -373 )">
    <path d="M 12.0000228207437 0  C 15.2051192266952 0  18.218200121582 1.24757011056931  20.4837708067078 3.5128205113831  C 22.7519219697301 5.77895027659099  23.999999539999 8.79325186729113  23.999999539999 11.9987040520944  C 24.0008750664606 15.2058687145031  22.7519219697301 18.2202165832915  20.4837708067078 20.486300097317  C 18.2190295465555 22.7515504981309  15.2059486248809 24  12.0008522457172 24  C 8.79575586655324 24  5.78267494487864 22.7524298894307  3.5162287332912 20.4871794886168  C 1.24890699524235 18.2202166101973  0 15.2067481327088  0 11.9995834433942  C 0 8.79325186729113  1.24895309673047 5.77895030349703  3.51539930831791 3.5128205113831  C 5.78184551990535 1.24757011056931  8.79492641479214 0  12.0000228207437 0  Z M 11.9999767192553 22.2771452327194  C 14.7481896169268 22.2771452327194  17.3326341166573 21.2078126498145  19.2750455578466 19.2653892328365  C 21.2166275740626 17.323845207158  22.2864215012987 14.7434971780422  22.2855459748371 11.9986577740061  C 22.2855459748371 9.25381836997008  21.216627547275 6.67347034085412  19.2750455578466 4.73363879278133  C 17.333509643119 2.79126168079733  14.7490651433886 1.72104970659279  12.0008522457172 1.72104970659279  C 9.25180989628461 1.72104970659279  6.66819484831512 2.79038228949753  4.72578340712562 4.73280570647569  C 2.78420139090986 6.67347034085412  1.71440746367398 9.25469776126977  1.71440746367398 11.999537165306  C 1.71440746367398 14.7443765693421  2.78332589123579 17.3256039897577  4.7249078806642 19.2653892328365  C 6.66731932185348 21.2077663448205  9.25093436982297 22.2771452327194  11.9999767192553 22.2771452327194  Z M 13 13  C 13 13.56  12.5599999999999 14  12 14  L 18 14  C 18.5599999999999 14  19 13.56  19 13  C 19 12.44  18.5599999999999 12  18 12  L 13 11.9999999968877  L 13 13  Z M 12 14  C 12.5599999999999 14  13 13.56  13 13  L 13 7  C 13 6.44  12.5599999999999 6  12 6  C 11.4400000000001 6  11 6.44  11 7  L 11 13  C 11 13.56  11.4400000000001 14  12 14  Z " fill-rule="nonzero" fill="#999999" stroke="none" transform="matrix(1 0 0 1 419 373 )" />
  </g>
</svg>