<?xml version="1.0" encoding="utf-8"?>
<svg version="1.1" xmlns:xlink="http://www.w3.org/1999/xlink" width="25px" height="25px" xmlns="http://www.w3.org/2000/svg">
  <defs>
    <mask fill="white" id="clip51">
      <path d="M 24.7434008519654 10.4002687761392  C 24.9785441680279 10.1602994790632  25.0601245095735 9.80994432653694  24.9545499384388 9.49318488006554  C 24.8489753952021 9.17642543359409  24.5754413006379 8.94605490170483  24.244321122015 8.89326166527638  L 16.7005392560902 7.72701094175306  L 13.3317511626197 0.51353427230589  C 13.1829870284411 0.201574208427871  12.8710621832731 0  12.5255454557377 0  C 12.1800287282023 0  11.8681039109324 0.196774825834495  11.7193397488557 0.51353427230589  L 8.32175861335594 7.71261279397282  L 0.76358025431432 8.85006719403481  C 0.432460047793597 8.89806104786976  0.158925981127425 9.128431551858  0.0485525975524297 9.44519102623053  C -0.0618207860225084 9.76195050060301  0.0197595276251263 10.1123056252282  0.254902871585614 10.3522749223043  L 5.73518202507643 15.991553068779  L 4.42509777580392 23.9393357493334  C 4.36751166384738 24.2752927540794  4.51147695768776 24.6160491414189  4.78980986469219 24.8128239393523  C 5.06814277169661 25.0095987651868  5.43765372882115 25.0287962955603  5.73518202507643 24.8656171757807  L 12.4823558926938 21.155692059497  L 19.2151332113984 24.8896141166487  C 19.3495008245625 24.9616049113517  19.4982649866391 25  19.6470291208178 25  C 19.651827961156 25  19.6614256418324 25  19.6662244821706 25  C 20.1605053438848 25  20.5588093709364 24.6016509936388  20.5588093709364 24.1073142517064  C 20.5588093709364 23.9969283683552  20.5396140095836 23.8913418954984  20.5012232589799 23.790554805235  L 19.2487251216639 16.015550009647  L 24.7434008519654 10.4002687761392  Z " fill-rule="evenodd" />
    </mask>
  </defs>
  <g transform="matrix(1 0 0 1 -418 -303 )">
    <path d="M 24.7434008519654 10.4002687761392  C 24.9785441680279 10.1602994790632  25.0601245095735 9.80994432653694  24.9545499384388 9.49318488006554  C 24.8489753952021 9.17642543359409  24.5754413006379 8.94605490170483  24.244321122015 8.89326166527638  L 16.7005392560902 7.72701094175306  L 13.3317511626197 0.51353427230589  C 13.1829870284411 0.201574208427871  12.8710621832731 0  12.5255454557377 0  C 12.1800287282023 0  11.8681039109324 0.196774825834495  11.7193397488557 0.51353427230589  L 8.32175861335594 7.71261279397282  L 0.76358025431432 8.85006719403481  C 0.432460047793597 8.89806104786976  0.158925981127425 9.128431551858  0.0485525975524297 9.44519102623053  C -0.0618207860225084 9.76195050060301  0.0197595276251263 10.1123056252282  0.254902871585614 10.3522749223043  L 5.73518202507643 15.991553068779  L 4.42509777580392 23.9393357493334  C 4.36751166384738 24.2752927540794  4.51147695768776 24.6160491414189  4.78980986469219 24.8128239393523  C 5.06814277169661 25.0095987651868  5.43765372882115 25.0287962955603  5.73518202507643 24.8656171757807  L 12.4823558926938 21.155692059497  L 19.2151332113984 24.8896141166487  C 19.3495008245625 24.9616049113517  19.4982649866391 25  19.6470291208178 25  C 19.651827961156 25  19.6614256418324 25  19.6662244821706 25  C 20.1605053438848 25  20.5588093709364 24.6016509936388  20.5588093709364 24.1073142517064  C 20.5588093709364 23.9969283683552  20.5396140095836 23.8913418954984  20.5012232589799 23.790554805235  L 19.2487251216639 16.015550009647  L 24.7434008519654 10.4002687761392  Z " fill-rule="nonzero" fill="#ffffff" stroke="none" transform="matrix(1 0 0 1 418 303 )" />
    <path d="M 24.7434008519654 10.4002687761392  C 24.9785441680279 10.1602994790632  25.0601245095735 9.80994432653694  24.9545499384388 9.49318488006554  C 24.8489753952021 9.17642543359409  24.5754413006379 8.94605490170483  24.244321122015 8.89326166527638  L 16.7005392560902 7.72701094175306  L 13.3317511626197 0.51353427230589  C 13.1829870284411 0.201574208427871  12.8710621832731 0  12.5255454557377 0  C 12.1800287282023 0  11.8681039109324 0.196774825834495  11.7193397488557 0.51353427230589  L 8.32175861335594 7.71261279397282  L 0.76358025431432 8.85006719403481  C 0.432460047793597 8.89806104786976  0.158925981127425 9.128431551858  0.0485525975524297 9.44519102623053  C -0.0618207860225084 9.76195050060301  0.0197595276251263 10.1123056252282  0.254902871585614 10.3522749223043  L 5.73518202507643 15.991553068779  L 4.42509777580392 23.9393357493334  C 4.36751166384738 24.2752927540794  4.51147695768776 24.6160491414189  4.78980986469219 24.8128239393523  C 5.06814277169661 25.0095987651868  5.43765372882115 25.0287962955603  5.73518202507643 24.8656171757807  L 12.4823558926938 21.155692059497  L 19.2151332113984 24.8896141166487  C 19.3495008245625 24.9616049113517  19.4982649866391 25  19.6470291208178 25  C 19.651827961156 25  19.6614256418324 25  19.6662244821706 25  C 20.1605053438848 25  20.5588093709364 24.6016509936388  20.5588093709364 24.1073142517064  C 20.5588093709364 23.9969283683552  20.5396140095836 23.8913418954984  20.5012232589799 23.790554805235  L 19.2487251216639 16.015550009647  L 24.7434008519654 10.4002687761392  Z " stroke-width="4" stroke="#999999" fill="none" transform="matrix(1 0 0 1 418 303 )" mask="url(#clip51)" />
  </g>
</svg>