<?xml version="1.0" encoding="utf-8"?>
<svg version="1.1" xmlns:xlink="http://www.w3.org/1999/xlink" width="25px" height="25px" xmlns="http://www.w3.org/2000/svg">
  <g transform="matrix(1 0 0 1 -419 -512 )">
    <path d="M 15.1745157625477 12.4952517516592  C 15.1745157625477 13.9737402187416  13.9745426021223 15.1738120376734  12.4961756823185 15.1738120376734  C 11.0178087625147 15.1738120376734  9.81783560208919 13.9737402187416  9.81783560208919 12.4952517516592  C 9.81783560208919 11.016763284577  11.0178087625147 9.81669146564525  12.4961756823185 9.81669146564525  C 13.9745426021223 9.81669146564525  15.1745157625477 11.016763284577  15.1745157625477 12.4952517516592  Z M 13.3889557183629 12.4952517516592  C 13.3889557183629 12.0056224334611  12.9905646094572 11.6023983136857  12.4961756823185 11.6023983136857  C 12.0065866446962 11.6023983136857  11.603395646274 12.0056224334611  11.603395646274 12.4952517516592  C 11.603395646274 12.9848810698575  12.0065866167922 13.3881051896327  12.4961756823185 13.3881051896327  C 12.9857647478448 13.3881051896327  13.3889557183629 12.9848810698575  13.3889557183629 12.4952517516592  Z M 16.0672957706881 24.9615976988919  C 15.9856975931004 24.9855991475494  15.9040994155127 25  15.8177013484085 25  C 15.5393075890302 25  15.2657136912643 24.8655919600749  15.0977174465724 24.6351781813328  L 13.0481633394627 21.8270101395439  C 12.6689718165268 21.8510115882012  12.3233795481102 21.8510115882012  11.9441880530783 21.8270101395439  L 9.89463391806459 24.6303778971826  C 9.67383886078767 24.9327959939906  9.28984744833537 25.0672040339157  8.92985551136928 24.9615977267983  C 7.96507710467409 24.6879813627979  7.04829762104742 24.3087586637737  6.20351650807152 23.8383305100826  C 5.87712379772063 23.6559196007491  5.69952777399584 23.2910977541756  5.75712650400135 22.9214756513582  L 6.29471446469216 19.4796697110519  C 6.02112059483028 19.2348550519528  5.7619263935178 18.975639540403  5.5171318607546 18.7020231764026  L 2.07560887304123 19.2396553361029  C 1.71081704655876 19.2972587738119  1.3412253026558 19.1196481486285  1.15882938941451 18.7932286310694  C 0.688439909858118 17.9435777783542  0.30924838692215 17.0267229196296  0.0356545170603795 16.0618651914966  C -0.065143218593164 15.7018436569796  0.0644538820630487 15.3178206738053  0.366847116927659 15.0970074633635  L 3.16998440829678 13.047284819623  C 3.15558473974744 12.855273341989  3.15078485023099 12.672862404749  3.15078485023099 12.4952517795656  C 3.15078485023099 12.3176411543823  3.15558473974744 12.1352302450487  3.16998440829678 11.9432187395083  L 0.366847116927659 9.89349609576777  C 0.0644538820630487 9.67268288532603  -0.0699431081096122 9.28865990215161  0.0356545170603795 8.92863836763468  C 0.30924838692215 7.96378063950158  0.688439909858118 7.04692578077709  1.15882938941451 6.20207521221209  C 1.3412253026558 5.87565566674664  1.71081704655876 5.6980450415632  2.07560887304123 5.75564850717853  L 5.5171318607546 6.2932806668789  C 5.7619263935178 6.01966430287848  6.02112059483028 5.76044879132871  6.29471446469216 5.51563413222959  L 5.75712650400135 2.07382819192333  C 5.69952780189988 1.70420606119956  5.87712382562472 1.33938424253245  6.20831639758796 1.15697333319872  C 7.05789740008027 0.686545179507789  7.97467688370699 0.307322480483549  8.93465540088579 0.0337061164832448  C 9.29464733785181 -0.0670999064840316  9.67863875030412 0.062507849290796  9.89943380758098 0.364925946098879  L 11.9489879425948 3.16829370373762  C 12.3281794655306 3.14429225508013  12.6689718444309 3.14429225508013  13.0529632289791 3.16829370373762  L 15.1025173639929 0.364925946098879  C 15.3233124212697 0.062507849290796  15.7073038337221 -0.0670999064840316  16.0672957706881 0.0337061164832448  C 17.0272742878669 0.307322480483549  17.9440537714935 0.686545179507789  18.7936347739858 1.15697333319872  C 19.1200274843368 1.33938424253245  19.2976235080616 1.70420608910592  19.2400247780561 2.07382819192333  L 18.7024368173653 5.51563413222959  C 18.9760306872271 5.76044879132871  19.2352248885397 6.01966430287848  19.4800194213028 6.28848038272872  L 22.9215424090162 5.75084822302824  C 23.2863342354987 5.69324478531939  23.6559259794016 5.87085541050271  23.8383218926429 6.1972749280618  C 24.3087113721993 7.04692578077709  24.6879028951353 7.96378063950158  24.9662966545135 8.92863836763468  C 25.0670943901671 9.28865990215161  24.9374972895108 9.67268288532603  24.6351040546462 9.89349609576777  L 21.8271669016648 11.9432187116018  C 21.8415665702141 12.1352301892359  21.8463664597305 12.3176411264759  21.8463664597305 12.4952517516592  C 21.8463664597305 12.6728623768427  21.8415665702141 12.8552732861763  21.8271669016648 13.0472847917166  L 24.6303041930339 15.0970074354573  C 24.9326974278984 15.3178206458989  25.0622945285547 15.7018436290732  24.9614967929012 16.0618651635903  C 24.6879029230393 17.0267228917232  24.3087114001034 17.9435777504478  23.8335220310305 18.793228603163  C 23.6511261177893 19.1196481486285  23.2911341808232 19.2972587738119  22.9167425474038 19.2396553081966  L 19.4800194213028 18.7068234326464  C 19.2400247780561 18.9804397966468  18.9760306872271 19.2396553081966  18.7024368173653 19.4796696831455  L 19.2400247780561 22.9214756234518  C 19.2976234801575 23.2910977541756  19.1200274564328 23.6559195728428  18.7936347739858 23.8383304821764  C 17.9488536889141 24.3087586358673  17.0320741773833 24.6879813348916  16.0672957706881 24.9615976988919  Z M 8.13307329355791 19.2588564447974  L 7.61948480835338 22.5614540889349  C 8.00827611032213 22.7486652824186  8.41626697035667 22.9166753393016  8.83385763732815 23.0606839475271  L 10.8018135947542 20.3677228090623  C 10.9890093975119 20.1085072975126  11.3058023288299 19.9692989734374  11.6225952322439 20.0077012745454  C 12.1985823369703 20.0749053084611  12.798568917183 20.0749053084611  13.369756132393 20.0077012745454  C 13.7009487322604 19.9692989734374  14.0033419671249 20.1085072975126  14.1905377698827 20.3677228090623  L 16.1584937273087 23.0606839475271  C 16.5760843942802 22.9166753393016  16.9840752543147 22.7486652824186  17.3728665562836 22.5614540889349  L 16.859278043175 19.2588564727038  C 16.8112791201064 18.942037523445  16.9360763312462 18.6204182621299  17.1856707535259 18.4236065003456  C 17.641660564533 18.0587846816785  18.0592512036005 17.6459599656964  18.4192431405665 17.1899326923624  C 18.6208386397776 16.9403177491131  18.9328316536751 16.8107099933382  19.2544244466055 16.8635131468969  L 22.5567505546297 17.3771438858462  C 22.7439463573874 16.9883206185216  22.9119426020793 16.580296214596  23.0559393712848 16.1626712144639  L 20.3631996225063 14.1945534570897  C 20.1040054211937 14.0073422636059  19.9648085415045 13.6905232864408  20.0032076855402 13.3737043371821  C 20.0368069400594 13.0856870928246  20.0560064981252 12.7976698763737  20.0560064981252 12.5000520637159  C 20.0560064981252 12.2024342510581  20.0368069400594 11.914417034607  20.0032076855402 11.6263997902496  C 19.9648085415045 11.309580840991  20.1040054211937 10.9927618638259  20.3631996225063 10.8055506703421  L 23.0559393712848 8.83743291296787  C 22.9119426020793 8.41980791283561  22.7439463573874 8.01178350891007  22.5567505546297 7.62296024158547  L 19.2544244466055 8.13659098053472  C 18.9376315431915 8.18459384994333  18.616038722357 8.05978637831856  18.4192431405665 7.81017143506926  C 18.0592512036005 7.35894444588553  17.6464604261454 6.94131944575326  17.1856707535259 6.57649762708604  C 16.9360763312462 6.37488555324524  16.8112791201064 6.05806660398662  16.859278043175 5.74124765472789  L 17.3776664457999 2.43384969853389  C 16.9888751438313 2.2466385050501  16.5808842837966 2.07862844816725  16.1632936168252 1.93461983994166  L 14.1953376593992 4.6275809784064  C 14.0081418566414 4.88679648995617  13.7009487322604 5.03080509818165  13.3745560219095 4.98760251292333  C 12.8033688066995 4.92039847900764  12.2033822264868 4.92039847900764  11.6273951217603 4.98760251292333  C 11.3058023288299 5.02600481403147  10.9938092870284 4.88679648995617  10.8018135947542 4.6275809784064  L 8.83385763732815 1.93461983994166  C 8.41626697035667 2.07862844816725  8.00827611032213 2.2466385050501  7.61948480835338 2.43384969853389  L 8.13307332146201 5.73644731476497  C 8.18107224453047 6.05326626402359  8.05627503339065 6.37488552533887  7.80668061111106 6.57169728712313  C 7.35069080010391 6.93171882164017  6.93790005055285 7.34934382177232  6.57310822407044 7.80537109510635  C 6.37151272485931 8.05498603835565  6.05471982144547 8.1797935099803  5.73792691803152 8.13179064057181  L 2.43560078210322 7.61815992952893  C 2.24840497934554 8.00698319685353  2.08040873465364 8.41500760077906  1.93641196544803 8.83263260091121  L 4.62915171422668 10.8007503582854  C 4.88834591553916 10.9879615517693  5.02754279522827 11.3047805289343  4.98914365119259 11.6263997623432  C 4.95554439667347 11.9096167225505  4.93634483860768 12.2024342231517  4.93634483860768 12.4952517516592  C 4.93634483860768 12.7928695643171  4.95554439667347 13.0808867807682  4.98914365119259 13.3689040251255  C 5.02754279522827 13.6905232585344  4.88834591553916 14.0025419515492  4.62915171422668 14.1945534291833  L 1.93641196544803 16.1626711865575  C 2.08040873465364 16.5802961866897  2.24840497934554 16.9883205906152  2.43560078210322 17.3771438579398  L 5.73792689012748 16.8635131189906  C 6.05471979354138 16.8155102495821  6.37631261437582 16.9403177212067  6.5731081961664 17.189932664456  C 6.93310013313243 17.6459599656964  7.34589091058746 18.0587846537721  7.80668058320697 18.4236064724392  C 8.05627500548661 18.6252185462802  8.18587210614288 18.9420374955388  8.13307329355791 19.2588564447974  Z " fill-rule="nonzero" fill="#999999" stroke="none" transform="matrix(1 0 0 1 419 512 )" />
  </g>
</svg>