<?xml version="1.0" encoding="utf-8"?>
<svg version="1.1" xmlns:xlink="http://www.w3.org/1999/xlink" width="13px" height="16px" xmlns="http://www.w3.org/2000/svg">
  <g>
    <path d="M 6.976 12.5428571428571  C 10.2359272727272 12.2554285714286  12.8 9.56057142857142  12.8 6.28571428571428  C 12.8 2.81999999999999  9.9287272727272 0  6.39999999999998 0  C 2.87127272727275 0  0 2.81999999999999  0 6.28571428571428  C 0 9.56057142857142  2.56407272727279 12.2554285714286  5.82399999999996 12.5428571428571  C 5.82341818181806 12.5531428571429  5.81818181818164 12.5611428571429  5.81818181818164 12.5714285714286  L 5.81818181818164 13.7142857142857  L 3.4909090909091 13.7142857142857  C 3.16974545454536 13.7142857142857  2.90909090909088 13.9697142857142  2.90909090909088 14.2857142857143  C 2.90909090909088 14.6017142857143  3.16974545454536 14.8571428571429  3.4909090909091 14.8571428571429  L 5.81818181818164 14.8571428571429  L 5.81818181818164 15.4285714285714  C 5.81818181818164 15.7445714285714  6.07883636363624 16  6.39999999999998 16  C 6.72116363636371 16  6.98181818181831 15.7445714285714  6.98181818181831 15.4285714285714  L 6.98181818181831 14.8571428571429  L 9.30909090909086 14.8571428571429  C 9.63083636363638 14.8571428571429  9.89090909090908 14.6017142857143  9.89090909090908 14.2857142857143  C 9.89090909090908 13.9697142857142  9.63083636363638 13.7142857142857  9.30909090909086 13.7142857142857  L 6.98181818181831 13.7142857142857  L 6.98181818181831 12.5714285714286  C 6.98181818181831 12.5611428571429  6.9765818181819 12.5531428571429  6.976 12.5428571428571  Z M 11.6363636363636 6.28571428571428  C 11.6363636363636 9.12171428571426  9.28756363636364 11.4285714285714  6.39999999999998 11.4285714285714  C 3.51301818181821 11.4285714285714  1.16363636363633 9.12171428571426  1.16363636363633 6.28571428571428  C 1.16363636363633 3.45028571428571  3.51301818181821 1.14285714285711  6.39999999999998 1.14285714285711  C 9.28756363636364 1.14285714285711  11.6363636363636 3.45028571428571  11.6363636363636 6.28571428571428  Z " fill-rule="nonzero" fill="#fb5a7c" stroke="none" />
  </g>
</svg>