<?xml version="1.0" encoding="utf-8"?>
<svg version="1.1" xmlns:xlink="http://www.w3.org/1999/xlink" width="25px" height="25px" xmlns="http://www.w3.org/2000/svg">
  <g transform="matrix(1 0 0 1 -418 -468 )">
    <path d="M 12.5 18.7598153180804  C 11.7603240792411 18.7598153180804  11.1607022879464 19.359437109375  11.1607022879464 20.0991130301339  C 11.1607022879464 20.8387889508929  11.7603240792411 21.4384107421875  12.5 21.4384107421875  C 13.2396759207589 21.4384107421875  13.8392977120536 20.8387889508929  13.8392977120536 20.0991130301339  C 13.8392977120536 19.359437109375  13.2396759207589 18.7598153180804  12.5 18.7598153180804  Z M 25 12.5  C 25 19.3928427455357  19.3928427455357 25  12.5 25  C 5.60715725446431 25  0 19.3928427455357  0 12.5  C 0 5.60715725446431  5.60715725446431 0  12.5 0  C 19.3928427455357 0  25 5.60715725446431  25 12.5  Z M 23.2062702845982 12.5  C 23.2062702845982 6.59641562500002  18.4026724609375 1.79372971540181  12.5 1.79372971540181  C 6.59641562500002 1.79372971540181  1.79372971540181 6.5964155970982  1.79372971540181 12.5  C 1.79372971540181 18.4026724609375  6.5964155970982 23.2062702845982  12.5 23.2062702845982  C 18.4026724609375 23.2062702845982  23.2062702845982 18.4027204520089  23.2062702845982 12.5  Z M 13.3928811383929 16.1178413225447  C 13.3928811383929 16.6107186104911  12.9928772879464 17.0115863839286  12.5 17.0115863839286  C 12.0071227120536 17.0115863839286  11.6071188616071 16.6115825334821  11.6071188616071 16.1187532366072  L 11.6071188616071 14.6089235212054  C 11.6071188616071 13.1481943638393  12.7231842912947 12.0321289341518  13.7088909040178 11.0473342633929  C 14.4311920479911 10.3241211774553  15.1785474330358 9.57767773437502  15.1785474330358 8.98213565848209  C 15.1785474330358 7.49376043526786  13.9767600446428 6.28304567522315  12.5 6.28304567522315  C 10.9982337332589 6.28304567522315  9.82145256696424 7.44197209821425  9.82145256696424 8.92141992187504  C 9.82145256696424 9.41429720982148  9.42144871651789 9.81425306919647  8.92857142857144 9.81425306919647  C 8.435694140625 9.81425306919647  8.03569029017859 9.41424921875  8.03569029017859 8.92141992187504  C 8.03569029017859 6.48213565848215  10.0383493024554 4.49733138950893  12.5 4.49733138950893  C 14.9616506975446 4.49733138950893  16.9643097098214 6.50891777343747  16.9643097098214 8.98213565848209  C 16.9643097098214 10.3187455636161  15.9509090401785 11.3312342912946  14.9714420200892 12.3107013392857  C 14.1946647042411 13.0857027901786  13.3928811383929 13.887486328125  13.3928811383929 14.6080116071429  L 13.3928811383929 16.1178413225447  Z " fill-rule="nonzero" fill="#999999" stroke="none" transform="matrix(1 0 0 1 418 468 )" />
  </g>
</svg>