<?xml version="1.0" encoding="utf-8"?>
<svg version="1.1" xmlns:xlink="http://www.w3.org/1999/xlink" width="24px" height="25px" xmlns="http://www.w3.org/2000/svg">
  <g transform="matrix(1 0 0 1 -29 -98 )">
    <path d="M 23.9921643735667 24.2969396200423  C 24.0781753832988 23.8885442737074  23.427716952271 23.3302316163837  23.427716952271 23.3302316163837  C 23.427716952271 23.3302316163837  18.336938882053 20.8436724799915  15.9985139045442 20.6834160523967  L 15.9985139045442 19.9700165558338  C 19.7399938748084 18.4398263064955  22.0945459107824 14.7125723960858  22.0945459107824 10.3546319219553  C 22.0945459107824 4.64226633104187  17.5359611136784 0  11.9344925462178 0  C 6.33302397875718 0  1.77443918165341 4.64743588934454  1.77443918165341 10.3546319219553  C 1.77443918165341 14.7642679791122  4.19349951399056 18.5277088577471  8.01023912167659 20.0217121689136  L 8.01023912167659 20.6834160523967  L 7.9618579150299 20.6834160523967  C 5.79007930208149 20.7868072785564  0.607914535976533 23.3198924697251  0.607914535976533 23.3198924697251  C 0.607914535976533 23.3198924697251  -0.0694223258263946 23.8678660104441  0.00583731159542822 24.2814309451343  C 0.0810969802688533 24.6949958798247  0.468146633442757 25  0.914328865573452 25  L 9.2305206914067 25  L 14.7728566799104 25  L 23.0836728195886 25  C 23.5298550517194 25  23.9061533325832 24.7053349964299  23.9921643735667 24.2969396200423  Z " fill-rule="nonzero" fill="#ffffff" stroke="none" transform="matrix(1 0 0 1 29 98 )" />
  </g>
</svg>