<?xml version="1.0" encoding="utf-8"?>
<svg version="1.1" xmlns:xlink="http://www.w3.org/1999/xlink" width="26px" height="17px" xmlns="http://www.w3.org/2000/svg">
  <g transform="matrix(1 0 0 1 -29 -32 )">
    <path d="M 24.7361111111111 17  L 13.5416666666667 17  L 7.05540611434935 17  L 0.902777777777828 17  C 0.658275462963047 17  0.446686921296532 16.8780948067633  0.268012152777828 16.6342844202918  C 0.0893373842591245 16.3904740338166  0 16.1017512077287  0 15.7681159420299  C 0 15.4344806763293  0.0893373842591245 15.1457578502414  0.268012152777828 14.9019474637698  L 6.58745659722217 6.27875905797191  C 6.76613136574088 6.03494867149857  6.97771990740762 5.91304347826008  7.22222222222217 5.91304347826008  C 7.46672453703695 5.91304347826008  7.67831307870347 6.03494867149857  7.85698784722217 6.27875905797191  L 9.590986363497 8.64488881694706  L 15.0002170138889 0.560763888888687  C 15.2503616898152 0.186921296295623  15.5465856481487 0  15.8888888888889 0  C 16.2311921296291 0  16.5274160879626 0.186921296295623  16.7775607638889 0.560763888888687  L 25.6247829861111 13.7829861111113  C 25.8749276620376 14.1568287037026  26 14.5995370370365  26 15.1111111111113  C 26 15.6226851851843  25.8749276620376 16.0653935185182  25.6247829861111 16.4392361111113  C 25.3746383101848 16.8130787037026  25.0784143518513 17  24.7361111111111 17  Z " fill-rule="nonzero" fill="#cccccc" stroke="none" transform="matrix(1 0 0 1 29 32 )" />
  </g>
</svg>