<?xml version="1.0" encoding="utf-8"?>
<svg version="1.1" xmlns:xlink="http://www.w3.org/1999/xlink" width="20px" height="20px" xmlns="http://www.w3.org/2000/svg">
  <g>
    <path d="M 20 9.30363095934183  C 20 8.10641481721939  18.8320594328167 7.14207007266941  17.8655618258447 7.14207007266941  L 13.6388313450961 7.14207007266941  C 13.94671047932 6.42774063226227  14.2988784913208 4.58191335824995  14.092435173941 2.90466783217369  C 13.9288520608615 1.56672879029111  13.1480820058575 0.536665737223757  12.0030002143011 0.14878485108261  C 11.1536538324166 -0.139089913401449  10.2550182155868 -0.00122433140290923  9.77141224373173 0.493091641358888  C 9.19565683263085 1.07955611193324  8.92492320880058 2.1860524151241  8.63918851346529 3.35683836795147  C 8.45203228802052 4.12402818694898  8.25773269519254 4.91621953636059  8.01771555111077 5.3248159762735  C 7.32123723123084 6.50917418846871  5.85970426459039 7.14207007266941  5.57396956925493 7.14207007266941  L 3.57168369169227 7.14207007266941  C 3.17736981212943 7.14207007266941  2.85734695335378 7.46423265029318  2.85734695335378 7.85854250139812  L 2.85734695335378 17.8577260082186  C 2.85734695335378 18.2527501887639  3.17736981212943 18.5713411191856  3.57168369169227 18.5713411191856  L 5.50467890563607 18.5713411191856  C 6.10186441888709 18.5713411191856  8.32702335881129 20  10.9014929637831 20  L 15.721837274091 20  C 16.515465390385 20  17.8819915708265 19.6928383406249  18.3941710122152 18.8463579537423  C 18.9106364740339 17.9877339663727  20 10.1701125705559  20 9.30363095934183  Z M 1.42867347667692 7.85854250139812  C 1.42867347667692 7.46423265029318  1.10865061790128 7.14421306099075  0.714336738338432 7.14421306099075  C 0.320022858775587 7.14421306099075  0 7.46423265029318  0 7.85854250139812  L 0 17.8577260082186  C 0 18.2527501887639  0.320022858775587 18.5720554486259  0.714336738338432 18.5720554486259  C 1.10865061790128 18.5720554486259  1.42867347667692 18.2527501887639  1.42867347667692 17.8577260082186  L 1.42867347667692 7.85854250139812  Z " fill-rule="nonzero" fill="#0066ff" stroke="none" />
  </g>
</svg>