<?xml version="1.0" encoding="utf-8"?>
<svg version="1.1" xmlns:xlink="http://www.w3.org/1999/xlink" width="20px" height="20px" xmlns="http://www.w3.org/2000/svg">
  <g>
    <path d="M 1.96428571428567 17.3660714285713  C 1.96428571428567 17.7363839285715  1.66428571428571 18.0357142857142  1.29464285714289 18.0357142857142  C 0.924999999999955 18.0357142857142  0.625 17.7363839285715  0.625 17.3660714285713  L 0.625 7.99107142857133  C 0.625 7.62142857142862  0.924999999999955 7.32142857142867  1.29464285714289 7.32142857142867  C 1.66428571428571 7.32142857142867  1.96428571428567 7.62142857142862  1.96428571428567 7.99107142857133  L 1.96428571428567 17.3660714285713  Z M 19.3736607142857 9.34709821428578  C 19.3736607142857 8.22812500000009  18.2787946428572 7.32142857142867  17.3727678571429 7.32142857142867  L 13.4098214285714 7.32142857142867  C 13.6984375 6.65178571428578  14.0292410714286 4.92075892857133  13.8357142857143 3.34642857142853  C 13.6823660714285 2.09017857142862  12.9491071428572 1.12656250000009  11.8743303571429 0.762946428571468  C 11.0774553571429 0.493080357142844  10.2377232142857 0.624330357142753  9.7850446428572 1.08638392857142  C 9.24531249999995 1.6368303571428  8.9921875 2.67477678571436  8.72433035714289 3.77232142857133  C 8.5488839285714 4.49084821428573  8.36741071428571 5.23482142857142  8.14174107142856 5.6171875  C 7.49084821428573 6.72410714285706  6.12745535714282 7.22901785714294  5.85290178571427 7.32142857142867  L 3.97321428571433 7.32142857142867  C 3.6035714285714 7.32142857142867  3.30357142857144 7.62142857142862  3.30357142857144 7.99107142857133  L 3.30357142857144 17.3660714285713  C 3.30357142857144 17.7363839285715  3.6035714285714 18.0357142857142  3.97321428571433 18.0357142857142  L 5.78526785714291 18.0357142857142  C 6.34508928571427 18.3390625  8.43035714285713 19.375  10.8444196428571 19.375  L 15.3631696428571 19.375  C 16.1071428571429 19.375  17.3888392857143 19.0870535714287  17.8683035714286 18.2928571428572  C 18.3524553571428 17.4879464285714  19.3736607142857 10.159375  19.3736607142857 9.34709821428578  Z M 18.0337053571428 9.34575892857151  C 18.034375 10.2390625  17.0004464285714 16.9683035714286  16.7205357142857 17.6024553571428  C 16.6200892857142 17.7698660714286  15.9571428571428 18.0357142857142  15.3631696428571 18.0357142857142  L 10.8444196428571 18.0357142857142  C 8.45178571428573 18.0357142857142  6.3417410714286 16.6964285714287  6.32098214285713 16.6964285714287  C 6.21986607142856 16.6964285714287  6.10870535714287 16.6964285714287  5.98281250000002 16.6964285714287  L 4.64285714285711 16.6964285714287  L 4.64285714285711 8.66071428571422  L 5.98214285714289 8.66071428571422  C 6.0370535714286 8.66071428571422  6.0859375 8.64196428571427  6.13683035714291 8.62924107142862  C 6.14754464285716 8.62656250000009  6.15758928571427 8.62991071428564  6.16830357142862 8.62656250000009  C 6.17299107142856 8.62522321428582  6.18638392857144 8.6212053571428  6.20379464285713 8.61584821428573  C 6.22120535714282 8.60982142857142  6.23995535714289 8.60647321428564  6.25669642857144 8.59843750000005  C 6.66383928571429 8.46383928571436  8.4022321428572 7.81696428571422  9.29553571428573 6.29620535714275  C 9.62031249999995 5.74375000000009  9.81718750000005 4.94017857142853  10.0247767857143 4.09040178571422  C 10.2183035714286 3.29821428571427  10.4587053571429 2.31316964285725  10.7386160714286 2.0272321428572  C 10.8029017857143 1.97232142857138  11.115625 1.90267857142862  11.5087053571428 2.05736607142853  C 11.8294642857143 2.18392857142862  12.3866071428571 2.54151785714294  12.5058035714286 3.51517857142858  C 12.7696428571428 5.6600446428572  11.8488839285715 7.70245535714275  11.8395089285714 7.72321428571422  C 11.74375 7.93080357142867  11.7611607142857 8.16584821428569  11.884375 8.35803571428573  C 12.0075892857143 8.54955357142853  12.2191964285714 8.6600446428572  12.4475446428571 8.6600446428572  L 17.3720982142858 8.6600446428572  C 17.5535714285714 8.6600446428572  18.0337053571428 8.97477678571431  18.0337053571428 9.34575892857151  Z " fill-rule="nonzero" fill="#999999" stroke="none" />
  </g>
</svg>