<?xml version="1.0" encoding="utf-8"?>
<svg version="1.1" xmlns:xlink="http://www.w3.org/1999/xlink" width="25px" height="17px" xmlns="http://www.w3.org/2000/svg">
  <g transform="matrix(1 0 0 1 -330 -62 )">
    <path d="M 21.9099226336477 17  C 25.0780684465039 16.8313059487334  24.9998266636174 13.9336697927425  25 13.9336697927425  L 25 3.12121987918795  C 24.8955323905244 0.0774007815693407  21.909894529559 0  21.909894529559 0  L 7.89438550462912 0  C 7.50326090246367 0  7.27727592538421 0.219246610436672  7.27727592538421 0.219246610436672  L 0.221688253985324 7.93199539657566  C -0.00972081220935371 8.16736716983917  5.94106512785192E-05 8.47368965954131  5.94106512785192E-05 8.47368965954131  C 5.94106512785192E-05 8.8864104218963  0.241248699706824 9.1185571625944  0.241248699706824 9.1185571625944  L 7.21643057339122 16.7625237886751  C 7.48586447157044 17.0290616094024  7.79877539493831 16.9989798401288  7.79877539493831 17  L 21.9099226336477 17  Z M 17.9933087310545 10.8745595924431  C 17.9933087310545 11.1809654881598  17.7504050925894 11.4282087175045  17.7504050925894 11.4282087175045  C 17.5339192974843 11.6423675610492  17.2294677048091 11.623211979691  17.2294677048091 11.623211979691  C 16.8316824336263 11.623211979691  16.6486405040508 11.4073294118441  16.6486405040508 11.4073294118441  L 14.8546160031356 9.63258843071039  L 13.0605915022203 11.4073294118441  C 13.0605915022203 11.4073294118441  12.877521468556 11.623211979691  12.479764301462 11.623211979691  C 12.479764301462 11.623211979691  12.1752846046982 11.6423675610492  11.9587707055041 11.4282087175045  C 11.9587707055041 11.4282087175045  11.7158951711279 11.1809654881598  11.7158951711279 10.8745595924431  C 11.7158951711279 10.8745595924431  11.7158951711279 10.4810500154561  11.9623118206779 10.2825993046652  L 13.7389960988772 8.52893224322594  L 11.9423579177147 6.75160567563892  C 11.6642679602218 6.47650483741037  11.7205885539374 6.16312063847028  11.7205885539374 6.16312063847028  C 11.7205885539374 5.82535408125566  11.9353318955446 5.65470537533886  11.9353318955446 5.65470537533886  C 12.1711814077509 5.42139095043609  12.4597822944102 5.41791569982681  12.4597822944102 5.41791569982681  C 12.8364332909053 5.41791569982681  13.0581745505937 5.65470537533886  13.0581745505937 5.65470537533886  L 14.8545878990469 7.42780603818511  L 16.6509731434112 5.65470537533886  C 16.6509731434112 5.65470537533886  16.8727425071883 5.41791569982681  17.2494216077723 5.41791569982681  C 17.2494216077723 5.41791569982681  17.5380505985202 5.42139095043609  17.7738720066376 5.65470537533886  C 17.7738720066376 5.65470537533886  17.9885872441561 5.82532627925081  17.9885872441561 6.16312063847028  C 17.9885872441561 6.16312063847028  18.0449078378718 6.47653263941522  17.7668459844675 6.75160567563892  L 15.970207803305 8.52893224322594  L 17.7468920815044 10.2825993046652  C 17.9933087310545 10.4810778174609  17.9933087310545 10.8745595924431  17.9933087310545 10.8745595924431  Z " fill-rule="nonzero" fill="#797979" stroke="none" transform="matrix(1 0 0 1 330 62 )" />
  </g>
</svg>