<?xml version="1.0" encoding="utf-8"?>
<svg version="1.1" xmlns:xlink="http://www.w3.org/1999/xlink" width="20px" height="20px" xmlns="http://www.w3.org/2000/svg">
  <g transform="matrix(1 0 0 1 -40 -12 )">
    <path d="M 20 10  C 20 15.5  15.5 20  10 20  C 4.5 20  0 15.5  0 10  C 0 4.5  4.5 0  10 0  C 15.5 0  20 4.5  20 10  Z M 18.5000000000001 10  C 18.5000000000001 5.33333333333337  14.6666666666666 1.49999999999989  10 1.49999999999989  C 5.33333333333337 1.49999999999989  1.49999999999989 5.33333333333337  1.49999999999989 10  C 1.49999999999989 14.6666666666666  5.33333333333337 18.5000000000001  10 18.5000000000001  C 14.6666666666666 18.5000000000001  18.5000000000001 14.6666666666666  18.5000000000001 10  Z M 7 7.66666666666663  L 7 9.16666666666663  C 7 9.66666666666663  6.49999999999989 10  6.16666666666674 10  C 5.66666666666674 10  5.33333333333337 9.66666666666663  5.33333333333337 9.16666666666663  L 5.33333333333337 7.66666666666663  C 5.33333333333337 7.16666666666663  5.66666666666674 6.83333333333326  6.16666666666674 6.83333333333326  C 6.66666666666663 6.83333333333326  7 7.16666666666663  7 7.66666666666663  Z M 14.6666666666666 7.66666666666663  L 14.6666666666666 9.16666666666663  C 14.6666666666666 9.66666666666663  14.3333333333333 10  13.8333333333333 10  C 13.3333333333334 10  13 9.66666666666663  13 9.16666666666663  L 13 7.66666666666663  C 13 7.16666666666663  13.3333333333334 6.83333333333326  13.8333333333333 6.83333333333326  C 14.3333333333333 6.83333333333326  14.6666666666666 7.16666666666663  14.6666666666666 7.66666666666663  Z M 12.8333333333334 12  C 13 11.8333333333333  13.1666666666667 11.6666666666666  13.3333333333334 11.6666666666666  C 13.5000000000001 11.6666666666666  13.6666666666667 11.6666666666666  13.8333333333333 11.8333333333333  C 14.1666666666666 12.1666666666666  14.1666666666666 12.6666666666666  13.8333333333333 13  C 12.8333333333334 14.1666666666666  11.3333333333333 14.6666666666666  9.83333333333337 14.6666666666666  C 8.33333333333337 14.6666666666666  6.83333333333326 13.9999999999999  5.83333333333337 13  C 5.5 12.6666666666666  5.5 12.1666666666666  5.83333333333337 11.8333333333333  C 6.33333333333326 11.6666666666666  6.83333333333326 11.6666666666666  7.16666666666663 12  C 8.66666666666674 13.6666666666667  11.3333333333333 13.5000000000001  12.8333333333334 12  Z " fill-rule="nonzero" fill="#666666" stroke="none" transform="matrix(1 0 0 1 40 12 )" />
  </g>
</svg>