<?xml version="1.0" encoding="utf-8"?>
<svg version="1.1" xmlns:xlink="http://www.w3.org/1999/xlink" width="20px" height="20px" xmlns="http://www.w3.org/2000/svg">
  <g transform="matrix(1 0 0 1 -244 -12 )">
    <path d="M 12.1396126100383 9.99620140132743  C 12.1396126100383 11.1789921749933  11.1796340816977 12.1390496301387  9.99694054585484 12.1390496301387  C 8.81424701001174 12.1390496301387  7.8542684816714 11.1789921749933  7.8542684816714 9.99620140132743  C 7.8542684816714 8.81341062766148  8.81424701001174 7.85335317251622  9.99694054585484 7.85335317251622  C 11.1796340816977 7.85335317251622  12.1396126100383 8.81341062766148  12.1396126100383 9.99620140132743  Z M 10.7111645746904 9.99620140132743  C 10.7111645746904 9.60449794676879  10.3924516875659 9.28191865094857  9.99694054585484 9.28191865094857  C 9.60526931575691 9.28191865094857  9.28271651701925 9.60449794676879  9.28271651701925 9.99620140132743  C 9.28271651701925 10.3879048558859  9.60526929343382 10.7104841517062  9.99694054585484 10.7104841517062  C 10.3886117982759 10.7104841517062  10.7111645746904 10.3879048558859  10.7111645746904 9.99620140132743  Z M 12.8538366165506 19.9692781591136  C 12.7885580744803 19.9884793180395  12.7232795324101 20  12.6541610787269 20  C 12.4314460712242 20  12.2125709530114 19.8924735680599  12.0781739572581 19.7081425450663  L 10.4385306715701 17.4616081116351  C 10.1351774532216 17.4808092705611  9.85870363848812 17.4808092705611  9.55535044246267 17.4616081116351  L 7.91570713445162 19.7043023177461  C 7.73907108863023 19.9462367951925  7.43187795866834 20.0537632271325  7.14388440909556 19.9692781814387  C 6.3720616837395 19.7503850902383  5.63863809683812 19.447006931019  4.96281320645721 19.0706644080661  C 4.70169903817646 18.9247356805993  4.55962221919685 18.6328782033404  4.60570120320108 18.3371805210865  L 5.03577157175368 15.5837357688415  C 4.81689647586427 15.3878840415622  4.60954111481419 15.1805116323225  4.41370548860368 14.961618541122  L 1.66048709843312 15.3917242688823  C 1.36865363724701 15.4378070190495  1.07298024212469 15.2957185189027  0.927063511531742 15.0345829048555  C 0.550751927886495 14.3548622226833  0.24739870953772 13.6213783357038  0.0285236136483036 12.8494921531973  C -0.0521145748743947 12.5614749255836  0.0515631056505299 12.2542565390441  0.293477693542172 12.0776059706908  L 2.53598752663743 10.4378278556984  C 2.52446779179809 10.2842186735911  2.52062788018475 10.1382899237992  2.52062788018475 9.99620142365245  C 2.52062788018475 9.8541129235058  2.52446779179809 9.70818419603893  2.53598752663743 9.55457499160661  L 0.293477693542172 7.91479687661422  C 0.0515631056505299 7.73814630826087  -0.0559544864877353 7.43092792172126  0.0285236136483036 7.14291069410774  C 0.24739870953772 6.37102451160138  0.550751927886495 5.63754062462169  0.927063511531742 4.96166016976963  C 1.07298024212469 4.70052453339736  1.36865363724701 4.55843603325059  1.66048709843312 4.60451880574283  L 4.41370548860368 5.03462453350312  C 4.60954111481419 4.81573144230276  4.81689647586427 4.60835903306304  5.03577157175368 4.41250730578372  L 4.60570120320108 1.65906255353866  C 4.55962224151995 1.36336484895969  4.70169906049978 1.07150739402596  4.96665311807033 0.925578666558977  C 5.64631792006435 0.549236143606322  6.37974150696573 0.24585798438693  7.14772432070868 0.0269648931865731  C 7.43571787028145 -0.0536799251872253  7.74291100024334 0.0500062794327505  7.91954704606474 0.291940756879171  L 9.55919035407578 2.53463496299014  C 9.86254357242456 2.51543380406417  10.1351774755447 2.51543380406417  10.4423705831832 2.53463496299014  L 12.0820138911945 0.291940756879171  C 12.2586499370159 0.0500062794327505  12.5658430669778 -0.0536799251872253  12.8538366165506 0.0269648931865731  C 13.6218194302935 0.24585798438693  14.3552430171949 0.549236143606322  15.0349078191887 0.925578666558977  C 15.2960219874694 1.07150739402596  15.4380988064493 1.36336487128472  15.3920198224448 1.65906255353866  L 14.9619494538922 4.41250730578372  C 15.1808245497818 4.60835903306304  15.3881799108317 4.81573144230276  15.5840155370422 5.03078430618291  L 18.337233927213 4.60067857842262  C 18.6290673883991 4.55459582825551  18.9247407835214 4.69668432840217  19.0706575141144 4.95781994244953  C 19.4469690977596 5.63754062462169  19.7503223161082 6.37102451160138  19.9730373236109 7.14291069410774  C 20.0536755121336 7.43092792172126  19.9499978316087 7.73814630826087  19.7080832437171 7.91479687661422  L 17.4617335213318 9.55457496928159  C 17.4732532561713 9.70818415138876  17.4770931677845 9.85411290118077  17.4770931677845 9.99620140132743  C 17.4770931677845 10.1382899014742  17.4732532561713 10.2842186289409  17.4617335213318 10.4378278333734  L 19.704243354427 12.0776059483658  C 19.9461579423187 12.2542565167191  20.0498356228438 12.5614749032586  19.9691974343209 12.8494921308721  C 19.7503223384315 13.6213783133786  19.4469691200829 14.3548622003583  19.0668176248246 15.0345828825305  C 18.9209008942314 15.2957185189027  18.6329073446586 15.4378070190495  18.3333940379232 15.3917242465573  L 15.5840155370422 14.9654587461172  C 15.3920198224448 15.1843518373174  15.1808245497818 15.3917242465573  14.9619494538922 15.5837357465164  L 15.3920198224448 18.3371804987614  C 15.4380987841259 18.6328782033404  15.2960219651461 18.9247356582741  15.0349078191887 19.0706643857411  C 14.3590829511313 19.4470069086939  13.6256593419068 19.7503850679132  12.8538366165506 19.9692781591136  Z M 6.50645863484647 15.407085155838  L 6.09558784668275 18.0491632711478  C 6.40662088825775 18.1989322259349  6.73301357628543 18.3333402714413  7.06708610986266 18.4485471580217  L 8.64145087580346 16.2941782472499  C 8.79120751800974 16.08680583801  9.04464186306404 15.9754391787499  9.29807618579503 16.0061610196364  C 9.75886586957631 16.0599242467689  10.2388551337465 16.0599242467689  10.6958049059144 16.0061610196364  C 10.9607589858083 15.9754391787499  11.2026735736999 16.08680583801  11.3524302159062 16.2941782472499  L 12.926794981847 18.4485471580217  C 13.2608675154243 18.3333402714413  13.5872602034519 18.1989322259349  13.8982932450269 18.0491632711478  L 13.4874224345401 15.407085178163  C 13.4490232960852 15.1536300187561  13.548861064997 14.8963346097039  13.7485366028209 14.7388852002765  C 14.1133284516266 14.4470277453428  14.4474009628805 14.1167679725571  14.7353945124532 13.7519461538899  C 14.8966709118222 13.5522541992905  15.1462653229401 13.4485679946706  15.4035395572844 13.4908105175175  L 18.0454004437038 13.901715108677  C 18.1951570859098 13.5906564948173  18.3295540816634 13.264236971677  18.4447514970279 12.9301369715711  L 16.2905596980049 11.3556427656716  C 16.0832043369551 11.2058738108847  15.9718468332037 10.9524186291526  16.0025661484322 10.6989634697456  C 16.0294455520475 10.4685496742597  16.0448051985002 10.2381359010989  16.0448051985002 10.0000416509727  C 16.0448051985002 9.76194740084645  16.0294455520475 9.53153362768558  16.0025661484322 9.30111983219967  C 15.9718468332037 9.04766467279273  16.0832043369551 8.79420949106066  16.2905596980049 8.64444053627369  L 18.4447514970279 7.06994633037436  C 18.3295540816634 6.73584633026849  18.1951570859098 6.40942680712817  18.0454004437038 6.09836819326836  L 15.4035395572844 6.50927278442782  C 15.1501052345532 6.54767507995473  14.8928309778858 6.44782910265496  14.7353945124532 6.24813714805543  C 14.4474009628805 5.88715555670842  14.1171683409164 5.55305555660266  13.7485366028209 5.26119810166881  C 13.548861064997 5.09990844259619  13.4490232960852 4.84645328318925  13.4874224345401 4.59299812378231  L 13.90213315664 1.94707975882716  C 13.591100115065 1.79731080404019  13.2647074270374 1.66290275853373  12.9306348934601 1.54769587195335  L 11.3562701275193 3.70206478272519  C 11.2065134853131 3.90943719196491  10.9607589858083 4.02464407854529  10.6996448175278 3.9900820103386  C 10.2426950453596 3.93631878320616  9.76270578118942 3.93631878320616  9.30191609740837 3.9900820103386  C 9.04464186306404 4.0208038512252  8.79504742962285 3.90943719196491  8.64145087580346 3.70206478272519  L 7.06708610986266 1.54769587195335  C 6.73301357628543 1.66290275853373  6.40662088825775 1.79731080404019  6.09558784668275 1.94707975882716  L 6.50645865716956 4.58915785181193  C 6.54485779562447 4.84261301121887  6.44502002671265 5.09990842027116  6.2453444888888 5.25735782969855  C 5.88055264008312 5.54537505731207  5.55032004044233 5.87947505741795  5.25848657925644 6.24429687608506  C 5.0972101798875 6.44398883068448  4.84377585715629 6.54383480798424  4.59034153442531 6.50543251245745  L 1.94848062568258 6.09452794362312  C 1.79872398347652 6.40558655748282  1.66432698772292 6.73200608062314  1.54912957235842 7.06610608072901  L 3.70332137138143 8.64060028662846  C 3.91067673243128 8.79036924141542  4.02203423618266 9.0438244231475  3.99131492095421 9.30111980987465  C 3.96443551733887 9.52769337804034  3.94907587088619 9.76194737852131  3.94907587088619 9.99620140132743  C 3.94907587088619 10.2342956514536  3.96443551733887 10.4647094246145  3.99131492095421 10.6951232201004  C 4.02203423618266 10.9524186068276  3.91067673243128 11.2020335612394  3.70332137138143 11.3556427433466  L 1.54912957235842 12.930136949246  C 1.66432698772292 13.2642369493518  1.79872398347652 13.5906564724922  1.94848062568258 13.9017150863518  L 4.59034151210199 13.4908104951925  C 4.8437758348332 13.4524081996657  5.10105009150061 13.5522541769654  5.25848655693312 13.7519461315649  C 5.5464801065059 14.1167679725571  5.87671272847001 14.4470277230176  6.24534446656571 14.7388851779514  C 6.44502000438933 14.9001748370241  6.54869768491426 15.1536299964311  6.50645863484647 15.407085155838  Z " fill-rule="nonzero" fill="#666666" stroke="none" transform="matrix(1 0 0 1 244 12 )" />
  </g>
</svg>