<?xml version="1.0" encoding="utf-8"?>
<svg version="1.1" xmlns:xlink="http://www.w3.org/1999/xlink" width="40px" height="7px" xmlns="http://www.w3.org/2000/svg">
  <g transform="matrix(1 0 0 1 -168 -237 )">
    <path d="M 40 0.999979374929126  C 40 0.44698728651872  39.5529642366607 0  38.999975192359 0  C 38.4469861480575 0  38.0000041346068 0.44698728651872  38.0000041346068 0.999979374929126  L 38.0000041346068 5  L 2.00004961528202 5  L 2.00004961528202 0.999979374929126  C 2.00004961528202 0.44698728651872  1.5520462289428 0  1.00002480764101 0  C 0.448003386338996 0  0 0.44698728651872  0 0.999979374929126  L 0 6.00002343758047  C 0 6.55301552599076  0.448003386338996 7  1.00002480764101 7  L 38.999975192359 7  C 39.5529642366607 7  40 6.55301552599076  40 6.00002343758047  L 40 0.999979374929126  Z " fill-rule="nonzero" fill="#000000" stroke="none" transform="matrix(1 0 0 1 168 237 )" />
  </g>
</svg>