<?xml version="1.0" encoding="utf-8"?>
<svg version="1.1" xmlns:xlink="http://www.w3.org/1999/xlink" width="13px" height="20px" xmlns="http://www.w3.org/2000/svg">
  <g transform="matrix(1 0 0 1 -181 -12 )">
    <path d="M 3.05303030303034 3.238376272084  L 3.05303030303034 10.8099207945993  C 3.0273025195778 11.7023142559403  3.36277806151404 12.4659086610059  4.0435960730905 13.100704009795  C 4.72441408466688 13.7354993585841  5.54336908409942 14.0390971340921  6.50046107138809 14.0390971340921  C 7.45755305867664 14.0390971340921  8.27650805810913 13.7262994259931  8.95732606968568 13.0915040772038  C 9.63814408126206 12.4567087284145  9.97361962319829 11.6931143233492  9.94696969696966 10.8007208620079  L 9.94696969696966 3.238376272084  C 9.97361962319829 2.34598281074295  9.63814408126206 1.58238840567742  8.95732606968568 0.947593056888309  C 8.27650805810913 0.312797708098969  7.45755305867664 0  6.50046107138809 0  C 5.54336908409942 0  4.72441408466688 0.312797708098969  4.0435960730905 0.947593056888309  C 3.36277806151404 1.58238840567742  3.0273025195778 2.34598281074295  3.05303030303034 3.238376272084  Z M 12.4695834752015 13.2111032008888  C 12.7655913063216 12.5211082565525  12.9037282941777 11.7943135818518  12.9015151515152 11.0399191093777  L 12.9015151515152 9.54033009702039  C 12.8938613664737 9.32873164742432  12.8149259448417 9.15393292819226  12.6570551015775 9.00673400673418  C 12.4991842583134 8.85953508527564  12.3117126319373 8.78593562454626  12.0847732947452 8.78593562454626  C 11.8578339575531 8.78593562454626  11.6703623311769 8.85953508527564  11.5124914879128 9.00673400673418  C 11.3546206446487 9.15393292819226  11.2756852230167 9.32873164742432  11.2272727272727 9.54033009702039  L 11.2272727272727 11.0399191093777  C 11.2756852230167 11.85871310999  11.0586128135286 12.6131075824642  10.6244679945523 13.3031025268001  C 10.190323175576 13.9930974711363  9.61804136874366 14.5358934940141  8.87802179094314 14.9406905280243  C 8.13800221314264 15.3454875620353  7.32891414141414 15.5478860790404  6.45075757575762 15.5478860790404  C 5.57260101010101 15.5478860790404  4.76351293837246 15.3454875620353  4.02349336057202 14.9406905280243  C 3.28347378277158 14.5358934940141  2.70132504823516 13.9930974711363  2.26718022925888 13.3031025268001  C 1.8330354102826 12.6131075824642  1.61596300079441 11.85871310999  1.67424242424238 11.0399191093777  L 1.67424242424238 9.54033009702039  C 1.61596300079441 9.32873164742432  1.53702757916244 9.15393292819226  1.37915673589836 9.00673400673418  C 1.2212858926342 8.85953508527564  1.03381426625813 8.78593562454626  0.806874929065913 8.78593562454626  C 0.579935591873806 8.78593562454626  0.402330893201651 8.85953508527564  0.244460049937572 9.00673400673418  C 0.0865892066734659 9.15393292819226  0.0076537850414411 9.32873164742432  0 9.54033009702039  L 0 11.0399191093777  C 0.0076537850414411 11.7943135818518  0.155657700601523 12.5119083239615  0.441798604017691 13.2111032008888  C 0.737806435137941 13.9010981452248  1.13248354329815 14.517493628832  1.63569685620249 15.0326898539361  C 2.13891016910679 15.5570860116313  2.73092583134721 15.9894828434153  3.43147769833161 16.339080281879  C 4.12216263761206 16.6886777203426  4.86218221541256 16.9094761025303  5.71212121212119 17.0014754284418  L 5.71212121212119 19.6510560146926  L 7.18939393939391 19.6510560146926  L 7.18939393939391 17.0014754284418  C 8.04919986380659 16.9094761025303  8.77935251390304 16.6886777203426  9.47990438088758 16.339080281879  C 10.1705893201679 15.9894828434153  10.7724719101123 15.5570860116313  11.2756852230167 15.0326898539361  C 11.778898535921 14.5082936962403  12.1735756440812 13.9010981452248  12.4695834752015 13.2111032008888  Z " fill-rule="nonzero" fill="#666666" stroke="none" transform="matrix(1 0 0 1 181 12 )" />
  </g>
</svg>