<?xml version="1.0" encoding="utf-8"?>
<svg version="1.1" xmlns:xlink="http://www.w3.org/1999/xlink" width="21px" height="16px" xmlns="http://www.w3.org/2000/svg">
  <g transform="matrix(1 0 0 1 -332 -227 )">
    <path d="M 21 0.66641931534798  C 21 0.29855584968351  20.6864522443895 0  20.3001166337836 0  L 19.9204299218618 0  C 19.7269121680479 0  19.5620896385231 0.0649758838809475  19.4252624567698 0.195260867811783  C 19.2887852030232 0.325545832218666  19.2205465761499 0.482154385870786  19.2205465761499 0.66641931534798  L 19.2205465761499 7.3675987997629  C 19.2205465761499 7.55186374876411  19.1523079492766 7.70880549906116  19.0154807470189 7.83875726682311  C 18.8786535447612 7.96904225075394  18.7138310152364 8.03401813463489  18.5206632099336 8.03401813463489  L 9.56460588906912 8.03401813463489  L 9.56460588906912 2.83061606307535  C 9.56460588906912 2.5567177217925  9.41483085845891 2.32347095263492  9.16252290303092 2.20351547470085  C 8.90951507108529 2.08389321293566  8.62956173690139 2.11288245343644  8.40839858382701 2.28215294817187  L 0.273304456004344 8.51717214948849  C 0.0944842525938639 8.65412132012989  0 8.84338439452097  0 9.06530202869902  C 0 9.28721966287708  0.0944842525938639 9.47648275679217  0.273304456004344 9.6137651240785  L 8.4083986043314 15.8484510897022  C 8.62956173690139 16.0177216039617  8.90986501959643 16.0470440411073  9.16252292353537 15.9270885631732  C 9.41518080696993 15.8074663014081  9.56460590957345 15.5738863160815  9.56460590957345 15.2999879747987  L 9.56460588906912 10  L 19.9501749711799 10  C 20.2399266791342 9.99628982783986  20.4873354374247 9.89865940369594  20.6924012665557 9.70339853588416  C 20.8974670956867 9.50813766807232  21 9.27255844430425  21 8.99666084505589  L 21 0.66641931534798  Z " fill-rule="nonzero" fill="#666666" stroke="none" transform="matrix(1 0 0 1 332 227 )" />
  </g>
</svg>