<?xml version="1.0" encoding="utf-8"?>
<svg version="1.1" xmlns:xlink="http://www.w3.org/1999/xlink" width="14px" height="12px" xmlns="http://www.w3.org/2000/svg">
  <g transform="matrix(1 0 0 1 -22 -26 )">
    <path d="M 11.2500000000002 7.99999999999909  C 8.99999999999977 10.2499999999998  5.00000000000023 10.5  2.74999999999977 7.99999999999909  C 2.24999999999989 7.5000000000008  1.49999999999977 7.5000000000008  0.749999999999886 7.75000000000091  C 0.250000000000227 8.24999999999932  0.250000000000227 9.00000000000011  0.749999999999886 9.50000000000091  C 2.24999999999989 11.0000000000002  4.49999999999989 11.9999999999993  6.75000000000023 11.9999999999993  C 8.99999999999977 11.9999999999993  11.2500000000002 11.2500000000008  12.7499999999998 9.50000000000091  C 13.2500000000001 9.00000000000011  13.2500000000001 8.24999999999932  12.7499999999998 7.75000000000091  C 12.5000000000002 7.5000000000008  12.2500000000002 7.5000000000008  11.9999999999999 7.5000000000008  C 11.7500000000001 7.5000000000008  11.5 7.75000000000091  11.2500000000002 7.99999999999909  Z M 2.49999999999977 1.50000000000011  C 2.49999999999977 0.749999999999318  2.00000000000011 0.250000000000909  1.25000000000023 0.250000000000909  C 0.500000000000114 0.250000000000909  0 0.749999999999318  0 1.50000000000011  L 0 3.7500000000008  C 0 4.49999999999932  0.500000000000114 5  1.25000000000023 5  C 1.74999999999977 5  2.49999999999977 4.49999999999932  2.49999999999977 3.7500000000008  L 2.49999999999977 1.50000000000011  Z M 13.9999999999998 1.50000000000011  C 13.9999999999998 0.749999999999318  13.4999999999999 0.250000000000909  12.7499999999998 0.250000000000909  C 11.9999999999999 0.250000000000909  11.5 0.749999999999318  11.5 1.50000000000011  L 11.5 3.7500000000008  C 11.5 4.49999999999932  11.9999999999999 5  12.7499999999998 5  C 13.4999999999999 5  13.9999999999998 4.49999999999932  13.9999999999998 3.7500000000008  L 13.9999999999998 1.50000000000011  Z " fill-rule="nonzero" fill="#333333" stroke="none" transform="matrix(1 0 0 1 22 26 )" />
  </g>
</svg>