<?xml version="1.0" encoding="utf-8"?>
<svg version="1.1" xmlns:xlink="http://www.w3.org/1999/xlink" width="18px" height="19px" xmlns="http://www.w3.org/2000/svg">
  <g transform="matrix(1 0 0 1 -27 -65 )">
    <path d="M 17.994123280175 18.4656741112321  C 18.0586315374741 18.1552936480176  17.5707877142032 17.7309760284516  17.5707877142032 17.7309760284516  C 17.5707877142032 17.7309760284516  13.7527041615397 15.8411910847935  11.9988854284081 15.7193961998215  L 11.9988854284081 15.1772125824336  C 14.8049954061063 14.0142679929365  16.5709094330867 11.1815550210252  16.5709094330867 7.86952026068604  C 16.5709094330867 3.52812241159182  13.1519708352588 0  8.95086940966337 0  C 4.74976798406789 0  1.33082938624005 3.53205127590184  1.33082938624005 7.86952026068604  C 1.33082938624005 11.2208436641253  3.14512463549289 14.0810587318878  6.00767934125747 15.2165012483743  L 6.00767934125747 15.7193961998215  L 5.97139343627242 15.7193961998215  C 4.34255947656112 15.7979735317028  0.4559359019824 17.723118276991  0.4559359019824 17.723118276991  C 0.4559359019824 17.723118276991  -0.0520667443698244 18.1395781679375  0.00437798369659959 18.4538875183021  C 0.0608227352016115 18.7681968686667  0.351109975082068 19  0.685746649180089 19  L 6.92289051855505 19  L 11.0796425099329 19  L 17.3127546146915 19  C 17.6473912887895 19  17.9296149994374 18.7760545972868  17.994123280175 18.4656741112321  Z " fill-rule="nonzero" fill="#ffffff" stroke="none" transform="matrix(1 0 0 1 27 65 )" />
  </g>
</svg>