<?xml version="1.0" encoding="utf-8"?>
<svg version="1.1" xmlns:xlink="http://www.w3.org/1999/xlink" width="34px" height="35px" xmlns="http://www.w3.org/2000/svg">
  <g transform="matrix(1 0 0 1 -434 -148 )">
    <path d="M 33.9888995292195 34.0157154680593  C 34.1107484596733 33.4439619831903  33.189265682384 32.6623242629372  33.189265682384 32.6623242629372  C 33.189265682384 32.6623242629372  25.9773300829085 29.1811414719881  22.664561364771 28.9567824733554  L 22.664561364771 27.9580231781672  C 27.9649913226452 25.8157568290937  31.3006067069417 20.5976013545201  31.3006067069417 14.4964846907375  C 31.3006067069417 6.49917286345863  24.842611577711 0  16.9071977738085 0  C 8.97178396990603 0  2.51378884067572 6.50641024508241  2.51378884067572 14.4964846907375  C 2.51378884067572 20.669975170757  5.94079097815325 25.938792400846  11.3478387557085 28.0303970364789  L 11.3478387557085 28.9567824733554  L 11.279298712959 28.9567824733554  C 8.20261234461543 29.1015301899789  0.861212259300146 32.6478494576151  0.861212259300146 32.6478494576151  C 0.861212259300146 32.6478494576151  -0.0983482949206973 33.4150124146217  0.0082695247601805 33.9940033231881  C 0.114887388714237 34.5729942317545  0.66320773071061 35  1.29529922622908 35  L 13.0765709794928 35  L 20.9282136298731 35  L 32.7018698277506 35  C 33.3339613232693 35  33.8670505544929 34.5874689950018  33.9888995292195 34.0157154680593  Z " fill-rule="nonzero" fill="#ffffff" stroke="none" transform="matrix(1 0 0 1 434 148 )" />
  </g>
</svg>