<?xml version="1.0" encoding="utf-8"?>
<svg version="1.1" xmlns:xlink="http://www.w3.org/1999/xlink" width="24px" height="24px" xmlns="http://www.w3.org/2000/svg">
  <g transform="matrix(1 0 0 1 -661 -832 )">
    <path d="M 20.0000000000001 24  L 3.99999999999994 24  C 1.76000000000005 24  0 22.24  0 20  L 0 18.3999999999999  C 0 16.16  1.76000000000005 14.4  3.99999999999994 14  L 20.0000000000001 14  C 22.24 14.4  24 16.16  24 18.3999999999999  L 24 20  C 24 22.24  22.24 24  20.0000000000001 24  Z M 17.6000000000001 6  C 17.6000000000001 9.35999999999996  14.96 12  11.6000000000001 12  C 8.24000000000001 12  5.60000000000008 9.35999999999996  5.60000000000008 6  C 5.60000000000008 2.64000000000004  8.24000000000001 0  11.6000000000001 0  C 14.96 0  17.6000000000001 2.64000000000004  17.6000000000001 6  Z " fill-rule="nonzero" fill="#0066ff" stroke="none" transform="matrix(1 0 0 1 661 832 )" />
  </g>
</svg>