<?xml version="1.0" encoding="utf-8"?>
<svg version="1.1" xmlns:xlink="http://www.w3.org/1999/xlink" width="24px" height="24px" xmlns="http://www.w3.org/2000/svg">
  <defs>
    <mask fill="white" id="clip34">
      <path d="M 13.5579432079816 0.519026839173096  C 12.6190108869619 -0.173008946391032  11.3656399188708 -0.173008946391032  10.4267075978512 0.519026839173096  L 1.14658480429775 7.35954747833879  C 0.428317696227587 7.88776045670024  0.000603572673135488 8.74852374540277  0 9.66701887704315  L 0 22.725026820164  C 0.00505942284871708 23.4307290681906  0.55334578492112 24.0000169476304  1.22793553338449 23.9999970989193  L 7.11128165771288 23.9999970989193  C 7.11230585731995 23.9999990329727  7.11333005838862 24  7.11435425966426 24  C 8.05326997666475 24  8.81488539379663 23.2046703125576  8.81657712970072 22.2224251863474  L 8.81657712970072 20.6792936524887  C 8.82163655254944 19.9735914044622  9.36992291462184 19.4043035250224  10.0445126630852 19.4043233737334  L 13.9508825786646 19.4043233737334  C 14.625472327128 19.4043035250224  15.1737586892004 19.9735914044622  15.1788181120491 20.6792936524887  L 15.1788181120491 22.2224251863474  C 15.1805098479531 23.2046703125576  15.9421252650851 24  16.8810409820856 24  C 16.8820651833611 24  16.8830893844299 23.9999990329727  16.8841135840368 23.9999970989193  L 22.7720644666154 23.9999970989193  C 23.4466542150789 24.0000169476304  23.9949405771513 23.4307290681906  24 22.725026820164  L 24 9.66701887704315  C 23.9993964273269 8.74852374540277  23.5716823037724 7.88776045670024  22.8534151957023 7.35954747833879  L 13.5579432079816 0.519026839173096  Z " fill-rule="evenodd" />
    </mask>
  </defs>
  <g transform="matrix(1 0 0 1 -475 -833 )">
    <path d="M 13.5579432079816 0.519026839173096  C 12.6190108869619 -0.173008946391032  11.3656399188708 -0.173008946391032  10.4267075978512 0.519026839173096  L 1.14658480429775 7.35954747833879  C 0.428317696227587 7.88776045670024  0.000603572673135488 8.74852374540277  0 9.66701887704315  L 0 22.725026820164  C 0.00505942284871708 23.4307290681906  0.55334578492112 24.0000169476304  1.22793553338449 23.9999970989193  L 7.11128165771288 23.9999970989193  C 7.11230585731995 23.9999990329727  7.11333005838862 24  7.11435425966426 24  C 8.05326997666475 24  8.81488539379663 23.2046703125576  8.81657712970072 22.2224251863474  L 8.81657712970072 20.6792936524887  C 8.82163655254944 19.9735914044622  9.36992291462184 19.4043035250224  10.0445126630852 19.4043233737334  L 13.9508825786646 19.4043233737334  C 14.625472327128 19.4043035250224  15.1737586892004 19.9735914044622  15.1788181120491 20.6792936524887  L 15.1788181120491 22.2224251863474  C 15.1805098479531 23.2046703125576  15.9421252650851 24  16.8810409820856 24  C 16.8820651833611 24  16.8830893844299 23.9999990329727  16.8841135840368 23.9999970989193  L 22.7720644666154 23.9999970989193  C 23.4466542150789 24.0000169476304  23.9949405771513 23.4307290681906  24 22.725026820164  L 24 9.66701887704315  C 23.9993964273269 8.74852374540277  23.5716823037724 7.88776045670024  22.8534151957023 7.35954747833879  L 13.5579432079816 0.519026839173096  Z " fill-rule="nonzero" fill="#ffffff" stroke="none" fill-opacity="0" transform="matrix(1 0 0 1 475 833 )" />
    <path d="M 13.5579432079816 0.519026839173096  C 12.6190108869619 -0.173008946391032  11.3656399188708 -0.173008946391032  10.4267075978512 0.519026839173096  L 1.14658480429775 7.35954747833879  C 0.428317696227587 7.88776045670024  0.000603572673135488 8.74852374540277  0 9.66701887704315  L 0 22.725026820164  C 0.00505942284871708 23.4307290681906  0.55334578492112 24.0000169476304  1.22793553338449 23.9999970989193  L 7.11128165771288 23.9999970989193  C 7.11230585731995 23.9999990329727  7.11333005838862 24  7.11435425966426 24  C 8.05326997666475 24  8.81488539379663 23.2046703125576  8.81657712970072 22.2224251863474  L 8.81657712970072 20.6792936524887  C 8.82163655254944 19.9735914044622  9.36992291462184 19.4043035250224  10.0445126630852 19.4043233737334  L 13.9508825786646 19.4043233737334  C 14.625472327128 19.4043035250224  15.1737586892004 19.9735914044622  15.1788181120491 20.6792936524887  L 15.1788181120491 22.2224251863474  C 15.1805098479531 23.2046703125576  15.9421252650851 24  16.8810409820856 24  C 16.8820651833611 24  16.8830893844299 23.9999990329727  16.8841135840368 23.9999970989193  L 22.7720644666154 23.9999970989193  C 23.4466542150789 24.0000169476304  23.9949405771513 23.4307290681906  24 22.725026820164  L 24 9.66701887704315  C 23.9993964273269 8.74852374540277  23.5716823037724 7.88776045670024  22.8534151957023 7.35954747833879  L 13.5579432079816 0.519026839173096  Z " stroke-width="4" stroke="#999999" fill="none" transform="matrix(1 0 0 1 475 833 )" mask="url(#clip34)" />
  </g>
</svg>