<?xml version="1.0" encoding="utf-8"?>
<svg version="1.1" xmlns:xlink="http://www.w3.org/1999/xlink" width="37px" height="55px" xmlns="http://www.w3.org/2000/svg">
  <g transform="matrix(1 0 0 1 -432 -172 )">
    <path d="M 32.4118518518519 46.3630565123103  C 33.9033753476622 47.3625876066717  35.3948988434724 48.5950648706039  36.7757211607789 50.1340705655452  C 31.5209457161936 53.2335141900103  25.3527225033743 55  18.7037037037037 55  C 11.8875154480127 55  5.57660299915528 53.1435716813694  0.237079070948766 49.8977713033778  C 1.1347484975322 48.8752469606884  2.24267268011477 47.8744694244542  3.4755555555555 46.9804822043629  C 5.33333333333326 45.6053067993366  7.44444444444434 44.4546498277841  9.55555555555566 43.7810945273632  C 10.3155555555556 43.5285112897054  10.7377777777776 43.2759280520477  10.8785185185186 43.1356040311261  C 11.1318518518519 42.7988263809161  11.328888888889 42.4339839265213  11.4977777777779 42.013011863758  C 11.6666666666667 40.4133180252584  11.6666666666667 38.1681336905217  11.6666666666667 36.9332823064165  L 10.5125925925927 36.9613471106009  C 8.73925925925937 37.1016711315219  5.53037037037029 36.8210230896798  1.39259259259256 34.4635795382064  C 0.80148148148146 34.1829314963643  0.519999999999982 33.453246587575  0.660740740740721 32.8638856997068  C 0.80148148148146 32.4148488327592  1.25185185185182 31.9938767699964  1.70222222222219 31.8535527490753  C 1.98370370370367 31.5729047072332  3.89777777777772 28.5138410511545  3.89777777777772 17.4282433983926  C 3.86962962962957 2.04873070544727  11.6666666666667 0  19.4637037037037 0  C 28.5837037037036 0  33.2844444444445 6.00586809542028  33.2844444444445 18.129863502998  C 33.2844444444445 28.7944890929966  35.7896296296296 31.5448399030488  35.9303703703704 31.6851639239699  C 36.3807407407407 31.8254879448909  36.802962962963 32.2745248118381  36.802962962963 32.8638856997068  C 36.802962962963 33.453246587575  36.5214814814815 34.0426074754432  36.0711111111111 34.3232555172854  C 35.9303703703704 34.4635795382064  31.9614814814815 36.5123102436537  27.1200000000001 36.6526342645748  L 25.7688888888888 36.6806990687587  C 25.7688888888888 37.915550452864  25.7688888888888 40.4133180252584  25.9096296296295 41.9288174512053  C 26.0222222222221 42.2655951014158  26.191111111111 42.5462431432579  26.3599999999999 42.8268911851001  C 26.6414814814814 43.1075392269422  27.0355555555557 43.500446485521  27.711111111111 43.7810945273632  C 29.1748148148149 44.4546498277841  30.7792592592593 45.2685291491262  32.4118518518519 46.3630565123103  Z " fill-rule="nonzero" fill="#ffffff" stroke="none" transform="matrix(1 0 0 1 432 172 )" />
  </g>
</svg>