<?xml version="1.0" encoding="utf-8"?>
<svg version="1.1" xmlns:xlink="http://www.w3.org/1999/xlink" width="50px" height="32px" xmlns="http://www.w3.org/2000/svg">
  <g transform="matrix(1 0 0 1 -25 -46 )">
    <path d="M 47.5694444444445 32  L 26.0416666666667 32  L 13.5680886814412 32  L 1.73611111111126 32  C 1.26591435185208 32  0.859013310185503 31.7705314009648  0.515407986111086 31.3115942029012  C 0.171802662036782 30.8526570048307  0 30.30917874396  0 29.6811594202925  C 0 29.0531400966181  0.171802662036782 28.5096618357474  0.515407986111086 28.0507246376838  L 12.6681857638888 11.818840579711  C 13.0117910879632 11.3599033816439  13.41869212963 11.1304347826087  13.8888888888887 11.1304347826087  C 14.3590856481478 11.1304347826087  14.7659866898146 11.3599033816439  15.1095920138888 11.818840579711  L 18.4442045451867 16.2727318907239  L 28.8465711805555 1.0555555555552  C 29.3276186342602 0.351851851850483  29.8972800925935 0  30.5555555555555 0  C 31.2138310185175 0  31.783492476851 0.351851851850483  32.2645399305555 1.0555555555552  L 49.2784288194445 25.9444444444448  C 49.7594762731492 26.648148148146  50 27.4814814814806  50 28.4444444444448  C 50 29.4074074074057  49.7594762731492 30.2407407407403  49.2784288194445 30.9444444444448  C 48.7973813657398 31.648148148146  48.2277199074064 32  47.5694444444445 32  Z " fill-rule="nonzero" fill="#c9c9c9" stroke="none" transform="matrix(1 0 0 1 25 46 )" />
  </g>
</svg>