<?xml version="1.0" encoding="utf-8"?>
<svg version="1.1" xmlns:xlink="http://www.w3.org/1999/xlink" width="24px" height="24px" xmlns="http://www.w3.org/2000/svg">
  <g transform="matrix(1 0 0 1 -87 0 )">
    <path d="M 24 12  C 24 5.38287096428576  18.6171290357145 0  12 0  C 5.38370035714286 0  0 5.38287096428576  0 12  C 0 18.6171290357142  5.38287096428576 24  12 24  C 18.616299642857 24  24 18.6171290357142  24 12  Z M 13.2145832946428 12.0034096875  L 16.8951485089287 15.6960009107142  C 17.2294353749999 16.0319926071429  17.2285599107141 16.5737170446428  16.8934436785714 16.9080039107142  C 16.7263232946427 17.0742949285715  16.5077351517857 17.1582928392858  16.2883176428572 17.1582928392858  C 16.0680246696429 17.1582928392858  15.8486071607143 17.0742949017857  15.6814406785713 16.9062990535714  L 11.995714875 13.2094226785715  L 8.29800910714278 16.8677328214285  C 8.13088872321418 17.0323189821428  7.91312997321427 17.1154414553571  7.69541729464299 17.1154414553571  C 7.47429492857145 17.1154414553571  7.25400198214288 17.0305680803572  7.08600610714291 16.860867375  C 6.75342407142864 16.5240002142857  6.75600436607141 15.9822757767857  7.09287155357151 15.648864375  L 10.7862921696429 11.9957148482143  L 7.10655634821433 8.3039990625  C 6.77226948214286 7.96883673214285  6.7731449464286 7.42628292857142  7.10826117857141 7.09199606249996  C 7.44342350892862 6.75683373214281  7.9851018482143 6.75858466071423  8.32026417857139 7.09370089285716  L 12.0051145178571 10.7897018035714  L 15.7028202857143 7.13143773214284  C 16.0388119821428 6.79802633035712  16.5822412499999 6.80143599107146  16.9148232857143 7.13830317857145  C 17.2482346874999 7.47517033928568  17.2448250267857 8.01772414285711  16.9079578392858 8.35030617857143  L 13.2145832946428 12.0034096875  Z " fill-rule="nonzero" fill="#cccccc" stroke="none" transform="matrix(1 0 0 1 87 0 )" />
  </g>
</svg>