<?xml version="1.0" encoding="utf-8"?>
<svg version="1.1" xmlns:xlink="http://www.w3.org/1999/xlink" width="109px" height="74px" xmlns="http://www.w3.org/2000/svg">
  <g transform="matrix(1 0 0 1 -117 -38 )">
    <path d="M 103.904471544715 74  L 48.1859756097561 74  L 32.5622354006828 74  L 3.21239837398375 74  C 2.34237381436301 74  1.58946794546057 73.4866209215168  0.953680767276424 72.4598627645502  C 0.317893589092279 71.4331046075838  0 70.2172067901235  0 68.8121693121693  C 0 67.4071318342152  0.317893589092279 66.1912340167549  0.953680767276424 65.1644758597883  L 23.4404693851626 28.8496610449735  C 24.0762565633467 27.822902888007  24.8291624322492 27.3095238095238  25.6991869918699 27.3095238095238  C 26.5692115514907 27.3095238095238  27.3221174203931 27.822902888007  27.9579045985772 28.8496610449735  L 38.1182020371313 45.2578918021594  L 64.6529789126016 2.44097222222221  C 65.6614689193766 0.813657407407383  66.855733401084 0  68.2357723577236 0  C 69.6158113143632 0  70.8100757960705 0.813657407407383  71.8185658028455 2.44097222222221  L 107.487264989837 59.9965277777777  C 108.495754996612 61.6238425925926  109 63.550925925926  109 65.7777777777777  C 109 68.0046296296296  108.495754996612 69.931712962963  107.487264989837 71.5590277777777  C 106.478774983062 73.1863425925926  105.284510501355 74  103.904471544715 74  Z " fill-rule="nonzero" fill="#c9c9c9" stroke="none" transform="matrix(1 0 0 1 117 38 )" />
  </g>
</svg>