<?xml version="1.0" encoding="utf-8"?>
<svg version="1.1" xmlns:xlink="http://www.w3.org/1999/xlink" width="78px" height="51px" xmlns="http://www.w3.org/2000/svg">
  <g transform="matrix(1 0 0 1 -149 -586 )">
    <path d="M 74.2083333333335 51  L 40.6250000000002 51  L 21.1662183430485 51  L 2.70833333333348 51  C 1.97482638888914 51  1.34006076388937 50.6342844202875  0.804036458333258 49.9028532608738  C 0.268012152777146 49.1714221014491  0 48.3052536231862  0 47.3043478260912  C 0 46.3034420289852  0.268012152777146 45.4372735507224  0.804036458333258 44.7058423913087  L 19.7623697916667 18.8362771739144  C 20.2983940972229 18.1048460144949  20.9331597222226 17.7391304347827  21.6666666666665 17.7391304347827  C 22.4001736111109 17.7391304347827  23.0349392361106 18.1048460144949  23.5709635416667 18.8362771739144  L 28.7729590904912 25.9346664508411  L 45.0006510416667 1.68229166666617  C 45.7510850694459 0.560763888886754  46.6397569444457 0  47.6666666666667 0  C 48.6935763888876 0  49.5822482638873 0.560763888886754  50.3326822916667 1.68229166666617  L 76.874348958333 41.3489583333338  C 77.6247829861127 42.4704861111077  78 43.7986111111096  78 45.3333333333341  C 78 46.868055555553  77.6247829861127 48.1961805555546  76.874348958333 49.3177083333338  C 76.1239149305541 50.4392361111077  75.2352430555538 51  74.2083333333335 51  Z " fill-rule="nonzero" fill="#cccccc" stroke="none" transform="matrix(1 0 0 1 149 586 )" />
  </g>
</svg>