<?xml version="1.0" encoding="utf-8"?>
<svg version="1.1" xmlns:xlink="http://www.w3.org/1999/xlink" width="20px" height="20px" xmlns="http://www.w3.org/2000/svg">
  <g transform="matrix(1 0 0 1 -739 -112 )">
    <path d="M 16.6233766233767 8.31168831168822  C 16.6233766233767 3.73111447272727  12.8922622337664 0  8.31168831168827 0  C 3.73111447272731 0  0 3.73111447272727  0 8.31168831168822  C 0 12.8922622337663  3.73111447272731 16.6233766233765  8.31168831168827 16.6233766233765  C 10.3035910649351 16.6233766233765  12.1328914285714 15.9160403116883  13.5665587532468 14.7418830129868  L 18.5292209870129 19.7045452467533  C 18.6859705560414 19.867809505906  18.9025156320885 19.960098412568  19.1288464645158 19.960098412568  C 19.5879342386921 19.960098412568  19.9600984125676 19.5879342386921  19.9600984125676 19.128846464516  C 19.9600984125676 18.9025156320885  19.8678095059058 18.6859705560417  19.7045452467534 18.5292209870129  L 14.7418830129869 13.5665587532467  C 15.9160403116882 12.1328914285714  16.6233766233767 10.3035910649351  16.6233766233767 8.31168831168822  Z M 1.66233766233756 8.31168831168822  C 1.66233766233756 4.62950848831139  4.62950848831144 1.66233766233762  8.31168831168827 1.66233766233762  C 11.9938684675324 1.66233766233762  14.9610389610389 4.62950848831139  14.9610389610389 8.31168831168822  C 14.9610389610389 11.9938684675325  11.9938684675324 14.961038961039  8.31168831168827 14.961038961039  C 4.62950848831144 14.961038961039  1.66233766233756 11.9938684675325  1.66233766233756 8.31168831168822  Z " fill-rule="nonzero" fill="#333333" stroke="none" transform="matrix(1 0 0 1 739 112 )" />
  </g>
</svg>