<?xml version="1.0" encoding="utf-8"?>
<svg version="1.1" xmlns:xlink="http://www.w3.org/1999/xlink" width="19px" height="14px" xmlns="http://www.w3.org/2000/svg">
  <g transform="matrix(1 0 0 1 -675 -78 )">
    <path d="M 10.2172437202987 12.7711668657905  C 9.75469563249612 13.2447099429179  9.46005883684097 13.4814814814815  9.33333333333337 13.4814814814815  C 9.20660782982571 13.4814814814815  8.91197103417056 13.2447099429179  8.44942294636803 12.7711668657905  C 7.98687485856539 12.2976237886632  7.75560081466386 11.9964246205585  7.75560081466386 11.8675693614762  C 7.75560081466386 11.6614009469446  7.95360941389458 11.4874463471835  8.34962661235573 11.3457055621931  C 8.74564381081694 11.2039647772025  9.07354605114278 11.1330943847072  9.33333333333337 11.1330943847072  C 9.5931206155239 11.1330943847072  9.92102285584974 11.2039647772025  10.317040054311 11.3457055621931  C 10.7130572527721 11.4874463471835  10.9110658520028 11.6614009469446  10.9110658520028 11.8675693614762  C 10.9110658520028 11.9964246205585  10.6797918081013 12.2976237886632  10.2172437202987 12.7711668657905  Z M 12.7881873727088 10.1376875082968  C 12.3097985969676 10.6208947298553  12.0135777325187 10.8624983406345  11.899524779362 10.8624983406345  C 11.8868522290111 10.8624983406345  11.7601267255035 10.7819638037082  11.5193482688391 10.6208947298553  C 11.2785698121747 10.4598256560025  10.9570038470243 10.2987565821497  10.5546503733877 10.1376875082968  C 10.1522968997511 9.97661843444405  9.74519121973293 9.8960838975176  9.33333333333337 9.8960838975176  C 8.92147544693375 9.8960838975176  8.51436976691554 9.97661843444405  8.11201629327894 10.1376875082968  C 7.70966281964235 10.2987565821497  7.38968092328577 10.4598256560025  7.15207060420903 10.6208947298553  C 6.91446028513241 10.7819638037082  6.78615071283093 10.8624983406345  6.76714188730472 10.8624983406345  C 6.653088934148 10.8624983406345  6.35686806969909 10.6208947298553  5.87847929395787 10.1376875082968  C 5.40009051821681 9.65448028673836  5.1608961303462 9.35489180937208  5.1608961303462 9.23892207619809  C 5.1608961303462 9.15516615779461  5.19257750622307 9.08107438382228  5.25594025797693 9.01664675428117  C 5.75016972165645 8.52055400681445  6.37112468884362 8.13076684809067  7.1188051595384 7.84728527810967  C 7.86648563023311 7.5638037081286  8.60466168816481 7.42206292313824  9.33333333333337 7.42206292313824  C 10.0620049785019 7.42206292313824  10.8001810364336 7.5638037081286  11.5478615071283 7.84728527810967  C 12.2955419778231 8.13076684809067  12.9164969450102 8.52055400681445  13.4107264086898 9.01664675428117  C 13.4740891604436 9.08107438382228  13.5057705363205 9.15516615779461  13.5057705363205 9.23892207619809  C 13.5057705363205 9.35489180937208  13.2665761484499 9.65448028673836  12.7881873727088 10.1376875082968  Z M 15.3686354378819 7.50904022301876  C 14.8934147997284 7.99224744457717  14.6019461416611 8.23385105535641  14.4942294636796 8.23385105535641  C 14.4245304367504 8.23385105535641  14.3516632722335 8.20808000353998  14.275627970129 8.15653789990705  C 13.4138945462775 7.48004778972518  12.6155238741796 6.98234435152  11.8805159538358 6.6634275852914  C 11.1455080334919 6.34451081906275  10.296447159991 6.18505243594848  9.33333333333337 6.18505243594848  C 8.79474994342604 6.18505243594848  8.25458248472501 6.25592282844377  7.71283095723015 6.39766361343419  C 7.17107942973519 6.53940439842472  6.69902692916946 6.71013761670872  6.29667345553287 6.90986326828624  C 5.89431998189639 7.10958891986371  5.53473636569356 7.30931457144123  5.21792260692462 7.50904022301876  C 4.90110884815567 7.70876587459623  4.65082597872822 7.87949909288022  4.46707399864221 8.0212398778707  C 4.28332201855631 8.16298066286123  4.18510975333783 8.23385105535641  4.17243720298711 8.23385105535641  C 4.06472052500561 8.23385105535641  3.77325186693827 7.99224744457717  3.29803122878479 7.50904022301876  C 2.82281059063138 7.02583300146023  2.58520027155464 6.726244524094  2.58520027155464 6.61027479091996  C 2.58520027155464 6.5329616354706  2.61688164743157 6.46209124297536  2.68024439918537 6.39766361343419  C 3.51663272233532 5.54721890349134  4.53043675039595 4.88683570069469  5.72165648336733 4.41651400504446  C 6.91287621633853 3.94619230939423  8.11676849966057 3.71103146156906  9.33333333333337 3.71103146156906  C 10.5498981670061 3.71103146156906  11.7537904503282 3.94619230939423  12.9450101832994 4.41651400504446  C 14.1362299162707 4.88683570069469  15.1500339443314 5.54721890349134  15.9864222674813 6.39766361343419  C 16.0497850192352 6.46209124297536  16.081466395112 6.5329616354706  16.081466395112 6.61027479091996  C 16.081466395112 6.726244524094  15.8438560760353 7.02583300146023  15.3686354378819 7.50904022301876  Z M 17.9490835030551 4.89005708217178  C 17.4706947273139 5.37326430373025  17.1776420004527 5.61486791450949  17.0699253224711 5.61486791450949  C 17.000226295542 5.61486791450949  16.9305272686128 5.58587548121602  16.8608282416837 5.52789061462897  C 15.7266349852908 4.51637683083322  14.5496718714642 3.75452011150935  13.3299389002037 3.24232045665735  C 12.1102059289432 2.73012080180536  10.7780040733197 2.47402097437936  9.33333333333337 2.47402097437936  C 7.88866259334696 2.47402097437936  6.55646073772346 2.73012080180536  5.33672776646301 3.24232045665735  C 4.11699479520252 3.75452011150935  2.9400316813759 4.51637683083322  1.80583842498299 5.52789061462897  C 1.73613939805387 5.58587548121602  1.66644037112468 5.61486791450949  1.59674134419555 5.61486791450949  C 1.48902466621399 5.61486791450949  1.19597193935283 5.37326430373025  0.717583163611607 4.89005708217178  C 0.239194387870498 4.40684986061331  0 4.10726138324708  0 3.99129165007298  C 0 3.90753573166955  0.0316813758768717 3.83344395769728  0.0950441276306719 3.76901632815611  C 1.27992758542655 2.57066241869109  2.68974881194845 1.64290455329882  4.32450780719614 0.985742731979258  C 5.95926680244406 0.328580910659809  7.62887531115638 0  9.33333333333337 0  C 11.0377913555103 0  12.7073998642226 0.328580910659809  14.3421588594705 0.985742731979258  C 15.9769178547182 1.64290455329882  17.3867390812401 2.57066241869109  18.571622539036 3.76901632815611  C 18.6349852907898 3.83344395769728  18.6666666666667 3.90753573166955  18.6666666666667 3.99129165007298  C 18.6666666666667 4.10726138324708  18.4274722787962 4.40684986061331  17.9490835030551 4.89005708217178  Z " fill-rule="nonzero" fill="#000000" stroke="none" transform="matrix(1 0 0 1 675 78 )" />
  </g>
</svg>