<?xml version="1.0" encoding="utf-8"?>
<svg version="1.1" xmlns:xlink="http://www.w3.org/1999/xlink" width="38px" height="25px" xmlns="http://www.w3.org/2000/svg">
  <g transform="matrix(1 0 0 1 -283 -880 )">
    <path d="M 36.1527777777778 25  L 19.7916666666667 25  L 10.3117473978955 25  L 1.31944444444457 25  C 0.962094907407618 25  0.652850115740875 24.8207276570037  0.391710069444343 24.4621829710166  C 0.130570023147811 24.1036382850241  0 23.6790458937188  0 23.1884057971035  C 0 22.6977657004829  0.130570023147811 22.2731733091777  0.391710069444343 21.9146286231905  L 9.62782118055566 9.23346920289919  C 9.88896122685219 8.87492451690929  10.1982060185187 8.69565217391312  10.5555555555554 8.69565217391312  C 10.9129050925924 8.69565217391312  11.2221498842591 8.87492451690929  11.4832899305557 9.23346920289919  L 14.017595454342 12.713071789628  L 21.9233940972222 0.824652777777544  C 22.2889901620379 0.274884259258215  22.7219328703709 0  23.2222222222222 0  C 23.7225115740734 0  24.1554542824067 0.274884259258215  24.5210503472222 0.824652777777544  L 37.4516059027776 20.2690972222225  C 37.8172019675933 20.8188657407391  38 21.4699074074067  38 22.2222222222226  C 38 22.9745370370358  37.8172019675933 23.6255787037032  37.4516059027776 24.1753472222225  C 37.0860098379621 24.7251157407391  36.6530671296289 25  36.1527777777778 25  Z " fill-rule="nonzero" fill="#cccccc" stroke="none" transform="matrix(1 0 0 1 283 880 )" />
  </g>
</svg>