<?xml version="1.0" encoding="utf-8"?>
<svg version="1.1" xmlns:xlink="http://www.w3.org/1999/xlink" width="37px" height="24px" xmlns="http://www.w3.org/2000/svg">
  <g transform="matrix(1 0 0 1 -53 -421 )">
    <path d="M 35.2013888888889 24  L 19.2708333333334 24  L 10.0403856242667 24  L 1.28472222222234 24  C 0.936776620370573 24  0.635669849537166 23.8278985507235  0.381401909722122 23.4836956521759  C 0.127133969907078 23.1394927536231  0 22.73188405797  0 22.2608695652194  C 0 21.7898550724636  0.127133969907078 21.3822463768106  0.381401909722122 21.0380434782629  L 9.37445746527788 8.86413043478319  C 9.62872540509292 8.5199275362329  9.92983217592611 8.34782608695662  10.2777777777777 8.34782608695662  C 10.6257233796294 8.34782608695662  10.9268301504628 8.5199275362329  11.1810980902779 8.86413043478319  L 13.6487113634382 12.2045489180429  L 21.3464626736111 0.791666666666401  C 21.7024377893527 0.263888888887891  22.123987268519 0  22.6111111111111 0  C 23.0982349537031 0  23.5197844328697 0.263888888887891  23.8757595486111 0.791666666666401  L 36.4660373263887 19.4583333333336  C 36.8220124421303 19.9861111111095  37 20.6111111111104  37 21.3333333333337  C 37 22.0555555555544  36.8220124421303 22.6805555555551  36.4660373263887 23.2083333333336  C 36.1100622106473 23.7361111111095  35.6885127314808 24  35.2013888888889 24  Z " fill-rule="nonzero" fill="#cccccc" stroke="none" transform="matrix(1 0 0 1 53 421 )" />
  </g>
</svg>