<?xml version="1.0" encoding="utf-8"?>
<svg version="1.1" xmlns:xlink="http://www.w3.org/1999/xlink" width="31px" height="20px" xmlns="http://www.w3.org/2000/svg">
  <g transform="matrix(1 0 0 1 -31 -374 )">
    <path d="M 29.4930555555557 20  L 16.145833333333 20  L 8.41221498249342 20  L 1.07638888888869 20  C 0.784866898148721 20  0.532588252314781 19.856582125603  0.319552951388687 19.5697463768132  C 0.106517650462592 19.2829106280193  0 18.9432367149751  0 18.5507246376828  C 0 18.1582125603863  0.106517650462592 17.8185386473421  0.319552951388687 17.5317028985525  L 7.85427517361131 7.38677536231933  C 8.06731047453741 7.09993961352745  8.31958912037044 6.95652173913049  8.61111111111131 6.95652173913049  C 8.90263310185128 6.95652173913049  9.15491174768522 7.09993961352745  9.36794704861131 7.38677536231933  L 11.4354068180155 10.1704574317024  L 17.8848741319443 0.659722222222058  C 18.1831235532418 0.219907407406595  18.5363136574078 0  18.9444444444443 0  C 19.3525752314808 0  19.7057653356478 0.219907407406595  20.0040147569443 0.659722222222058  L 30.5526258680557 16.2152777777779  C 30.8508752893522 16.6550925925912  31 17.1759259259253  31 17.7777777777779  C 31 18.3796296296287  30.8508752893522 18.9004629629626  30.5526258680557 19.3402777777779  C 30.2543764467591 19.7800925925912  29.9011863425922 20  29.4930555555557 20  Z " fill-rule="nonzero" fill="#cccccc" stroke="none" transform="matrix(1 0 0 1 31 374 )" />
  </g>
</svg>