<?xml version="1.0" encoding="utf-8"?>
<svg version="1.1" xmlns:xlink="http://www.w3.org/1999/xlink" width="16px" height="17px" xmlns="http://www.w3.org/2000/svg">
  <g transform="matrix(1 0 0 1 -26 -183 )">
    <path d="M 15.9947762490445 16.5219189416287  C 16.0521169221991 16.244210106121  15.6184779681806 15.8645574991409  15.6184779681806 15.8645574991409  C 15.6184779681806 15.8645574991409  12.2246259213686 14.1736972863942  10.6656759363628 14.0647229156298  L 10.6656759363628 13.5796112579669  C 13.159995916539 12.5390818884169  14.7296972738549 10.0045492293384  14.7296972738549 7.04114970692962  C 14.7296972738549 3.15674110510849  11.6906407424523 0  7.95632836414526 0  C 4.22201598583817 0  1.1829594544356 3.16025640475425  1.1829594544356 7.04114970692962  C 1.1829594544356 10.0397022257963  2.79566634266036 12.598842023268  5.34015941445114 13.6147642748612  L 5.34015941445114 14.0647229156298  L 5.3079052766866 14.0647229156298  C 3.86005286805435 14.1350289494183  0.405276357317689 15.857526879413  0.405276357317689 15.857526879413  C 0.405276357317689 15.857526879413  -0.0462815505509617 16.230148887102  0.00389154106363065 16.5113730426914  C 0.0540646535125369 16.7925971982808  0.312097755628461 17  0.609552577049012 17  L 6.15368046093785 17  L 9.84857111994032 17  L 15.3891152130591 17  C 15.6865700344796 17  15.9374355550555 16.7996277975724  15.9947762490445 16.5219189416287  Z " fill-rule="nonzero" fill="#ffffff" stroke="none" transform="matrix(1 0 0 1 26 183 )" />
  </g>
</svg>