<?xml version="1.0" encoding="utf-8"?>
<svg version="1.1" xmlns:xlink="http://www.w3.org/1999/xlink" width="20px" height="20px" xmlns="http://www.w3.org/2000/svg">
  <g transform="matrix(1 0 0 1 -550 -411 )">
    <path d="M 10 0  C 15.6000000000001 0  20 4.39999999999964  20 10  C 20 15.6000000000004  15.6000000000001 20  10 20  C 4.39999999999986 20  0 15.6000000000004  0 10  C 0 4.39999999999964  4.39999999999986 0  10 0  Z M 9.16666666666652 10.833333333333  C 9.16666666666652 11.3000000000002  9.5333333333333 11.666666666667  10 11.666666666667  C 10.4666666666667 11.666666666667  10.8333333333335 11.3000000000002  10.8333333333335 10.833333333333  L 10.8333333333335 5.83333333333303  C 10.8333333333335 5.36666666666679  10.4666666666667 5  10 5  C 9.5333333333333 5  9.16666666666652 5.36666666666679  9.16666666666652 5.83333333333303  L 9.16666666666652 10.833333333333  Z M 10 13.333333333333  C 9.5333333333333 13.333333333333  9.16666666666652 13.6999999999998  9.16666666666652 14.166666666667  C 9.16666666666652 14.6333333333332  9.5333333333333 15  10 15  C 10.4666666666667 15  10.8333333333335 14.6333333333332  10.8333333333335 14.166666666667  C 10.8333333333335 13.6999999999998  10.4666666666667 13.333333333333  10 13.333333333333  Z " fill-rule="nonzero" fill="#ffffff" stroke="none" transform="matrix(1 0 0 1 550 411 )" />
  </g>
</svg>