<?xml version="1.0" encoding="utf-8"?>
<svg version="1.1" xmlns:xlink="http://www.w3.org/1999/xlink" width="20px" height="20px" xmlns="http://www.w3.org/2000/svg">
  <g transform="matrix(1 0 0 1 -420 -112 )">
    <path d="M 19.7077725130018 18.2923418009583  L 11.4132312599836 9.96627041531065  L 19.7047078164503 1.71127974988417  C 20.0967672484559 1.32090099135746  20.0987565991756 0.688277564049827  19.708686486634 0.295907880713685  C 19.3175948189938 -0.097484134753131  18.6864931191851 -0.098452696149252  18.2944336559239 0.291926062377456  L 10.0009677799932 8.54788528920005  L 1.77954791816965 0.294885548582897  C 1.39049936072671 -0.0954932099438111  0.757354550720692 -0.097484103472425  0.365295087459543 0.292894655054283  C -0.0257965801806961 0.683273413580991  -0.0267643445461943 1.31686540228475  0.363305767995442 1.70928888763626  L 8.58273631035486 9.96024393271102  L 0.295292183549691 18.210230416388  C -0.096767248455933 18.6006091749147  -0.0987565991755588 19.2332326022223  0.291313513365978 19.6256022855584  C 0.486321674270201 19.8217871115853  0.743375461227686 19.9209019036505  1.00042924818518 19.9209019036505  C 1.25549371567858 19.9209019036505  1.51050439243866 19.82383183841  1.70556634407609 19.6296379059102  L 9.99505358107855 11.3776604974238  L 18.2915303628275 19.7057227453195  C 18.4865385237317 19.9019075713462  18.7426245463237 20  18.9996783332813 20  C 19.2557105651401 20  19.5107750326335 19.9019075713462  19.7057831935376 19.7077136701271  C 20.096874861178 19.3173349116021  20.0978426255434 18.6847114842927  19.7077725130018 18.2923418009583  Z " fill-rule="nonzero" fill="#666666" stroke="none" transform="matrix(1 0 0 1 420 112 )" />
  </g>
</svg>