<?xml version="1.0" encoding="utf-8"?>
<svg version="1.1" xmlns:xlink="http://www.w3.org/1999/xlink" width="46px" height="31px" xmlns="http://www.w3.org/2000/svg">
  <g transform="matrix(1 0 0 1 -165 -298 )">
    <path d="M 43.7638888888888 31  L 23.9583333333334 31  L 12.4826415869259 31  L 1.5972222222224 31  C 1.16464120370381 31  0.790292245370779 30.7777022946846  0.474175347222172 30.3331068840606  C 0.158058449073792 29.8885114734298  0 29.3620169082113  0 28.7536231884084  C 0 28.1452294685988  0.158058449073792 27.6187349033802  0.474175347222172 27.1741394927562  L 11.6547309027778 11.4495018115949  C 11.9708478009262 11.0049064009676  12.3451967592596 10.7826086956522  12.7777777777776 10.7826086956522  C 13.210358796296 10.7826086956522  13.5847077546292 11.0049064009676  13.9008246527778 11.4495018115949  L 16.9686681815716 15.7642090191388  L 26.5388454861112 1.02256944444406  C 26.9814091435193 0.340856481480159  27.505497685186 0  28.1111111111112 0  C 28.7167245370362 0  29.2408130787028 0.340856481480159  29.6833767361112 1.02256944444406  L 45.3361545138888 25.1336805555559  C 45.7787181712972 25.8153935185164  46 26.6226851851843  46 27.5555555555559  C 46 28.4884259259243  45.7787181712972 29.2957175925921  45.3361545138888 29.9774305555559  C 44.8935908564807 30.6591435185164  44.3695023148138 31  43.7638888888888 31  Z " fill-rule="nonzero" fill="#ffffff" stroke="none" transform="matrix(1 0 0 1 165 298 )" />
  </g>
</svg>