<?xml version="1.0" encoding="utf-8"?>
<svg version="1.1" xmlns:xlink="http://www.w3.org/1999/xlink" width="39px" height="25px" xmlns="http://www.w3.org/2000/svg">
  <g transform="matrix(1 0 0 1 -308 -40 )">
    <path d="M 37.1041666666667 25  L 20.3125 25  L 10.5831091715242 25  L 1.35416666666674 25  C 0.987413194444599 25  0.670030381944699 24.8207276570038  0.402018229166686 24.4621829710165  C 0.134006076388644 24.1036382850241  0 23.6790458937188  0 23.1884057971035  C 0 22.6977657004829  0.134006076388644 22.2731733091777  0.402018229166686 21.9146286231905  L 9.88118489583334 9.23346920289919  C 10.1491970486114 8.87492451690935  10.4665798611114 8.69565217391312  10.8333333333332 8.69565217391312  C 11.2000868055553 8.69565217391312  11.5174696180553 8.87492451690935  11.7854817708333 9.23346920289919  L 14.3864795452456 12.7130717896281  L 22.5003255208333 0.824652777777487  C 22.875542534723 0.274884259258215  23.319878472223 0  23.8333333333333 0  C 24.3467881944437 0  24.7911241319437 0.274884259258215  25.1663411458333 0.824652777777487  L 38.4371744791666 20.2690972222225  C 38.8123914930564 20.8188657407391  39 21.4699074074067  39 22.2222222222225  C 39 22.9745370370358  38.8123914930564 23.6255787037032  38.4371744791666 24.1753472222225  C 38.0619574652771 24.7251157407391  37.6176215277769 25  37.1041666666667 25  Z " fill-rule="nonzero" fill="#cccccc" stroke="none" transform="matrix(1 0 0 1 308 40 )" />
  </g>
</svg>