<?xml version="1.0" encoding="utf-8"?>
<svg version="1.1" xmlns:xlink="http://www.w3.org/1999/xlink" width="15px" height="13px" xmlns="http://www.w3.org/2000/svg">
  <g transform="matrix(1 0 0 1 -233 -74 )">
    <path d="M 7.48122522949219 12.1111606396484  C 3.34945656738281 12.1111606396484  0.000742001953124294 7.90586682617188  0.000742001953124294 6.5  C 0.000742001953124294 4.64343375488281  3.34945656738281 0.889049228515625  7.48122522949219 0.889049228515625  C 11.6134735693359 0.889049228515625  14.9621731494141 5.08361032226563  14.9621731494141 6.5  C 14.9621731494141 7.97940696289063  11.6134735693359 12.1111606396484  7.48122522949219 12.1111606396484  Z M 7.48122522949219 1.82417521484375  C 3.86587144042969 1.82417521484375  0.934953603515625 4.95327368164063  0.934953603515625 6.500015  C 0.934953603515625 7.67166561523438  3.86588642578125 11.1760646386719  7.48122522949219 11.1760646386719  C 11.0966090039063 11.1760646386719  14.0270771484375 7.61229088378906  14.0270771484375 6.500015  C 14.0270621484375 5.3580292578125  11.0966090039063 1.82417521484375  7.48122522949219 1.82417521484375  Z M 7.48122522949219 9.30581266601563  C 5.93154591796875 9.30581266601563  4.67542756347656 8.04973928222656  4.67542756347656 6.500015  C 4.67542756347656 4.95120508789063  5.93154591796875 3.69463704101563  7.48122522949219 3.69463704101563  C 9.03002014160156 3.69463704101563  10.286573203125 4.95120508789063  10.286573203125 6.500015  C 10.286573203125 8.04973928222656  9.03002014160156 9.30581266601563  7.48122522949219 9.30581266601563  Z M 7.48122522949219 4.62976302734375  C 6.44794579101562 4.62976302734375  5.61101822753906 5.46694541503906  5.61101822753906 6.500015  C 5.61101822753906 7.53329443847656  6.44794579101562 8.37023698730469  7.48122522949219 8.37023698730469  C 8.51405497558594 8.37023698730469  9.35147720214844 7.53329443847656  9.35147720214844 6.500015  C 9.35146220214844 5.46693041503906  8.51405497558594 4.62976302734375  7.48122522949219 4.62976302734375  Z " fill-rule="nonzero" fill="#999999" stroke="none" transform="matrix(1 0 0 1 233 74 )" />
  </g>
</svg>