<?xml version="1.0" encoding="utf-8"?>
<svg version="1.1" xmlns:xlink="http://www.w3.org/1999/xlink" width="18px" height="10px" xmlns="http://www.w3.org/2000/svg">
  <g transform="matrix(1 0 0 1 -149 -27 )">
    <path d="M 17.316548503418 1.55488562199519  C 17.5907682202148 1.27138618539663  17.5886893652344 0.81491062950721  17.3130333618164 0.534357466947117  C 17.036697019043 0.254540850360577  16.5923136914062 0.255975225360576  16.3188121508789 0.53869930889423  L 9.11531968505858 7.99469932391827  L 1.81124848388671 0.570449076021635  C 1.5349121411133 0.289934675480769  1.09052881347657 0.292066834435094  0.816309118652356 0.574790917968748  C 0.542807578125007 0.858212807992789  0.544886433105461 1.31468836388221  0.820542414550772 1.59524154897836  L 8.5837378930664 9.48538762770433  C 8.59568185546874 9.49763784555289  8.61114095947266 9.50054533503606  8.62312271484376 9.512058984375  C 8.6259197241211 9.51492771183894  8.62663785644531 9.51853298527644  8.62943486572266 9.52144047475961  C 8.76652580566406 9.66061221454327  8.94583639160157 9.73058574969951  9.1244288232422 9.73058574969951  C 9.30513790283203 9.73058574969951  9.48652732177734 9.65917786207933  9.62365607666015 9.51713739483173  L 17.316548503418 1.55488562199519  Z " fill-rule="nonzero" fill="#999999" stroke="none" transform="matrix(1 0 0 1 149 27 )" />
  </g>
</svg>