<?xml version="1.0" encoding="utf-8"?>
<svg version="1.1" xmlns:xlink="http://www.w3.org/1999/xlink" width="18px" height="10px" xmlns="http://www.w3.org/2000/svg">
  <g transform="matrix(1 0 0 1 -137 -28 )">
    <path d="M 17.2511969238281 9.54331770582932  C 17.5246984643555 9.26059359975962  17.5225818164062 8.8040792593149  17.246963605957 8.52356485877404  L 9.48233184082031 0.632682234074519  C 9.4710682397461 0.621129822716348  9.45560911376953 0.617524526742788  9.44366517333984 0.606708683894229  C 9.44086816406249 0.603839956430289  9.44015003173828 0.599498114483172  9.43735302246094 0.596629387019231  C 9.16101667968749 0.316812770432691  8.71595301269531 0.318247145432693  8.44241365722655 0.600971228966344  L 0.749521230468758 8.56395954777644  C 0.47601968994141 8.84738143780048  0.478098544921863 9.30315920973558  0.753754526367175 9.58367361027644  C 0.890845466308605 9.7228453500601  1.07015605224609 9.79281888521635  1.24874848388671 9.79281888521635  C 1.42945756347657 9.79281888521635  1.61084698242186 9.72141099759615  1.7479757373047 9.57937053034856  L 8.9515060180664 2.1240683218149  L 16.2569757128906 9.54762078575721  C 16.394066652832 9.68679252554087  16.5726968774414 9.75676606069712  16.7519696704101 9.75676606069712  C 16.9333591113281 9.75676606069712  17.1140681689453 9.68535817307693  17.2511969238281 9.54331770582932  Z " fill-rule="nonzero" fill="#999999" stroke="none" transform="matrix(1 0 0 1 137 28 )" />
  </g>
</svg>