<?xml version="1.0" encoding="utf-8"?>
<svg version="1.1" xmlns:xlink="http://www.w3.org/1999/xlink" width="50px" height="57px" xmlns="http://www.w3.org/2000/svg">
  <g transform="matrix(1 0 0 1 -270 -450 )">
    <path d="M 49.8484848484849 40.9022556390978  C 50.4545454545454 35.5639097744361  44.2424242424242 18.7218045112782  44.0151515151515 17.9699248120301  C 43.4090909090909 16.2406015037594  41.5909090909091 15.1127819548872  39.5454545454546 15.1127819548872  C 38.939393939394 15.1127819548872  38.4090909090909 15.187969924812  37.8787878787879 15.4135338345865  C 37.3484848484849 15.5639097744361  36.8181818181818 15.9398496240602  36.2121212121212 16.390977443609  C 35.3787878787879 14.5112781954887  33.4848484848485 13.3082706766917  31.3636363636364 13.3082706766917  C 30.7575757575758 13.3082706766917  30.1515151515152 13.3834586466166  29.5454545454545 13.609022556391  C 28.3333333333333 14.0601503759398  27.4242424242424 14.8872180451128  26.8181818181818 15.8646616541353  C 25.8333333333333 14.7368421052632  24.3181818181818 13.984962406015  22.7272727272727 13.984962406015  C 22.1212121212121 13.984962406015  21.5151515151515 14.0601503759398  20.9090909090909 14.2857142857143  C 19.6969696969697 14.7368421052632  18.4848484848485 15.5639097744361  17.7272727272727 16.6917293233083  L 13.030303030303 3.90977443609023  C 12.1969696969697 1.50375939849624  10.3787878787879 0  8.18181818181819 0  C 7.65151515151516 0  7.04545454545456 0.0751879699247979  6.5151515151515 0.300751879699249  C 3.71212121212119 1.35338345864665  2.5 4.28571428571428  3.63636363636363 7.36842105263162  L 14.6212121212121 37.218045112782  L 8.93939393939394 34.4360902255639  C 8.10606060606059 33.984962406015  7.27272727272728 33.8345864661654  6.36363636363637 33.8345864661654  C 4.01515151515153 33.8345864661654  1.81818181818181 35.2631578947369  0.757575757575751 37.3684210526316  C 0.0757575757575637 38.8721804511278  0 40.5263157894737  0.530303030303031 42.1052631578947  C 1.06060606060606 43.6842105263158  2.27272727272725 44.8872180451128  3.71212121212119 45.5639097744361  C 3.78787878787878 45.5639097744361  9.01515151515153 48.3458646616542  16.2121212121212 51.7293233082707  L 17.3484848484848 52.2556390977444  C 21.969696969697 54.4360902255639  26.3636363636364 56.4661654135339  31.4393939393939 56.4661654135339  C 33.8636363636364 56.4661654135339  36.2878787878788 56.015037593985  38.8636363636363 55.1127819548873  C 47.8787878787879 51.8796992481203  49.2424242424242 46.3157894736843  49.8484848484849 40.9022556390978  Z M 41.8939393939394 18.7218045112782  C 43.5606060606061 23.4586466165413  48.030303030303 36.6917293233083  47.5757575757576 40.5263157894737  C 46.9696969696969 45.6390977443609  45.8333333333334 50.0751879699249  38.1060606060606 52.9323308270677  C 35.8333333333334 53.7593984962406  33.6363636363637 54.1353383458646  31.5151515151515 54.1353383458646  C 26.969696969697 54.1353383458646  22.9545454545455 52.2556390977444  18.4090909090909 50.1503759398497  L 17.1212121212121 49.624060150376  C 10 46.3157894736843  4.77272727272728 43.5338345864662  4.69696969696969 43.5338345864662  C 3.71212121212119 43.0827067669173  3.03030303030303 42.3308270676692  2.65151515151516 41.3533834586466  C 2.27272727272725 40.3759398496241  2.34848484848487 39.3233082706767  2.80303030303031 38.3458646616542  C 3.48484848484847 36.9924812030076  4.77272727272728 36.0902255639098  6.36363636363637 36.0902255639098  C 6.969696969697 36.0902255639098  7.5 36.2406015037594  8.03030303030303 36.4661654135339  L 16.2121212121212 40.5263157894737  C 16.5909090909091 40.7518796992482  17.1212121212121 40.6766917293234  17.5 40.3759398496241  C 17.8787878787879 40.0751879699249  17.9545454545454 39.5488721804512  17.8030303030303 39.1729323308271  L 5.75757575757578 6.61654135338347  C 5.22727272727272 5.11278195488723  5.30303030303028 3.15789473684208  7.27272727272728 2.48120300751884  C 7.57575757575759 2.33082706766919  7.87878787878788 2.25563909774439  8.18181818181819 2.25563909774439  C 9.31818181818181 2.25563909774439  10.3787878787879 3.15789473684208  10.9090909090909 4.73684210526312  L 18.1818181818182 24.5112781954887  C 18.4090909090909 25.1127819548872  19.0151515151515 25.4135338345865  19.6212121212121 25.187969924812  C 20.2272727272727 24.9624060150376  20.530303030303 24.3609022556391  20.3030303030303 23.7593984962406  L 19.2424242424242 20.9022556390977  C 18.4090909090909 18.5714285714286  20.2272727272727 16.9172932330827  21.6666666666667 16.4661654135338  C 21.969696969697 16.3157894736842  22.3484848484848 16.3157894736842  22.7272727272727 16.3157894736842  C 24.0151515151515 16.3157894736842  25.1515151515152 17.1428571428572  25.6060606060606 18.2706766917294  L 27.0454545454546 22.1052631578947  C 27.2727272727273 22.7067669172932  27.8787878787879 23.0075187969925  28.4848484848485 22.7819548872181  C 29.0909090909091 22.5563909774436  29.3939393939394 21.9548872180451  29.1666666666666 21.3533834586466  L 28.4848484848485 19.5488721804511  C 27.9545454545454 17.9699248120301  28.7878787878788 16.3157894736842  30.3030303030303 15.7142857142857  C 30.6060606060606 15.5639097744361  30.9848484848485 15.5639097744361  31.3636363636364 15.5639097744361  C 32.6515151515151 15.5639097744361  33.7878787878788 16.390977443609  34.2424242424242 17.5187969924812  L 35.9090909090909 22.0300751879699  L 35.9090909090909 22.1052631578947  C 36.1363636363636 22.7067669172932  36.7424242424242 23.0075187969925  37.3484848484849 22.7819548872181  C 37.9545454545454 22.5563909774436  38.2575757575758 21.9548872180451  38.030303030303 21.3533834586466  L 37.0454545454546 18.6466165413534  C 37.4242424242424 18.2706766917294  38.1060606060606 17.7443609022557  38.6363636363636 17.5187969924812  C 38.939393939394 17.4436090225564  39.2424242424242 17.3684210526316  39.5454545454546 17.3684210526316  C 40.6060606060606 17.3684210526316  41.5909090909091 17.9699248120301  41.8939393939394 18.7218045112782  Z " fill-rule="nonzero" fill="#666666" stroke="none" transform="matrix(1 0 0 1 270 450 )" />
  </g>
</svg>