<?xml version="1.0" encoding="utf-8"?>
<svg version="1.1" xmlns:xlink="http://www.w3.org/1999/xlink" width="170px" height="170px" xmlns="http://www.w3.org/2000/svg">
  <g transform="matrix(1 0 0 1 -87 -78 )">
    <path d="M 172 78  C 219.6 78  257 115.4  257 163  C 257 210.6  219.6 248  172 248  C 124.4 248  87 210.6  87 163  C 87 115.4  124.4 78  172 78  Z " fill-rule="nonzero" fill="#ffffff" stroke="none" />
    <path d="M 172 78.5  C 219.32 78.5  256.5 115.68  256.5 163  C 256.5 210.32  219.32 247.5  172 247.5  C 124.68 247.5  87.5 210.32  87.5 163  C 87.5 115.68  124.68 78.5  172 78.5  Z " stroke-width="1" stroke="#797979" fill="none" />
  </g>
</svg>