<?xml version="1.0" encoding="utf-8"?>
<svg version="1.1" xmlns:xlink="http://www.w3.org/1999/xlink" width="32px" height="30px" xmlns="http://www.w3.org/2000/svg">
  <g transform="matrix(1 0 0 1 -316 -12 )">
    <path d="M 16.1692671598703 24.7184957983893  C 16.1692671598703 24.7184957983893  6.88579785656043 30.3064536251527  6.19919303905863 29.7993112341524  C 5.68423942593199 29.2921688431522  8.09212437619976 18.9614905079591  8.09212437619976 18.9614905079591  C 8.09212437619976 18.9614905079591  -0.333088905232444 12.1902004355279  0.0102135035185711 11.3449631171941  C 0.353515912269813 10.49972579886  11.0149629395942 9.81884018131314  11.0149629395942 9.81884018131314  C 11.0149629395942 9.81884018131314  14.9677087292416 0  15.9976159554947 0  C 17.0275231817479 0  20.9850370604061 9.81884018131314  20.9850370604061 9.81884018131314  C 20.9850370604061 9.81884018131314  31.8181352921058 10.4950300359803  31.9897864964814 11.3449631171941  C 32.3330889052324 12.1902004355279  23.9078756238005 18.9661862708385  23.9078756238005 18.9661862708385  C 23.9078756238005 18.9661862708385  24.0795268281759 19.6423761255057  24.0795268281759 20.1495185165061  C 24.0795268281759 20.1495185165061  20.1267810385282 20.3185659801729  17.0322912707584 20.1495185165061  C 15.3110111379926 20.1495185165061  13.4228478898619 19.8114235891726  13.4228478898619 19.8114235891726  L 22.7063171931718 13.3782284440751  C 22.7063171931718 13.3782284440751  19.4401762210262 12.8710860530746  16.0023840445053 12.7020385894079  C 12.3929406636087 12.5329911257411  8.61184607833684 12.8710860530746  7.92047317182437 13.0401335167414  C 7.5771707630729 13.2091809804083  10.3283581220921 13.0401335167414  13.4228478898619 13.3782284440751  C 15.6590816357541 13.5472759077418  18.4102689947731 14.0544182987423  18.4102689947731 14.0544182987423  L 9.12203160245281 20.8257083711735  C 9.12203160245281 20.8257083711735  13.0747773921003 20.9947558348401  16.6842207729969 20.9947558348401  C 20.6369665626444 20.9947558348401  24.246409943541 20.4876134438398  24.246409943541 20.6566609075069  C 24.9330147610431 23.5351635527218  26.1393412806819 29.4612163068189  25.7960388719312 29.9683586978194  C 25.4527364631801 30.4755010888196  16.1692671598703 24.7184957983893  16.1692671598703 24.7184957983893  Z " fill-rule="nonzero" fill="#ffffff" stroke="none" transform="matrix(1 0 0 1 316 12 )" />
  </g>
</svg>