<?xml version="1.0" encoding="utf-8"?>
<svg version="1.1" xmlns:xlink="http://www.w3.org/1999/xlink" width="41px" height="30px" xmlns="http://www.w3.org/2000/svg">
  <g transform="matrix(1 0 0 1 -388 -13 )">
    <path d="M 41 24.25  C 40.1357255766145 26.3158850337154  39.3515876882564 28.2625163400648  38 30  C 37.9473414690583 29.9669946061799  24.7859657221998 22.7298547651801  21.00276992325 20.9027106342343  C 17.6075942062438 25.0378262990065  14.0184084482659 27.441963313409  8.68313232154185 27.441963313409  C 3.25085117433207 27.441963313409  -0.241329563159979 24.1723369738216  0.146690518783544 20.1333867896255  C 0.4377055802413 17.5369188140708  2.28080096947303 13.2094721881463  10.1382076288303 13.9787960327551  C 14.2124184892378 14.3634579550595  16.1525188989556 15.1327817996683  19.5476946159616 16.2867675665815  C 20.4207398003348 14.7481198773639  21.0997749437361 12.920975746418  21.6818050666512 11.3428357089272  L 6.64602689133824 11.3428357089272  L 6.64602689133824 9.65134940683061  L 14.1154134687517 9.65134940683061  L 14.1154134687517 6.95871595069983  L 5.09394656356403 6.95871595069983  L 5.09394656356403 5.32390278090618  L 14.1154134687517 5.32390278090618  L 14.1154134687517 1.47728355786216  C 14.1154134687517 1.47728355786216  14.2124184892378 0.900290674405568  14.8914536326389 0.900290674405568  L 18.5776444111028 0.900290674405568  L 18.5776444111028 5.67141785446362  L 28.2781464596918 5.67141785446362  L 28.2781464596918 7.56189047261814  L 18.5776444111028 7.56189047261814  L 18.5776444111028 9.55518392625451  L 26.4350510704598 9.55518392625451  C 25.7560159270588 12.5363138241136  24.5919556812281 15.2289472802444  23.2338853944256 17.5369188140707  C 24.8833270526699 18.1728168569816  37.3439817363333 22.998431198381  41 24.25  Z M 6.84003693230989 16.5752640083098  C 3.73587627676147 16.5752640083098  2.08679092850139 18.4985736198318  1.79577586704363 19.9410558284733  C 1.50476080558587 21.3835380371148  2.37780598995914 24.9416608184304  8.00409717814057 24.9416608184304  C 11.4962779156326 24.9416608184304  14.8914536326389 22.9221857263323  17.6075942062438 19.3640629450167  C 13.7273933868082 17.4407533334947  10.429222690288 16.5752640083098  6.84003693230989 16.5752640083098  Z " fill-rule="nonzero" fill="#ffffff" stroke="none" transform="matrix(1 0 0 1 388 13 )" />
  </g>
</svg>