<?xml version="1.0" encoding="utf-8"?>
<svg version="1.1" xmlns:xlink="http://www.w3.org/1999/xlink" width="132px" height="87px" xmlns="http://www.w3.org/2000/svg">
  <g transform="matrix(1 0 0 1 -122 -145 )">
    <path d="M 125.583333333333 87  L 68.7499999999999 87  L 35.8197541190051 87  L 4.58333333333383 87  C 3.34201388888931 87  2.26779513888988 86.3761322463732  1.36067708333354 85.1283967391379  C 0.453559027776748 83.8806612318837  0 82.4030797101414  0 80.6956521739206  C 0 78.9882246376801  0.453559027776748 77.5106431159383  1.36067708333354 76.2629076087029  L 33.4440104166665 32.132472826089  C 34.3511284722233 30.8847373188446  35.4253472222232 30.2608695652174  36.6666666666661 30.2608695652174  C 37.9079861111103 30.2608695652174  38.9822048611102 30.8847373188446  39.8893229166665 32.132472826089  L 48.6926999992927 44.2414898279059  L 76.1549479166669 2.86979166666572  C 77.4249131944468 0.956597222218647  78.928819444447 0  80.6666666666669 0  C 82.4045138888866 0  83.9084201388864 0.956597222218647  85.1783854166669 2.86979166666572  L 130.095052083333 70.5364583333343  C 131.365017361114 72.4496527777721  132 74.7152777777749  132 77.3333333333345  C 132 79.9513888888844  131.365017361114 82.2170138888876  130.095052083333 84.1302083333343  C 128.825086805553 86.0434027777719  127.321180555553 87  125.583333333333 87  Z " fill-rule="nonzero" fill="#c9c9c9" stroke="none" transform="matrix(1 0 0 1 122 145 )" />
  </g>
</svg>