<?xml version="1.0" encoding="utf-8"?>
<svg version="1.1" xmlns:xlink="http://www.w3.org/1999/xlink" width="22px" height="20px" xmlns="http://www.w3.org/2000/svg">
  <defs>
    <mask fill="white" id="clip546">
      <path d="M 12.4183006535947 0  C 12.2875816993463 0  12.1568627450981 0  12.0261437908497 0.069204152249057  C 11.6339869281046 0.207612456747484  11.3725490196078 0.622837370242195  11.3725490196078 1.03806228373716  L 11.3725490196078 5.39792387543241  C 6.66666666666663 6.64359861591709  3.98692810457521 9.61937716262983  2.61437908496737 11.9723183391004  C 1.04575163398704 14.6712802768167  0.653594771241842 17.0934256055363  0.653594771241842 17.2318339100347  C 0.588235294117567 17.6470588235294  0.784313725490279 18.1314878892734  1.17647058823525 18.3391003460207  C 1.30718954248357 18.40830449827  1.50326797385628 18.4775086505191  1.69934640522877 18.4775086505191  C 1.96078431372553 18.4775086505191  2.15686274509812 18.40830449827  2.35294117647061 18.2006920415225  C 5.55555555555554 15.3633217993079  9.0849673202614 14.6712802768167  11.437908496732 14.6712802768167  L 11.437908496732 18.2698961937716  C 11.437908496732 18.6851211072666  11.6993464052287 19.1003460207613  12.0915032679738 19.2387543252597  C 12.1568627450981 19.3771626297578  12.2875816993463 19.3771626297578  12.4183006535947 19.3771626297578  C 12.6797385620914 19.3771626297578  12.9411764705882 19.2387543252597  13.1372549019608 19.0311418685122  L 21.3071895424836 10.3806228373702  C 21.5032679738562 10.1730103806229  21.6339869281046 9.89619377162637  21.6339869281046 9.61937716262983  C 21.6339869281046 9.34256055363329  21.5032679738562 9.06574394463672  21.3071895424836 8.85813148788924  L 13.1372549019608 0.346020761245626  C 12.9411764705882 0.138408304498142  12.6797385620914 0  12.4183006535947 0  Z " fill-rule="evenodd" />
    </mask>
  </defs>
  <g transform="matrix(1 0 0 1 -737 -849 )">
    <path d="M 12.4183006535947 0  C 12.2875816993463 0  12.1568627450981 0  12.0261437908497 0.069204152249057  C 11.6339869281046 0.207612456747484  11.3725490196078 0.622837370242195  11.3725490196078 1.03806228373716  L 11.3725490196078 5.39792387543241  C 6.66666666666663 6.64359861591709  3.98692810457521 9.61937716262983  2.61437908496737 11.9723183391004  C 1.04575163398704 14.6712802768167  0.653594771241842 17.0934256055363  0.653594771241842 17.2318339100347  C 0.588235294117567 17.6470588235294  0.784313725490279 18.1314878892734  1.17647058823525 18.3391003460207  C 1.30718954248357 18.40830449827  1.50326797385628 18.4775086505191  1.69934640522877 18.4775086505191  C 1.96078431372553 18.4775086505191  2.15686274509812 18.40830449827  2.35294117647061 18.2006920415225  C 5.55555555555554 15.3633217993079  9.0849673202614 14.6712802768167  11.437908496732 14.6712802768167  L 11.437908496732 18.2698961937716  C 11.437908496732 18.6851211072666  11.6993464052287 19.1003460207613  12.0915032679738 19.2387543252597  C 12.1568627450981 19.3771626297578  12.2875816993463 19.3771626297578  12.4183006535947 19.3771626297578  C 12.6797385620914 19.3771626297578  12.9411764705882 19.2387543252597  13.1372549019608 19.0311418685122  L 21.3071895424836 10.3806228373702  C 21.5032679738562 10.1730103806229  21.6339869281046 9.89619377162637  21.6339869281046 9.61937716262983  C 21.6339869281046 9.34256055363329  21.5032679738562 9.06574394463672  21.3071895424836 8.85813148788924  L 13.1372549019608 0.346020761245626  C 12.9411764705882 0.138408304498142  12.6797385620914 0  12.4183006535947 0  Z " fill-rule="nonzero" fill="#ffffff" stroke="none" fill-opacity="0" transform="matrix(1 0 0 1 737 849 )" />
    <path d="M 12.4183006535947 0  C 12.2875816993463 0  12.1568627450981 0  12.0261437908497 0.069204152249057  C 11.6339869281046 0.207612456747484  11.3725490196078 0.622837370242195  11.3725490196078 1.03806228373716  L 11.3725490196078 5.39792387543241  C 6.66666666666663 6.64359861591709  3.98692810457521 9.61937716262983  2.61437908496737 11.9723183391004  C 1.04575163398704 14.6712802768167  0.653594771241842 17.0934256055363  0.653594771241842 17.2318339100347  C 0.588235294117567 17.6470588235294  0.784313725490279 18.1314878892734  1.17647058823525 18.3391003460207  C 1.30718954248357 18.40830449827  1.50326797385628 18.4775086505191  1.69934640522877 18.4775086505191  C 1.96078431372553 18.4775086505191  2.15686274509812 18.40830449827  2.35294117647061 18.2006920415225  C 5.55555555555554 15.3633217993079  9.0849673202614 14.6712802768167  11.437908496732 14.6712802768167  L 11.437908496732 18.2698961937716  C 11.437908496732 18.6851211072666  11.6993464052287 19.1003460207613  12.0915032679738 19.2387543252597  C 12.1568627450981 19.3771626297578  12.2875816993463 19.3771626297578  12.4183006535947 19.3771626297578  C 12.6797385620914 19.3771626297578  12.9411764705882 19.2387543252597  13.1372549019608 19.0311418685122  L 21.3071895424836 10.3806228373702  C 21.5032679738562 10.1730103806229  21.6339869281046 9.89619377162637  21.6339869281046 9.61937716262983  C 21.6339869281046 9.34256055363329  21.5032679738562 9.06574394463672  21.3071895424836 8.85813148788924  L 13.1372549019608 0.346020761245626  C 12.9411764705882 0.138408304498142  12.6797385620914 0  12.4183006535947 0  Z " stroke-width="4" stroke="#999999" fill="none" transform="matrix(1 0 0 1 737 849 )" mask="url(#clip546)" />
  </g>
</svg>