<?xml version="1.0" encoding="utf-8"?>
<svg version="1.1" xmlns:xlink="http://www.w3.org/1999/xlink" width="33px" height="32px" xmlns="http://www.w3.org/2000/svg">
  <g transform="matrix(1 0 0 1 -99 -11 )">
    <path d="M 10.3277011316075 1.01689660517752  C 10.4963571539296 1.01689660517752  12.6988063866067 0  15.9181522244613 0  C 19.1374980623159 0  21.3349868237483 0.848240582855397  21 0.848240582855397  L 21 11.8555262749961  L 10.3277011316075 1.01689660517752  Z M 22.68919547357 1.35420864982177  C 22.68919547357 1.5228646721439  25.0603007285692 2.37110525499918  27.2577894900015 4.57355448767635  C 29.6288947450008 6.94465974267553  30.4771353278561 8.9734924817858  30.4771353278561 8.9734924817858  L 22.68919547357 16.7614323360719  L 22.68919547357 1.35420864982177  Z M 20.1494341962486 21  L 30.9880638660673 10.3277011316075  C 30.9880638660673 10.3277011316075  32.0049604712448 12.5301503642846  32.0049604712448 15.7445357308944  C 32 19.3011936133933  31.1567198883894 21.3349868237483  31.1567198883894 21  L 20.1494341962486 21  Z M 21.5086033173152 30.9880638660673  C 21.5036428460704 30.9831033948225  19.3011936133933 32  15.9181522244613 32  C 12.6988063866067 32  10.5013176251744 31.1517594171446  11 31.1517594171446  L 11 20.1494341962486  L 21.5086033173152 30.9880638660673  Z M 9.31080452643005 15.0699116416059  L 9.31080452643005 30.4771353278561  C 9.31080452643005 30.4771353278561  6.93969927143075 29.6288947450008  4.74221050999847 27.2577894900015  C 2.37110525499918 24.8866842350023  1.5228646721439 22.8578514958921  1.5228646721439 22.8578514958921  L 9.31080452643005 15.0699116416059  Z M 4.74221050999847 4.57355448767635  C 6.94465974267553 2.37110525499918  9.14214850410792 1.35420864982177  9.14214850410792 1.35420864982177  L 16.9300883583941 9  L 1.5228646721439 9  C 1.5228646721439 9.14214850410792  2.37110525499918 6.93969927143075  4.74221050999847 4.57355448767635  Z M 27.2577894900015 27.2577894900015  C 24.8866842350023 29.6288947450008  22.8578514958921 30.4771353278561  22.8578514958921 30.4771353278561  L 15.0699116416059 22.68919547357  L 30.4771353278561 22.68919547357  C 30.4771353278561 22.68919547357  29.6288947450008 24.8916447062471  27.2577894900015 27.2577894900015  Z M 0.848240582855397 11  L 11.8555262749961 11  L 1.01689660517752 21.5036428460704  C 1.01689660517752 21.3349868237483  0 19.3011936133933  0 15.9181522244613  C 0 12.6988063866067  0.848240582855397 10.4963571539296  0.848240582855397 11  Z " fill-rule="nonzero" fill="#ffffff" stroke="none" transform="matrix(1 0 0 1 99 11 )" />
  </g>
</svg>