<?xml version="1.0" encoding="utf-8"?>
<svg version="1.1" xmlns:xlink="http://www.w3.org/1999/xlink" width="32px" height="27px" xmlns="http://www.w3.org/2000/svg">
  <g transform="matrix(1 0 0 1 -27 -13 )">
    <path d="M 12.0637124116292 17.4293112057385  C 12.0637740298325 12.3113154197276  16.3235150266325 8.15834211092829  21.7171866344443 8.15834211092829  C 22.0851705456068 8.15834211092829  22.4493276420274 8.18552669101473  22.8103746407041 8.22722711408687  C 21.827898330775 3.50705845041671  16.9371674719937 0  11.354253389052 0  C 5.1125109884108 0  0 4.38888754627533  0 9.96280059621972  C 0 13.1813424459206  1.70094131940391 15.8221517370716  4.54342796254355 17.8719172609592  L 3.40781420165831 21.3958941304941  L 7.37706428582578 19.3425147037883  C 8.79726982712646 19.6320987443173  9.93690174349126 19.9307811198116  11.3541917708483 19.9307811198116  C 11.7105071401108 19.9307811198116  12.0636799809959 19.9124238319789  12.4141935099412 19.8840981955398  C 12.1924458109454 19.1013502686073  12.0637124116292 18.2811147923512  12.0637124116292 17.4293112057385  Z M 13.776708197471 6.55535870773974  C 13.776708197471 5.55505383116451  14.5626483828162 4.74411411604569  15.5321297379382 4.74411411604569  C 16.5016110930603 4.74411411604569  17.2874864171388 5.55502036910138  17.2874864171388 6.55535870773974  C 17.2874864171388 7.5556970463781  16.5016078499968 8.36656983737089  15.5321297379382 8.36656983737089  C 14.5625835215494 8.36656983737089  13.776708197471 7.5556635843152  13.776708197471 6.55535870773974  Z M 9.34340817985708 6.59187585723316  C 9.34340817985708 7.59214727174503  8.55750042514546 8.40308698686385  7.5879542087564 8.40308698686385  C 6.61847285363433 8.40308698686385  5.83253266828933 7.59218073380816  5.83253266828933 6.59187585723316  C 5.83253266828933 5.59157098065793  6.6184760966978 4.78066472760224  7.5879542087564 4.78066472760224  C 8.55750042514546 4.78066472760224  9.34340817985708 5.59157098065793  9.34340817985708 6.59187585723316  Z M 28.0229698068777 24.0723137492273  C 30.3021395907701 22.3081536265627  32 19.9688007159393  32 17.326689750533  C 32 12.6429679660234  27.457707109626 8.82506033395907  22.3558236397832 8.82506033395907  C 16.9534346777116 8.82506033395907  12.6986847553928 12.6429679660234  12.6986847553928 17.326689750533  C 12.6986847553928 22.0185026619072  16.9534346777116 25.828084932665  22.3558236397832 25.828084932665  C 23.4863814649202 25.828084932665  24.6269863002869 25.5336187771252  25.7626000611724 25.2399189028311  L 28.8771018850914 27  L 28.0229698068777 24.0723137492273  Z M 20.6389686085658 14.7238665934469  C 20.6390367128959 15.4361936085229  20.0793164108936 16.0136919326312  19.3889493022043 16.0136919326312  C 18.6985530059449 16.0136919326312  18.1389299958428 15.4361601464598  18.1389299958428 14.7238665934469  C 18.1389299958428 14.0115061163074  18.698585436578 13.4341081783887  19.3889493022043 13.4341081783887  C 20.0793131678304 13.4341081783887  20.6389686085658 14.0115395783705  20.6389686085658 14.7238665934469  Z M 26.8807758704736 14.7970983186058  C 26.8808115441705 15.5093584095557  26.3211236728016 16.0868567336638  25.6307565641123 16.0868567336638  C 24.9402954065858 16.0868567336638  24.3807048271174 15.5093584095557  24.3807048271174 14.7970983186058  C 24.3807048271174 14.0847043794035  24.9403278372192 13.5073399035475  25.6307565641123 13.5073399035475  C 26.3211204297384 13.5073399035475  26.8807758704736 14.0847378414664  26.8807758704736 14.7970983186058  Z " fill-rule="nonzero" fill="#ffffff" stroke="none" transform="matrix(1 0 0 1 27 13 )" />
  </g>
</svg>