<?xml version="1.0" encoding="utf-8"?>
<svg version="1.1" xmlns:xlink="http://www.w3.org/1999/xlink" width="32px" height="26px" xmlns="http://www.w3.org/2000/svg">
  <g transform="matrix(1 0 0 1 -171 -15 )">
    <path d="M 12.0548648004969 19.921875289901  C 12.2893652862067 19.5368072221374  12.3532820538653 19.1303285849672  12.2467113492692 18.7023750050032  C 12.1401085522941 18.2745180165821  11.8737298666922 17.9749311985918  11.4475111390457 17.803807702654  C 11.0426193641972 17.632652020023  10.6057211139616 17.632652020023  10.1368805104162 17.803807702654  C 9.66803990687072 17.9749311671285  9.3163853770925 18.2424182558184  9.08194904480047 18.6061401590239  C 8.8048908366095 19.0126509828876  8.7196470848121 19.4191296200581  8.82618572836941 19.8256082572284  C 8.93275643296533 20.2321512677854  9.18848768835778 20.5423950904396  9.59341152424463 20.7563396937283  C 9.99830329909287 20.9702842970169  10.445881071917 20.9809734569108  10.9360165985624 20.7884072363361  C 11.4262162159453 20.5958732024544  11.7991976985222 20.3070399492069  12.0548648004969 19.921875289901  Z M 13.7172140809816 17.7717079733532  C 13.8237527245392 17.6219950468223  13.8450476476391 17.4614963688548  13.7811308486405 17.2903084995307  C 13.7172140809816 17.119185035056  13.6106754374243 17.0122288110267  13.4614507645508 16.9694398903691  C 13.312290245095 16.9052726184607  13.1418027415002 16.9052726184607  12.9499882851067 16.9694398903691  C 12.7582379507908 17.0336071622773  12.6303402620561 17.1405633548436  12.5663914333586 17.2903084995307  C 12.3746410990427 17.6754409721436  12.4598527898015 17.9536172207272  12.8221868108283 18.1247729033582  C 12.9926101610056 18.1675618240158  13.1631618180179 18.1568082592726  13.3336492902724 18.0926409559011  C 13.5041047328286 18.0284736839926  13.6319703605247 17.92148527327  13.7172140809816 17.7717079733532  Z M 16.7860211127063 16.2633100618218  C 17.3614644818863 17.3331296068816  17.3721440044751 18.4777734285137  16.8180275880936 19.6973059001048  C 16.2852701855493 20.9167417801532  15.347492764002 21.8046198911456  14.0049197820631 22.3609080463893  C 12.6623147077448 22.91719617017  11.3303250339382 22.9920848515917  10.0089827903412 22.5856062144212  C 8.73029451502202 22.1790309857083  7.8564979832106 21.4194874499958  7.38765737966492 20.3070077625136  C 6.91881677611991 19.1944958883387  6.95075912942957 18.0819517960069  7.48358065405137 16.9694077036759  C 8.05895993249419 15.8567992379583  8.96473084731406 15.0223992075173  10.2007652170362 14.4661432704295  C 11.4368637088357 13.9098873333421  12.6835775698064 13.8028989226198  13.9409709533656 14.1452102878814  C 15.2622169825063 14.4875538398364  16.2106098045649 15.1936192949977  16.7860211127063 16.2633100618218  Z M 22.3803585248754 16.8089733990948  C 22.2738198813183 15.6749865506633  21.7516457869065 14.6694630872105  20.8138683653592 13.7922741361119  C 19.8762192193067 12.9150852164762  18.6295053583362 12.2624978418671  17.0737588434858 11.8346086667527  C 15.5180444210146 11.406687273482  13.887701615917 11.2783527296651  12.1827625205722 11.4494761941398  C 9.54017427917461 11.7276846608797  7.34506759614555 12.5727416645213  5.59753868594021 13.9848081699938  C 3.84997771469671 15.3969068936226  3.06145699572153 16.9800968635698  3.23197659169523 18.7344747343043  C 3.33851523525254 19.8684293645795  3.8713046988355 20.8740494510378  4.83034498244433 21.7512061839802  C 5.78932111263521 22.6283307302297  7.02541960443477 23.2809180733759  8.53854421204619 23.7088394666466  C 10.051636758619 24.136728641761  11.6819795637166 24.2650310303477  13.4295084739215 24.0939397211032  C 16.0934236994576 23.8158600325989  18.2884983214481 22.9707386555708  20.014732308553 21.5586399319425  C 21.7410304177354 20.1465734579331  22.5294869832928 18.5633190516733  22.3803585248754 16.8089733990948  Z M 27.8787085405813 16.9052726184607  C 27.8787085405813 17.7182298928014  27.665567100049 18.5419407004224  27.2392842189845 19.3763407308634  C 26.8130333989586 20.2107729479976  26.1630899226475 21.0344515689258  25.2892933908361 21.8474732166528  C 24.4155610124426 22.6604948643801  23.4138667918962 23.3558711281839  22.2843710970717 23.9335376346783  C 21.1548754022472 24.5111397363235  19.8122382668905 25.014014184402  18.2564917520401 25.4419033595166  C 16.7007131761511 25.8697603479377  15.0917614772698 26.0516374086187  13.4294442578234 25.9874379185537  C 11.7671270383771 25.9232384284892  10.1261688641082 25.7199830165575  8.50647348922053 25.3777038694518  C 6.88681020671174 25.0353281308037  5.45892931955723 24.4897935717659  4.22283082775812 23.7409391959472  C 2.98676442833744 22.992149224978  1.96383943810883 22.0828283578851  1.15399176633514 21.0130409995186  C 0.344144125901494 19.943318046001  -0.0394527258465587 18.7559496770975  0.00320121109075444 17.4508071774978  C 0.00320121109075444 16.0814651878341  0.418772508527582 14.6159527885031  1.24994713310002 13.0541411383433  C 2.08108969663363 11.4922329281046  3.25320726735708 9.95183184735197  4.76633190630878 8.43277693115692  C 6.7696241329445 6.42163334978295  8.80485868155029 5.02025603566722  10.8720997682235 4.22861273919079  C 12.9393087625181 3.43703384756373  14.3991961250597 3.46910139017155  15.2516656727321 4.32487977186315  C 16.0188273465296 5.09511249893262  16.1360134202969 6.34674473128734  15.6033201711703 8.07974421930817  C 15.5606982952715 8.250932088632  15.5606982952715 8.36857747255522  15.6033201711703 8.43277693115692  C 15.6459420470687 8.4969442030656  15.6991792921388 8.53973312372318  15.7631281521763 8.56114369313013  C 15.8269807977574 8.58248985768751  15.9122566105934 8.58248985768751  16.0188273151896 8.56114369313013  C 16.1253659587469 8.53973312372318  16.2106097105443 8.51832258577929  16.2745906316206 8.4969442030656  L 16.370481844968 8.46484447376452  C 18.0327990644141 7.75881120529675  19.5033018274669 7.40577849344777  20.7819901027865 7.40577849344777  C 22.0606783781056 7.40577849344777  22.9663852021881 7.76950039665371  23.4992387878483 8.4969442030656  C 24.0320282514317 9.24576639219072  24.0320282514317 10.3048323725075  23.4992387878483 11.6741099573223  C 23.4778797426711 11.8452334217973  23.4459694503998 11.9629432105698  23.4033155134625 12.0271104824781  C 23.3607577909813 12.0913099725428  23.3927001442912 12.1661986225015  23.4992387878483 12.2518086505102  C 23.605745370367 12.3373864918256  23.6803737216533 12.3908323856838  23.7230276899309 12.4122107369349  C 23.7656816268682 12.4336213063418  23.8615407478367 12.4657532223357  24.0107654207104 12.5085421429937  C 24.6927795571669 12.7225189329754  25.3107486191298 13.0005986214794  25.8648650355115 13.3429421419714  C 26.419013544272 13.6852856939265  26.8877900257398 14.1773421409493  27.2714510309056 14.8192081375087  C 27.6548875774602 15.4611063522241  27.8574136488212 16.1564182426418  27.8787085405813 16.9052726184607  Z M 24.7778309427322 4.54954575320221  C 25.4811399396085 4.76355472987711  26.0778141098112 5.14862279764043  26.5680779119518 5.70491092142106  C 27.0582134385975 6.28257742791584  27.3778614616483 6.93513258436906  27.5270540421432 7.66257639078071  C 27.6761825005603 8.38995582380585  27.6443042693277 9.09602127896687  27.4311628287956 9.78070835141398  C 27.3245600318207 10.0374096572043  27.1434571590546 10.2406972872923  26.8877259036626 10.3904424005163  C 26.6319625872316 10.5402197004332  26.3656480237071 10.5615980831471  26.0885577544775 10.4546418905809  C 25.832730284629 10.3476535113218  25.6302683666854 10.1658086373336  25.4811720006471 9.90904292669393  C 25.3320435422299 9.65237380759686  25.3107165894312 9.38485453221415  25.4172231406096 9.10677484371035  C 25.6517236263194 8.35792046789152  25.5131143539572 7.70536531143853  25.0016839355517 7.14907718765744  C 24.4902214561075 6.59285343726333  23.8508612565881 6.37887664728123  23.0836354607131 6.50721122256118  C 22.8065451601435 6.57137849446985  22.5402626889977 6.52858957381227  22.284467311528 6.37884446058797  C 22.0286719340586 6.22906716067109  21.8795114146023 6.00440117933226  21.8368895387039 5.70487873472803  C 21.7729406786661 5.40535629012379  21.8262741695326 5.13793360628347  21.9966975197099 4.90254627835793  C 22.1671850233047 4.66719113712543  22.3803585248754 4.51744602390113  22.6360897802679 4.45324653383659  C 23.3607257926233 4.30350142061252  24.074586036593 4.33560114991315  24.7778309427322 4.54954575320221  Z M 29.7967570154196 2.78451087780354  C 30.8196820056482 3.93984389079287  31.4909203737195 5.27705393299993  31.8106966722655 6.79607663103866  C 32.1304088173936 8.31513154723393  32.0451650969364 9.7485764039568  31.554869202417 11.0965078556771  C 31.4483946809371 11.417408651532  31.2458686409161 11.6634207974284  30.9475796630427 11.8346086667527  C 30.6491624096745 12.0057321312274  30.3401939092123 12.0271427006346  30.020481732744 11.8987759386609  C 29.7008337096931 11.7704413633812  29.4663973774013 11.5671859514493  29.3171727045276 11.2890418895588  C 29.1680442461104 11.0108656095124  29.1360377707229 10.7006862231706  29.22128149118 10.3583426712153  C 29.5622885594084 9.37419752755045  29.6261732660282 8.34723130799762  29.4130638865349 7.27750832301717  C 29.1999224460026 6.20772096465043  28.7204023198683 5.26633255494994  27.9745676302095 4.45334309391592  C 27.2286046650556 3.618943094938  26.344224825112 3.05199796649367  25.3212677738447 2.75244333519618  C 24.2983427836161 2.45292089059194  23.2753216102712 2.39941062334719  22.252364559004 2.59197684392188  C 21.9114216441933 2.65617633398688  21.6024210826924 2.59197684392188  21.3253949355403 2.39941062334719  C 21.0483687883882 2.20684440277205  20.8672338545839 1.95011087882585  20.7819901027865 1.62917789627772  C 20.6966822289114 1.30827710042263  20.7500477494764 0.998001091075366  20.9418301448311 0.698510864627451  C 21.1335804791472 0.398956233329955  21.3999271037103 0.227832768855023  21.7410303550548 0.184979443348311  C 23.1901740729302 -0.114510783099831  24.6393177908055 -0.0503435111913859  26.0885897841761 0.377545663923001  C 27.5377014723526 0.805467057193709  28.7737999641522 1.60776732687054  29.7967570154196 2.78451087780354  Z " fill-rule="nonzero" fill="#ffffff" stroke="none" transform="matrix(1 0 0 1 171 15 )" />
  </g>
</svg>