<?xml version="1.0" encoding="utf-8"?>
<svg version="1.1" xmlns:xlink="http://www.w3.org/1999/xlink" width="28px" height="29px" xmlns="http://www.w3.org/2000/svg">
  <g transform="matrix(1 0 0 1 -246 -12 )">
    <path d="M 27.870520231214 18.7277904328019  L 27.935260115607 19.2562642369021  L 28 19.7186788154898  L 28 19.9829157175398  L 28 20.1810933940774  L 28 20.379271070615  L 27.9676300578033 20.6104783599086  L 27.935260115607 21.006833712984  L 27.8381502890172 21.370159453303  L 27.7410404624277 21.7004555808654  L 27.7086705202312 21.8656036446468  L 27.6439306358382 21.9977220956718  L 27.5468208092484 22.1298405466971  L 27.4820809248554 22.2619589977221  L 27.4173410404624 22.3610478359911  L 27.3202312138728 22.4601366742599  L 27.2554913294798 22.5592255125285  L 27.1583815028901 22.6252847380409  L 27.0612716763005 22.6583143507973  L 26.964161849711 22.7243735763097  L 26.8670520231212 22.7574031890661  L 26.8023121387282 22.7574031890661  L 26.7699421965317 22.7574031890661  L 26.6728323699422 22.7243735763097  L 26.5433526011559 22.6583143507973  L 26.4786127167631 22.5922551252847  L 26.3815028901734 22.5592255125285  L 26.3167630057803 22.4601366742599  L 26.2520231213873 22.3940774487471  L 26.122543352601 22.2619589977221  L 25.993063583815 22.0637813211845  L 25.8635838150287 21.8656036446468  L 25.7341040462429 21.6674259681095  L 25.6046242774567 21.4692482915718  L 25.4427745664739 21.1389521640092  L 25.2809248554913 20.7756264236904  L 25.2485549132946 20.7756264236904  L 25.2161849710983 20.7756264236904  L 25.1514450867051 20.8086560364464  L 25.1190751445088 20.9077448747154  L 25.021965317919 21.0398633257404  L 24.9248554913295 21.370159453303  L 24.7306358381502 21.8656036446468  L 24.4716763005779 22.4601366742599  L 24.3098265895953 22.7574031890661  L 24.1156069364163 23.0876993166287  L 23.8890173410402 23.4510250569477  L 23.6624277456647 23.7813211845104  L 23.5329479768786 23.9464692482916  L 23.3710982658959 24.1116173120727  L 23.0473988439305 24.4419134396358  L 23.0797687861273 24.4749430523918  L 23.1121387283235 24.3428246013668  L 23.2739884393063 24.4419134396358  L 23.98612716763 24.8052391799544  L 24.3098265895953 24.9703872437358  L 24.6011560693642 25.1355353075172  L 24.892485549133 25.366742596811  L 25.1514450867051 25.5979498861048  L 25.2809248554913 25.6970387243739  L 25.3780346820809 25.8291571753986  L 25.4751445086706 25.9282460136672  L 25.5398843930636 26.0933940774486  L 25.6046242774567 26.2255125284736  L 25.6369942196532 26.3576309794989  L 25.6693641618497 26.4897494305239  L 25.7017341040462 26.6218678815489  L 25.6693641618497 26.7209567198177  L 25.6693641618497 26.8200455580867  L 25.6369942196532 26.9191343963553  L 25.6046242774567 27.0182232346243  L 25.5722543352601 27.0842824601367  L 25.5075144508669 27.2164009111617  L 25.4104046242774 27.3815489749434  L 25.2809248554913 27.5136674259681  L 25.1838150289016 27.6127562642367  L 25.1190751445088 27.7118451025057  L 24.9248554913295 27.8439635535307  L 24.6982658959537 27.9760820045557  L 24.4393063583816 28.0751708428245  L 24.2127167630058 28.2072892938495  L 23.921387283237 28.3063781321184  L 23.7595375722544 28.3724373576312  L 23.6300578034682 28.4054669703874  L 23.3063583815028 28.4715261959  L 22.9826589595375 28.5706150341686  L 22.6265895953757 28.636674259681  L 22.2705202312138 28.6697038724374  L 21.8820809248555 28.7027334851938  L 21.4936416184969 28.7687927107062  L 21.1052023121388 28.7687927107062  L 20.6843930635837 28.7687927107062  L 20.2635838150288 28.7687927107062  L 19.842774566474 28.7357630979498  L 19.4219653179191 28.6697038724374  L 19.0011560693642 28.636674259681  L 18.5479768786126 28.6036446469248  L 18.094797687861 28.504555808656  L 17.6416184971099 28.4054669703874  L 17.220809248555 28.3063781321184  L 16.7676300578034 28.2072892938495  L 16.3468208092486 28.0421412300681  L 15.893641618497 27.9100227790434  L 15.6994219653179 27.8109339407746  L 15.4728323699421 27.7448747152622  L 15.3433526011561 27.7118451025057  L 15.2138728323698 27.6788154897496  L 15.0520231213873 27.6788154897496  L 14.857803468208 27.6788154897496  L 14.4369942196531 27.6457858769931  L 14.2427745664741 27.6127562642367  L 13.9838150289017 27.6127562642367  L 13.7895953757225 27.7448747152622  L 13.5630057803469 27.9100227790434  L 13.2393063583813 28.0751708428245  L 12.8832369942197 28.2733485193624  L 12.6566473988437 28.3724373576312  L 12.4300578034681 28.4715261959  L 11.9445086705202 28.6697038724374  L 11.6531791907514 28.7357630979498  L 11.3618497109826 28.8018223234624  L 10.9734104046242 28.9009111617312  L 10.7468208092484 28.9009111617312  L 10.4554913294796 28.9339407744874  L 10.1965317919073 28.966970387244  L 9.90520231213873 29  L 9.58150289017317 29  L 9.25780346820807 29  L 8.5780346820809 29  L 7.86589595375722 28.966970387244  L 7.15375722543354 28.9009111617312  L 6.76531791907519 28.8348519362188  L 6.44161849710963 28.7687927107062  L 6.08554913294802 28.7357630979498  L 5.76184971098246 28.6697038724374  L 5.43815028901713 28.5706150341686  L 5.14682080924854 28.4715261959  L 4.85549132947972 28.3724373576312  L 4.5641618497109 28.2733485193624  L 4.3375722543351 28.1412300683372  L 4.11098265895953 27.9760820045557  L 3.88439306358373 27.8439635535307  L 3.81965317919071 27.7779043280184  L 3.72254335260095 27.6788154897496  L 3.65780346820793 27.6127562642367  L 3.5606936416184 27.5136674259681  L 3.52832369942189 27.3815489749434  L 3.49595375722538 27.2824601366743  L 3.39884393063562 27.0842824601367  L 3.36647398843911 27.0182232346243  L 3.36647398843911 26.8861047835991  L 3.36647398843911 26.7870159453303  L 3.36647398843911 26.6548974943053  L 3.36647398843911 26.5227790432801  L 3.39884393063562 26.3906605922551  L 3.39884393063562 26.3246013667427  L 3.39884393063562 26.1594533029613  L 3.43121387283236 26.027334851936  L 3.49595375722538 25.8952164009113  L 3.52832369942189 25.7300683371298  L 3.59306358381491 25.5649202733487  L 3.65780346820793 25.498861047836  L 3.72254335260095 25.399772209567  L 3.85202312138722 25.2346241457858  L 3.98150289017326 25.1685649202734  L 4.04624277456628 25.1025056947608  L 4.17572254335255 25.0034168564922  L 4.30520231213859 24.9703872437358  L 4.43468208092486 24.9043280182232  L 4.5641618497109 24.8382687927106  L 4.72601156069368 24.7722095671982  L 4.92023121387274 24.7061503416854  L 5.11445086705203 24.6731207289294  L 5.30867052023132 24.6400911161732  L 5.53526011560689 24.6400911161732  L 5.76184971098246 24.6070615034168  L 5.82658959537571 24.5740318906606  L 5.85895953757222 24.5410022779044  L 5.85895953757222 24.5079726651482  L 5.82658959537571 24.4749430523918  L 5.69710982658944 24.4088838268792  L 5.37341040462411 24.3097949886106  L 5.14682080924854 24.1446469248294  L 4.92023121387274 23.9134396355354  L 4.66127167630043 23.6492027334854  L 4.40231213872812 23.3519362186789  L 4.11098265895953 22.9886104783599  L 3.98150289017326 22.7904328018223  L 3.85202312138722 22.5922551252847  L 3.72254335260095 22.3610478359911  L 3.59306358381491 22.1298405466971  L 3.46358381502864 21.8656036446468  L 3.36647398843911 21.6013667425968  L 3.23699421965307 21.3371298405469  L 3.10751445086703 21.0398633257404  L 3.0104046242775 20.7425968109338  L 2.94566473988425 20.379271070615  L 2.91329479768774 20.379271070615  L 2.88092485549123 20.379271070615  L 2.88092485549123 20.346241457859  L 2.84855491329472 20.346241457859  L 2.81618497109821 20.379271070615  L 2.78381502890147 20.379271070615  L 2.75144508670519 20.4453302961276  L 2.71907514450845 20.51138952164  L 2.68670520231194 20.5774487471526  L 2.65433526011566 20.6765375854214  L 2.49248554913288 20.9738041002278  L 2.42774566473986 21.1059225512528  L 2.33063583815033 21.2710706150342  L 2.20115606936406 21.4362186788154  L 2.03930635838128 21.6013667425968  L 1.90982658959547 21.7665148063783  L 1.74797687861269 21.9316628701595  L 1.5537572254334 22.0637813211845  L 1.39190751445085 22.1958997722095  L 1.19768786127156 22.3280182232349  L 1.00346820809227 22.3940774487471  L 0.744508670519963 22.4601366742599  L 0.647398843930432 22.4931662870161  L 0.582658959537412 22.4931662870161  L 0.517919075144391 22.4601366742599  L 0.453179190751371 22.4601366742599  L 0.388439306358123 22.3940774487471  L 0.35606936416184 22.3280182232349  L 0.226589595375572 22.1298405466971  L 0.194219653179061 22.0307517084285  L 0.161849710982551 21.8656036446468  L 0.0971098265895307 21.7004555808654  L 0.0647398843927931 21.502277904328  L 0.0323699421965102 21.1389521640092  L 0 20.9077448747154  L 0 20.6765375854214  L 0 20.1810933940774  L 0.0323699421965102 19.6526195899774  L 0.0971098265895307 19.3883826879271  L 0.129479768786041 19.0911161731209  L 0.161849710982551 18.7938496583141  L 0.258959537572082 18.4965831435079  L 0.35606936416184 18.1662870159453  L 0.453179190751371 17.8359908883827  L 0.582658959537412 17.50569476082  L 0.67976878612717 17.2084282460136  L 0.841618497109721 16.878132118451  L 1.00346820809227 16.514806378132  L 1.19768786127156 16.2175398633258  L 1.42427745664713 15.854214123007  L 1.65086705202316 15.5239179954441  L 1.87745664739873 15.1936218678813  L 2.07167630057802 14.9293849658315  L 2.33063583815033 14.6651480637813  L 2.58959537572264 14.3678815489747  L 2.68670520231194 14.2357630979499  L 2.84855491329472 14.1036446469249  L 3.07514450867052 13.9054669703875  L 3.30173410404609 13.7072892938497  L 3.65780346820793 13.3769931662868  L 3.91676300578024 13.1788154897494  L 4.01387283236977 13.1127562642368  L 3.98150289017326 12.9476082004556  L 3.91676300578024 12.7164009111618  L 3.88439306358373 12.5842824601366  L 3.88439306358373 12.4521640091116  L 3.88439306358373 12.253986332574  L 3.88439306358373 12.0888382687926  L 3.94913294797698 11.890660592255  L 3.98150289017326 11.6924829157176  L 4.04624277456628 11.4612756264235  L 4.17572254335255 11.2300683371297  L 4.27283236994208 10.9658314350795  L 4.46705202312137 10.7346241457857  L 4.46705202312137 10.5694760820045  L 4.46705202312137 10.3712984054669  L 4.49942196531788 10.1731207289293  L 4.5641618497109 9.90888382687905  L 4.66127167630043 9.64464692482882  L 4.69364161849694 9.51252847380428  L 4.75838150288996 9.38041002277905  L 4.85549132947972 9.28132118451025  L 4.92023121387274 9.18223234624144  L 4.92023121387274 8.98405466970406  L 4.92023121387274 8.78587699316622  L 4.92023121387274 8.55466970387241  L 4.98497109826576 8.22437357630957  L 5.01734104046227 7.86104783599076  L 5.14682080924854 7.39863325740315  L 5.24393063583807 6.93621867881531  L 5.3410404624276 6.70501138952174  L 5.43815028901713 6.40774487471532  L 5.53526011560689 6.14350797266509  L 5.66473988439293 5.87927107061509  L 5.7942196531792 5.58200455580867  L 5.92369942196524 5.28473804100248  L 6.08554913294802 4.9874715261956  L 6.27976878612708 4.69020501138941  L 6.37687861271661 4.52505694760822  L 6.50635838150288 4.3599088838268  L 6.70057803468194 4.02961275626419  L 6.92716763005774 3.73234624145754  L 7.18612716763005 3.40205011389516  L 7.44508670520236 3.07175398633277  L 7.73641618497095 2.7414578587697  L 8.06011560693628 2.44419134396329  L 8.41618497109812 2.08086560364471  L 8.67514450867043 1.8826879271071  L 8.96647398843925 1.65148063781329  L 9.25780346820807 1.45330296127545  L 9.58150289017317 1.25512528473806  L 9.90520231213873 1.05694760820068  L 10.2289017341041 0.924829157175451  L 10.5849710982659 0.759681093393803  L 10.9410404624277 0.627562642368804  L 11.3294797687861 0.495444191344032  L 11.7179190751444 0.363325740319033  L 12.1063583815028 0.264236902049999  L 12.4947976878611 0.198177676537385  L 12.915606936416 0.132118451024772  L 13.3364161849709 0.0990888382688064  L 13.7572254335259 0.0330296127559653  L 14.1780346820808 0  L 14.5988439306357 0  L 15.0196531791908 0  L 15.4728323699421 0  L 15.893641618497 0.0660592255126135  L 16.3468208092486 0.0990888382688064  L 16.7676300578034 0.165148063781192  L 17.1884393063583 0.264236902049999  L 17.6416184971099 0.363325740319033  L 18.0624277456648 0.462414578587612  L 18.4832369942196 0.561503416856646  L 18.9040462427745 0.72665148063761  L 19.2924855491328 0.891799544418803  L 19.6809248554914 1.05694760820068  L 20.1017341040463 1.25512528473806  L 20.4578034682081 1.48633257403187  L 20.8138728323697 1.71753986332545  L 21.1375722543353 1.94874715261948  L 21.2670520231213 2.04783599088829  L 21.4289017341039 2.17995444191329  L 21.7202312138729 2.41116173120709  L 21.9468208092485 2.64236902050113  L 22.2057803468208 2.90660592255112  L 22.4323699421964 3.17084282460135  L 22.6265895953757 3.43507972665135  L 22.8531791907515 3.73234624145754  L 23.0150289017342 4.02961275626419  L 23.1768786127168 4.29384965831419  L 23.3710982658959 4.59111617312083  L 23.5005780346821 4.85535307517038  L 23.7595375722544 5.41685649202725  L 23.856647398844 5.71412300683367  L 23.9537572254335 6.01138952164009  L 24.050867052023 6.30865603644628  L 24.1479768786126 6.57289293849674  L 24.2127167630058 6.80410022779054  L 24.2774566473988 7.10136674259673  L 24.4069364161849 7.59681093394077  L 24.5040462427746 8.02619589977218  L 24.5364161849711 8.45558086560338  L 24.6011560693642 8.78587699316622  L 24.6658959537572 9.31435079726644  L 24.6982658959537 9.38041002277905  L 24.7306358381502 9.47949886104763  L 24.9248554913295 9.77676537585382  L 25.021965317919 9.9419134396357  L 25.1190751445088 10.1400911161731  L 25.2161849710983 10.3382687927105  L 25.3132947976878 10.5694760820045  L 25.4104046242774 10.8337129840547  L 25.4751445086706 11.0979498861047  L 25.5075144508669 11.3621867881547  L 25.5398843930636 11.5273348519364  L 25.5722543352601 11.6924829157176  L 25.5722543352601 11.8576309794988  L 25.5398843930636 11.989749430524  L 25.5398843930636 12.1548974943052  L 25.5075144508669 12.3530751708428  L 25.4104046242774 12.6833712984052  L 25.3456647398843 12.8485193621868  L 25.2809248554913 13.0466970387242  L 25.2809248554913 13.1127562642368  L 25.3132947976878 13.145785876993  L 25.4104046242774 13.3109339407747  L 25.7988439306359 13.8724373576309  L 26.0901734104045 14.3348519362187  L 26.2196531791908 14.5990888382687  L 26.4138728323701 14.9293849658315  L 26.5757225433526 15.2596810933939  L 26.7699421965317 15.6230068337132  L 26.964161849711 16.0523917995444  L 27.1907514450868 16.514806378132  L 27.3202312138728 16.8120728929386  L 27.4497109826589 17.1093394077448  L 27.5468208092484 17.4066059225512  L 27.6439306358382 17.6708428246015  L 27.7086705202312 17.9350797266515  L 27.7734104046244 18.1993166287015  L 27.870520231214 18.7277904328019  Z " fill-rule="nonzero" fill="#ffffff" stroke="none" transform="matrix(1 0 0 1 246 12 )" />
  </g>
</svg>