<?xml version="1.0" encoding="utf-8"?>
<svg version="1.1" xmlns:xlink="http://www.w3.org/1999/xlink" width="24px" height="24px" xmlns="http://www.w3.org/2000/svg">
  <g transform="matrix(1 0 0 1 -503 -749 )">
    <path d="M 13.7270553321637 17.4453846153847  C 13.7270553321637 17.7289973230992  13.6143906227016 18.0009939926829  13.413846153846 18.2015384615385  L 9.25999999999976 22.3553846153847  C 8.24869894031417 23.3566505326667  6.88311744448674 23.9183634070637  5.46000000000004 23.9184615384617  C 4.02890083830334 23.9327087269978  2.65486467043888 23.3580612122594  1.66000000000008 22.3292307692307  C 0.646291514019367 21.3241088068737  0.0744439781533401 19.9567676514139  0.0707692307694288 18.5292307692308  C 0.0565220422327002 17.0981316075342  0.631169556971372 15.7240954396696  1.66000000000008 14.7292307692308  L 6.58307692307699 9.80615384615385  C 7.58819888543394 8.79244536017336  8.95554004089377 8.22059782430688  10.3830769230767 8.21692307692308  C 11.8141405199644 8.20285776149547  13.1881077497453 8.77747644504359  14.1830769230769 9.80615384615385  C 14.384112994496 10.0112752486936  14.4948840393558 10.2882028608427  14.4907692307693 10.5753846153847  C 14.4801808202781 10.8596478516622  14.3714530646371 11.1314672407652  14.1830769230769 11.3446153846155  C 13.9846197216618 11.5490497650968  13.7118417964139 11.6644158471568  13.426923076923 11.6644158471568  C 13.1420043574321 11.6644158471568  12.8692264321844 11.5490497650968  12.6707692307693 11.3446153846155  C 11.3980735255827 10.1036610332357  9.36808032057115 10.1036610332357  8.09538461538455 11.3446153846155  L 3.17230769230764 16.2676923076923  C 2.5706484770044 16.8758562482857  2.23812097740506 17.6999702347932  2.24923076923051 18.5553846153846  C 2.25603852724635 19.407343726186  2.58594657535446 20.2249658387467  3.17230769230764 20.843076923077  C 3.78047163290103 21.44473613838  4.60458561940868 21.7772636379794  5.46000000000004 21.7661538461539  C 6.31195911080135 21.759346088138  7.12958122336204 21.4294380400303  7.74769230769243 20.843076923077  L 11.9015384615386 16.6892307692308  C 12.1020829303941 16.4886863003752  12.3740795999779 16.3760215909133  12.6576923076923 16.3760215909133  C 13.2482851981406 16.3760215909133  13.7270553321637 16.8547917249361  13.7270553321637 17.4453846153847  Z M 22.2923076923078 9.29076923076923  L 17.3692307692306 14.2138461538461  C 16.3641088068737 15.2275546398266  14.9967676514138 15.7994021756931  13.5692307692309 15.8030769230769  L 13.563076923077 15.8230769230769  C 12.1319777613801 15.8373241116133  10.7579415935156 15.2626765968748  9.76307692307682 14.2338461538461  C 9.56253245422135 14.0333016849905  9.44986774475956 13.7613050154067  9.44986774475956 13.4776923076922  C 9.44986774475956 12.8870994172438  9.92863787878218 12.4083292832208  10.5192307692307 12.4083292832208  C 10.8028434769453 12.4083292832208  11.0748401465291 12.5209939926829  11.2753846153848 12.7215384615384  C 12.548080320571 13.9624928129183  14.5780735255826 13.9624928129183  15.8507692307692 12.7215384615384  L 20.7738461538463 7.79846153846142  C 21.3755053691493 7.19029759786815  21.7080328687487 6.36618361136073  21.6969230769232 5.51076923076926  C 21.6901153189074 4.65881011996782  21.3602072707995 3.84118800740725  20.7738461538463 3.22307692307697  C 20.1656822132527 2.62141770777373  19.3415682267455 2.28889020817428  18.4861538461541 2.29999999999995  C 17.6341947353524 2.30680775801568  16.8165726227919 2.63671580612345  16.1984615384613 3.22307692307697  L 12.0446153846156 7.37692307692305  C 11.8437715809036 7.57453723152958  11.573300040875 7.68528818169602  11.2915384615383 7.68528818169602  C 10.6985228659605 7.68528818169602  10.2177887413811 7.20455405711652  10.2177887413811 6.61153846153843  C 10.2177887413811 6.32374534633368  10.3333183671468 6.04799823280405  10.5384615384617 5.84615384615392  L 14.6923076923078 1.69230769230774  C 15.6974296546648 0.678599206327135  17.0647708101246 0.106751670460767  18.4923076923076 0.103076923076969  C 19.9233712891951 0.0890116076493541  21.2973385189762 0.663630291197478  22.2923076923078 1.69230769230774  C 24.3841316400385 3.79322556870443  24.3841316400385 7.18985135437242  22.2923076923078 9.29076923076923  Z " fill-rule="nonzero" fill="#666666" stroke="none" transform="matrix(1 0 0 1 503 749 )" />
  </g>
</svg>