<?xml version="1.0" encoding="utf-8"?>
<svg version="1.1" xmlns:xlink="http://www.w3.org/1999/xlink" width="26px" height="23px" xmlns="http://www.w3.org/2000/svg">
  <defs>
    <mask fill="white" id="clip547">
      <path d="M 10.4 1.5  C 11.6 -0.5  14.5 -0.5  15.6 1.5  L 25.4 18.5  C 26.6 20.5  25.1 23  22.8 23  L 3.2 23  C 0.9 23  -0.6 20.5  0.6 18.5  L 10.4 1.5  Z " fill-rule="evenodd" />
    </mask>
  </defs>
  <g transform="matrix(1 0 0 1 -647 -750 )">
    <path d="M 10.4 1.5  C 11.6 -0.5  14.5 -0.5  15.6 1.5  L 25.4 18.5  C 26.6 20.5  25.1 23  22.8 23  L 3.2 23  C 0.9 23  -0.6 20.5  0.6 18.5  L 10.4 1.5  Z " fill-rule="nonzero" fill="#ffffff" stroke="none" fill-opacity="0" transform="matrix(1 0 0 1 647 750 )" />
    <path d="M 10.4 1.5  C 11.6 -0.5  14.5 -0.5  15.6 1.5  L 25.4 18.5  C 26.6 20.5  25.1 23  22.8 23  L 3.2 23  C 0.9 23  -0.6 20.5  0.6 18.5  L 10.4 1.5  Z " stroke-width="4" stroke="#666666" fill="none" transform="matrix(1 0 0 1 647 750 )" mask="url(#clip547)" />
  </g>
</svg>