<?xml version="1.0" encoding="utf-8"?>
<svg version="1.1" xmlns:xlink="http://www.w3.org/1999/xlink" width="24px" height="24px" xmlns="http://www.w3.org/2000/svg">
  <defs>
    <mask fill="white" id="clip548">
      <path d="M 22.9910969447546 10.1101965485491  C 23.2027549218751 9.89421899832587  23.2761872879464 9.57889179408494  23.1811571568082 9.29380145089272  C 23.0861270507812 9.00871110770095  22.8399126395088 8.80137265346002  22.5418636523436 8.75385760044628  L 15.7515298409598 7.70420676060257  L 12.7192051925222 1.21192196149559  C 12.5852991294641 0.931151166294512  12.3045283091519 0.749730025111603  11.9935206529017 0.749730025111603  C 11.6825129966519 0.749730025111603  11.4017422014508 0.926831618303368  11.2678361132812 1.21192196149559  L 8.2095941768971 7.69124811662959  L 1.40630174665193 8.71498164341529  C 1.10825273437513 8.75817714843743  0.862038348214355 8.96551557756675  0.76268869419664 9.25060594587057  C 0.663339040178471 9.53569631417395  0.736771381138169 9.85102349330373  0.948429383370694 10.0670010435269  L 5.88135632812509 15.1424731724333  L 4.70211897321451 22.2956492410713  C 4.65028437220963 22.5980178013392  4.77987088727696 22.9047059095983  5.03040482142842 23.0818074776785  C 5.28093875558034 23.2589090708707  5.61354417689745 23.2761872628348  5.88135632812509 23.1293225306918  L 11.9546447209823 19.790309799107  L 18.0149744447544 23.1509202957591  C 18.1359218638395 23.2157135658481  18.2698279520091 23.2502699748884  18.4037340150671 23.2502699748884  C 18.4080535630578 23.2502699748884  18.4166926590401 23.2502699748884  18.4210122070313 23.2502699748884  C 18.8659259263395 23.2502699748884  19.2244486607142 22.8917472656249  19.2244486607142 22.4468335212055  C 19.2244486607142 22.3474838420757  19.2071704687501 22.2524537360491  19.1726140597098 22.1617431780132  L 18.0452113058036 15.1640709375001  L 22.9910969447546 10.1101965485491  Z " fill-rule="evenodd" />
    </mask>
  </defs>
  <g transform="matrix(1 0 0 1 -15 -15 )">
    <path d="M 22.9910969447546 10.1101965485491  C 23.2027549218751 9.89421899832587  23.2761872879464 9.57889179408494  23.1811571568082 9.29380145089272  C 23.0861270507812 9.00871110770095  22.8399126395088 8.80137265346002  22.5418636523436 8.75385760044628  L 15.7515298409598 7.70420676060257  L 12.7192051925222 1.21192196149559  C 12.5852991294641 0.931151166294512  12.3045283091519 0.749730025111603  11.9935206529017 0.749730025111603  C 11.6825129966519 0.749730025111603  11.4017422014508 0.926831618303368  11.2678361132812 1.21192196149559  L 8.2095941768971 7.69124811662959  L 1.40630174665193 8.71498164341529  C 1.10825273437513 8.75817714843743  0.862038348214355 8.96551557756675  0.76268869419664 9.25060594587057  C 0.663339040178471 9.53569631417395  0.736771381138169 9.85102349330373  0.948429383370694 10.0670010435269  L 5.88135632812509 15.1424731724333  L 4.70211897321451 22.2956492410713  C 4.65028437220963 22.5980178013392  4.77987088727696 22.9047059095983  5.03040482142842 23.0818074776785  C 5.28093875558034 23.2589090708707  5.61354417689745 23.2761872628348  5.88135632812509 23.1293225306918  L 11.9546447209823 19.790309799107  L 18.0149744447544 23.1509202957591  C 18.1359218638395 23.2157135658481  18.2698279520091 23.2502699748884  18.4037340150671 23.2502699748884  C 18.4080535630578 23.2502699748884  18.4166926590401 23.2502699748884  18.4210122070313 23.2502699748884  C 18.8659259263395 23.2502699748884  19.2244486607142 22.8917472656249  19.2244486607142 22.4468335212055  C 19.2244486607142 22.3474838420757  19.2071704687501 22.2524537360491  19.1726140597098 22.1617431780132  L 18.0452113058036 15.1640709375001  L 22.9910969447546 10.1101965485491  Z " fill-rule="nonzero" fill="#ffffff" stroke="none" fill-opacity="0" transform="matrix(1 0 0 1 15 15 )" />
    <path d="M 22.9910969447546 10.1101965485491  C 23.2027549218751 9.89421899832587  23.2761872879464 9.57889179408494  23.1811571568082 9.29380145089272  C 23.0861270507812 9.00871110770095  22.8399126395088 8.80137265346002  22.5418636523436 8.75385760044628  L 15.7515298409598 7.70420676060257  L 12.7192051925222 1.21192196149559  C 12.5852991294641 0.931151166294512  12.3045283091519 0.749730025111603  11.9935206529017 0.749730025111603  C 11.6825129966519 0.749730025111603  11.4017422014508 0.926831618303368  11.2678361132812 1.21192196149559  L 8.2095941768971 7.69124811662959  L 1.40630174665193 8.71498164341529  C 1.10825273437513 8.75817714843743  0.862038348214355 8.96551557756675  0.76268869419664 9.25060594587057  C 0.663339040178471 9.53569631417395  0.736771381138169 9.85102349330373  0.948429383370694 10.0670010435269  L 5.88135632812509 15.1424731724333  L 4.70211897321451 22.2956492410713  C 4.65028437220963 22.5980178013392  4.77987088727696 22.9047059095983  5.03040482142842 23.0818074776785  C 5.28093875558034 23.2589090708707  5.61354417689745 23.2761872628348  5.88135632812509 23.1293225306918  L 11.9546447209823 19.790309799107  L 18.0149744447544 23.1509202957591  C 18.1359218638395 23.2157135658481  18.2698279520091 23.2502699748884  18.4037340150671 23.2502699748884  C 18.4080535630578 23.2502699748884  18.4166926590401 23.2502699748884  18.4210122070313 23.2502699748884  C 18.8659259263395 23.2502699748884  19.2244486607142 22.8917472656249  19.2244486607142 22.4468335212055  C 19.2244486607142 22.3474838420757  19.2071704687501 22.2524537360491  19.1726140597098 22.1617431780132  L 18.0452113058036 15.1640709375001  L 22.9910969447546 10.1101965485491  Z " stroke-width="4" stroke="#666666" fill="none" transform="matrix(1 0 0 1 15 15 )" mask="url(#clip548)" />
  </g>
</svg>